G04 #@! TF.GenerationSoftware,KiCad,Pcbnew,9.0.7*
G04 #@! TF.CreationDate,2026-03-11T14:12:06+02:00*
G04 #@! TF.ProjectId,FlairControlCircuit,466c6169-7243-46f6-9e74-726f6c436972,rev?*
G04 #@! TF.SameCoordinates,Original*
G04 #@! TF.FileFunction,Copper,L1,Top*
G04 #@! TF.FilePolarity,Positive*
%FSLAX46Y46*%
G04 Gerber Fmt 4.6, Leading zero omitted, Abs format (unit mm)*
G04 Created by KiCad (PCBNEW 9.0.7) date 2026-03-11 14:12:06*
%MOMM*%
%LPD*%
G01*
G04 APERTURE LIST*
G04 Aperture macros list*
%AMRoundRect*
0 Rectangle with rounded corners*
0 $1 Rounding radius*
0 $2 $3 $4 $5 $6 $7 $8 $9 X,Y pos of 4 corners*
0 Add a 4 corners polygon primitive as box body*
4,1,4,$2,$3,$4,$5,$6,$7,$8,$9,$2,$3,0*
0 Add four circle primitives for the rounded corners*
1,1,$1+$1,$2,$3*
1,1,$1+$1,$4,$5*
1,1,$1+$1,$6,$7*
1,1,$1+$1,$8,$9*
0 Add four rect primitives between the rounded corners*
20,1,$1+$1,$2,$3,$4,$5,0*
20,1,$1+$1,$4,$5,$6,$7,0*
20,1,$1+$1,$6,$7,$8,$9,0*
20,1,$1+$1,$8,$9,$2,$3,0*%
G04 Aperture macros list end*
G04 #@! TA.AperFunction,SMDPad,CuDef*
%ADD10RoundRect,0.218750X0.381250X-0.218750X0.381250X0.218750X-0.381250X0.218750X-0.381250X-0.218750X0*%
G04 #@! TD*
G04 #@! TA.AperFunction,ComponentPad*
%ADD11C,1.700000*%
G04 #@! TD*
G04 #@! TA.AperFunction,ComponentPad*
%ADD12RoundRect,0.250000X0.600000X0.600000X-0.600000X0.600000X-0.600000X-0.600000X0.600000X-0.600000X0*%
G04 #@! TD*
G04 #@! TA.AperFunction,ComponentPad*
%ADD13C,2.600000*%
G04 #@! TD*
G04 #@! TA.AperFunction,ConnectorPad*
%ADD14C,3.800000*%
G04 #@! TD*
G04 #@! TA.AperFunction,SMDPad,CuDef*
%ADD15RoundRect,0.137500X0.137500X0.600000X-0.137500X0.600000X-0.137500X-0.600000X0.137500X-0.600000X0*%
G04 #@! TD*
G04 #@! TA.AperFunction,SMDPad,CuDef*
%ADD16RoundRect,0.137500X0.600000X0.137500X-0.600000X0.137500X-0.600000X-0.137500X0.600000X-0.137500X0*%
G04 #@! TD*
G04 #@! TA.AperFunction,SMDPad,CuDef*
%ADD17RoundRect,0.250000X-0.475000X0.337500X-0.475000X-0.337500X0.475000X-0.337500X0.475000X0.337500X0*%
G04 #@! TD*
G04 #@! TA.AperFunction,SMDPad,CuDef*
%ADD18RoundRect,0.237500X0.237500X-0.250000X0.237500X0.250000X-0.237500X0.250000X-0.237500X-0.250000X0*%
G04 #@! TD*
G04 #@! TA.AperFunction,SMDPad,CuDef*
%ADD19RoundRect,0.200000X0.200000X0.275000X-0.200000X0.275000X-0.200000X-0.275000X0.200000X-0.275000X0*%
G04 #@! TD*
G04 #@! TA.AperFunction,SMDPad,CuDef*
%ADD20RoundRect,0.250000X0.625000X-0.400000X0.625000X0.400000X-0.625000X0.400000X-0.625000X-0.400000X0*%
G04 #@! TD*
G04 #@! TA.AperFunction,SMDPad,CuDef*
%ADD21RoundRect,0.250000X0.350000X-0.850000X0.350000X0.850000X-0.350000X0.850000X-0.350000X-0.850000X0*%
G04 #@! TD*
G04 #@! TA.AperFunction,SMDPad,CuDef*
%ADD22RoundRect,0.249997X2.650003X-2.950003X2.650003X2.950003X-2.650003X2.950003X-2.650003X-2.950003X0*%
G04 #@! TD*
G04 #@! TA.AperFunction,SMDPad,CuDef*
%ADD23RoundRect,0.237500X0.250000X0.237500X-0.250000X0.237500X-0.250000X-0.237500X0.250000X-0.237500X0*%
G04 #@! TD*
G04 #@! TA.AperFunction,SMDPad,CuDef*
%ADD24RoundRect,0.237500X-0.250000X-0.237500X0.250000X-0.237500X0.250000X0.237500X-0.250000X0.237500X0*%
G04 #@! TD*
G04 #@! TA.AperFunction,SMDPad,CuDef*
%ADD25RoundRect,0.250000X1.500000X1.000000X-1.500000X1.000000X-1.500000X-1.000000X1.500000X-1.000000X0*%
G04 #@! TD*
G04 #@! TA.AperFunction,SMDPad,CuDef*
%ADD26RoundRect,0.225000X-0.225000X-0.250000X0.225000X-0.250000X0.225000X0.250000X-0.225000X0.250000X0*%
G04 #@! TD*
G04 #@! TA.AperFunction,SMDPad,CuDef*
%ADD27RoundRect,0.250000X-1.500000X-1.000000X1.500000X-1.000000X1.500000X1.000000X-1.500000X1.000000X0*%
G04 #@! TD*
G04 #@! TA.AperFunction,SMDPad,CuDef*
%ADD28RoundRect,0.250000X0.350000X0.450000X-0.350000X0.450000X-0.350000X-0.450000X0.350000X-0.450000X0*%
G04 #@! TD*
G04 #@! TA.AperFunction,SMDPad,CuDef*
%ADD29RoundRect,0.375000X0.625000X0.375000X-0.625000X0.375000X-0.625000X-0.375000X0.625000X-0.375000X0*%
G04 #@! TD*
G04 #@! TA.AperFunction,SMDPad,CuDef*
%ADD30RoundRect,0.500000X0.500000X1.400000X-0.500000X1.400000X-0.500000X-1.400000X0.500000X-1.400000X0*%
G04 #@! TD*
G04 #@! TA.AperFunction,SMDPad,CuDef*
%ADD31RoundRect,0.200000X0.275000X-0.200000X0.275000X0.200000X-0.275000X0.200000X-0.275000X-0.200000X0*%
G04 #@! TD*
G04 #@! TA.AperFunction,SMDPad,CuDef*
%ADD32RoundRect,0.250000X2.050000X0.300000X-2.050000X0.300000X-2.050000X-0.300000X2.050000X-0.300000X0*%
G04 #@! TD*
G04 #@! TA.AperFunction,SMDPad,CuDef*
%ADD33RoundRect,0.250002X4.449998X5.149998X-4.449998X5.149998X-4.449998X-5.149998X4.449998X-5.149998X0*%
G04 #@! TD*
G04 #@! TA.AperFunction,SMDPad,CuDef*
%ADD34RoundRect,0.250000X-0.450000X0.350000X-0.450000X-0.350000X0.450000X-0.350000X0.450000X0.350000X0*%
G04 #@! TD*
G04 #@! TA.AperFunction,SMDPad,CuDef*
%ADD35R,4.000000X7.000000*%
G04 #@! TD*
G04 #@! TA.AperFunction,SMDPad,CuDef*
%ADD36RoundRect,0.218750X0.256250X-0.218750X0.256250X0.218750X-0.256250X0.218750X-0.256250X-0.218750X0*%
G04 #@! TD*
G04 #@! TA.AperFunction,SMDPad,CuDef*
%ADD37RoundRect,0.250000X0.400000X0.625000X-0.400000X0.625000X-0.400000X-0.625000X0.400000X-0.625000X0*%
G04 #@! TD*
G04 #@! TA.AperFunction,SMDPad,CuDef*
%ADD38RoundRect,0.250000X-0.650000X0.412500X-0.650000X-0.412500X0.650000X-0.412500X0.650000X0.412500X0*%
G04 #@! TD*
G04 #@! TA.AperFunction,SMDPad,CuDef*
%ADD39RoundRect,0.250000X0.650000X-0.412500X0.650000X0.412500X-0.650000X0.412500X-0.650000X-0.412500X0*%
G04 #@! TD*
G04 #@! TA.AperFunction,SMDPad,CuDef*
%ADD40RoundRect,0.225000X0.225000X0.250000X-0.225000X0.250000X-0.225000X-0.250000X0.225000X-0.250000X0*%
G04 #@! TD*
G04 #@! TA.AperFunction,SMDPad,CuDef*
%ADD41RoundRect,0.250000X0.450000X-0.350000X0.450000X0.350000X-0.450000X0.350000X-0.450000X-0.350000X0*%
G04 #@! TD*
G04 #@! TA.AperFunction,ComponentPad*
%ADD42RoundRect,0.250000X0.550000X0.550000X-0.550000X0.550000X-0.550000X-0.550000X0.550000X-0.550000X0*%
G04 #@! TD*
G04 #@! TA.AperFunction,ComponentPad*
%ADD43C,1.600000*%
G04 #@! TD*
G04 #@! TA.AperFunction,SMDPad,CuDef*
%ADD44RoundRect,0.250001X0.462499X0.624999X-0.462499X0.624999X-0.462499X-0.624999X0.462499X-0.624999X0*%
G04 #@! TD*
G04 #@! TA.AperFunction,ComponentPad*
%ADD45R,1.700000X1.700000*%
G04 #@! TD*
G04 #@! TA.AperFunction,SMDPad,CuDef*
%ADD46RoundRect,0.250000X-0.450000X-0.350000X0.450000X-0.350000X0.450000X0.350000X-0.450000X0.350000X0*%
G04 #@! TD*
G04 #@! TA.AperFunction,SMDPad,CuDef*
%ADD47RoundRect,0.250000X-0.650000X1.000000X-0.650000X-1.000000X0.650000X-1.000000X0.650000X1.000000X0*%
G04 #@! TD*
G04 #@! TA.AperFunction,ComponentPad*
%ADD48R,1.800000X1.800000*%
G04 #@! TD*
G04 #@! TA.AperFunction,ComponentPad*
%ADD49C,1.800000*%
G04 #@! TD*
G04 #@! TA.AperFunction,ComponentPad*
%ADD50R,2.000000X2.000000*%
G04 #@! TD*
G04 #@! TA.AperFunction,ComponentPad*
%ADD51C,2.000000*%
G04 #@! TD*
G04 #@! TA.AperFunction,ViaPad*
%ADD52C,0.600000*%
G04 #@! TD*
G04 #@! TA.AperFunction,Conductor*
%ADD53C,0.300000*%
G04 #@! TD*
G04 #@! TA.AperFunction,Conductor*
%ADD54C,0.500000*%
G04 #@! TD*
G04 #@! TA.AperFunction,Conductor*
%ADD55C,0.700000*%
G04 #@! TD*
G04 #@! TA.AperFunction,Conductor*
%ADD56C,0.200000*%
G04 #@! TD*
G04 APERTURE END LIST*
D10*
G04 #@! TO.P,L1,1*
G04 #@! TO.N,/AVCC-LC*
X170640000Y-112962500D03*
G04 #@! TO.P,L1,2*
G04 #@! TO.N,+5V*
X170640000Y-110837500D03*
G04 #@! TD*
D11*
G04 #@! TO.P,J1,10,GND*
G04 #@! TO.N,GND*
X163160000Y-110320000D03*
G04 #@! TO.P,J1,9,MISO*
G04 #@! TO.N,/MISO*
X165700000Y-110320000D03*
G04 #@! TO.P,J1,8,GND*
G04 #@! TO.N,GND*
X163160000Y-112860000D03*
G04 #@! TO.P,J1,7,SCK*
G04 #@! TO.N,/SCK*
X165700000Y-112860000D03*
G04 #@! TO.P,J1,6,GND*
G04 #@! TO.N,GND*
X163160000Y-115400000D03*
G04 #@! TO.P,J1,5,RES*
G04 #@! TO.N,/RESET*
X165700000Y-115400000D03*
G04 #@! TO.P,J1,4,GND*
G04 #@! TO.N,GND*
X163160000Y-117940000D03*
G04 #@! TO.P,J1,3,NC*
G04 #@! TO.N,unconnected-(J1-NC-Pad3)*
X165700000Y-117940000D03*
G04 #@! TO.P,J1,2,VTG*
G04 #@! TO.N,+5V*
X163160000Y-120480000D03*
D12*
G04 #@! TO.P,J1,1,MOSI*
G04 #@! TO.N,/MOSI*
X165700000Y-120480000D03*
G04 #@! TD*
D13*
G04 #@! TO.P,H8,1,1*
G04 #@! TO.N,GND*
X177000000Y-151800000D03*
D14*
X177000000Y-151800000D03*
G04 #@! TD*
D13*
G04 #@! TO.P,H5,1,1*
G04 #@! TO.N,/IN+*
X160300000Y-151600000D03*
D14*
X160300000Y-151600000D03*
G04 #@! TD*
D15*
G04 #@! TO.P,U2,32,PD2*
G04 #@! TO.N,/Button*
X183760000Y-118792500D03*
G04 #@! TO.P,U2,31,PD1*
G04 #@! TO.N,unconnected-(U2-PD1-Pad31)*
X182960000Y-118792500D03*
G04 #@! TO.P,U2,30,PD0*
G04 #@! TO.N,unconnected-(U2-PD0-Pad30)*
X182160000Y-118792500D03*
G04 #@! TO.P,U2,29,~{RESET}/PC6*
G04 #@! TO.N,/RESET*
X181360000Y-118792500D03*
G04 #@! TO.P,U2,28,PC5*
G04 #@! TO.N,unconnected-(U2-PC5-Pad28)*
X180560000Y-118792500D03*
G04 #@! TO.P,U2,27,PC4*
G04 #@! TO.N,unconnected-(U2-PC4-Pad27)*
X179760000Y-118792500D03*
G04 #@! TO.P,U2,26,PC3*
G04 #@! TO.N,unconnected-(U2-PC3-Pad26)*
X178960000Y-118792500D03*
G04 #@! TO.P,U2,25,PC2*
G04 #@! TO.N,unconnected-(U2-PC2-Pad25)*
X178160000Y-118792500D03*
D16*
G04 #@! TO.P,U2,24,PC1*
G04 #@! TO.N,unconnected-(U2-PC1-Pad24)*
X176797500Y-117430000D03*
G04 #@! TO.P,U2,23,PC0*
G04 #@! TO.N,/THERM*
X176797500Y-116630000D03*
G04 #@! TO.P,U2,22,ADC7*
G04 #@! TO.N,unconnected-(U2-ADC7-Pad22)*
X176797500Y-115830000D03*
G04 #@! TO.P,U2,21,GND*
G04 #@! TO.N,GND*
X176797500Y-115030000D03*
G04 #@! TO.P,U2,20,AREF*
G04 #@! TO.N,Net-(U2-AREF)*
X176797500Y-114230000D03*
G04 #@! TO.P,U2,19,ADC6*
G04 #@! TO.N,unconnected-(U2-ADC6-Pad19)*
X176797500Y-113430000D03*
G04 #@! TO.P,U2,18,AVCC*
G04 #@! TO.N,/AVCC-LC*
X176797500Y-112630000D03*
G04 #@! TO.P,U2,17,PB5*
G04 #@! TO.N,/SCK*
X176797500Y-111830000D03*
D15*
G04 #@! TO.P,U2,16,PB4*
G04 #@! TO.N,/MISO*
X178160000Y-110467500D03*
G04 #@! TO.P,U2,15,PB3*
G04 #@! TO.N,/MOSI*
X178960000Y-110467500D03*
G04 #@! TO.P,U2,14,PB2*
G04 #@! TO.N,/LED3*
X179760000Y-110467500D03*
G04 #@! TO.P,U2,13,PB1*
G04 #@! TO.N,/LED2*
X180560000Y-110467500D03*
G04 #@! TO.P,U2,12,PB0*
G04 #@! TO.N,/LED1*
X181360000Y-110467500D03*
G04 #@! TO.P,U2,11,PD7*
G04 #@! TO.N,unconnected-(U2-PD7-Pad11)*
X182160000Y-110467500D03*
G04 #@! TO.P,U2,10,PD6*
G04 #@! TO.N,unconnected-(U2-PD6-Pad10)*
X182960000Y-110467500D03*
G04 #@! TO.P,U2,9,PD5*
G04 #@! TO.N,unconnected-(U2-PD5-Pad9)*
X183760000Y-110467500D03*
D16*
G04 #@! TO.P,U2,8,XTAL2/PB7*
G04 #@! TO.N,Net-(U2-XTAL2{slash}PB7)*
X185122500Y-111830000D03*
G04 #@! TO.P,U2,7,XTAL1/PB6*
G04 #@! TO.N,Net-(U2-XTAL1{slash}PB6)*
X185122500Y-112630000D03*
G04 #@! TO.P,U2,6,VCC*
G04 #@! TO.N,+5V*
X185122500Y-113430000D03*
G04 #@! TO.P,U2,5,GND*
G04 #@! TO.N,GND*
X185122500Y-114230000D03*
G04 #@! TO.P,U2,4,VCC*
G04 #@! TO.N,+5V*
X185122500Y-115030000D03*
G04 #@! TO.P,U2,3,GND*
G04 #@! TO.N,GND*
X185122500Y-115830000D03*
G04 #@! TO.P,U2,2,PD4*
G04 #@! TO.N,unconnected-(U2-PD4-Pad2)*
X185122500Y-116630000D03*
G04 #@! TO.P,U2,1,PD3*
G04 #@! TO.N,unconnected-(U2-PD3-Pad1)*
X185122500Y-117430000D03*
G04 #@! TD*
D17*
G04 #@! TO.P,C6,1*
G04 #@! TO.N,+5V*
X187610000Y-116305000D03*
G04 #@! TO.P,C6,2*
G04 #@! TO.N,GND*
X187610000Y-118380000D03*
G04 #@! TD*
D18*
G04 #@! TO.P,R6,1*
G04 #@! TO.N,/MISO*
X173500000Y-109812500D03*
G04 #@! TO.P,R6,2*
G04 #@! TO.N,Net-(Q1-G)*
X173500000Y-107987500D03*
G04 #@! TD*
D13*
G04 #@! TO.P,H3,1,1*
G04 #@! TO.N,/IN+*
X165900000Y-86800000D03*
D14*
X165900000Y-86800000D03*
G04 #@! TD*
D19*
G04 #@! TO.P,R3,1*
G04 #@! TO.N,Net-(U1-FB)*
X175225000Y-131400000D03*
G04 #@! TO.P,R3,2*
G04 #@! TO.N,GND*
X173575000Y-131400000D03*
G04 #@! TD*
D20*
G04 #@! TO.P,R9,1*
G04 #@! TO.N,/LED2*
X180500000Y-102550000D03*
G04 #@! TO.P,R9,2*
G04 #@! TO.N,Net-(D6-A)*
X180500000Y-99450000D03*
G04 #@! TD*
D21*
G04 #@! TO.P,Q1,1,G*
G04 #@! TO.N,Net-(Q1-G)*
X172420000Y-94265000D03*
D22*
G04 #@! TO.P,Q1,2,D*
G04 #@! TO.N,/OUT-*
X174700000Y-87965000D03*
D21*
G04 #@! TO.P,Q1,3,S*
G04 #@! TO.N,GND*
X176980000Y-94265000D03*
G04 #@! TD*
D23*
G04 #@! TO.P,R15,1*
G04 #@! TO.N,/THERM*
X194012500Y-109212500D03*
G04 #@! TO.P,R15,2*
G04 #@! TO.N,+5V*
X192187500Y-109212500D03*
G04 #@! TD*
D17*
G04 #@! TO.P,C13,1*
G04 #@! TO.N,Net-(U2-AREF)*
X174007500Y-116772500D03*
G04 #@! TO.P,C13,2*
G04 #@! TO.N,GND*
X174007500Y-118847500D03*
G04 #@! TD*
D24*
G04 #@! TO.P,R7,1*
G04 #@! TO.N,GND*
X168387500Y-92400000D03*
G04 #@! TO.P,R7,2*
G04 #@! TO.N,Net-(Q1-G)*
X170212500Y-92400000D03*
G04 #@! TD*
D25*
G04 #@! TO.P,C9,1*
G04 #@! TO.N,/VOUT*
X188207500Y-150400000D03*
G04 #@! TO.P,C9,2*
G04 #@! TO.N,GND*
X181707500Y-150400000D03*
G04 #@! TD*
D26*
G04 #@! TO.P,C8,1*
G04 #@! TO.N,/IN+*
X177525000Y-145200000D03*
G04 #@! TO.P,C8,2*
G04 #@! TO.N,GND*
X179075000Y-145200000D03*
G04 #@! TD*
D27*
G04 #@! TO.P,C7,1*
G04 #@! TO.N,/IN+*
X165750000Y-150400000D03*
G04 #@! TO.P,C7,2*
G04 #@! TO.N,GND*
X172250000Y-150400000D03*
G04 #@! TD*
D28*
G04 #@! TO.P,R1,1*
G04 #@! TO.N,+5V*
X166800000Y-127600000D03*
G04 #@! TO.P,R1,2*
G04 #@! TO.N,Net-(D1-A)*
X164800000Y-127600000D03*
G04 #@! TD*
D29*
G04 #@! TO.P,U3,1,GND*
G04 #@! TO.N,GND*
X188650000Y-129300000D03*
G04 #@! TO.P,U3,2,VO*
G04 #@! TO.N,+5V*
X188650000Y-127000000D03*
D30*
X182350000Y-127000000D03*
D29*
G04 #@! TO.P,U3,3,VI*
G04 #@! TO.N,/VOUT-VI*
X188650000Y-124700000D03*
G04 #@! TD*
D13*
G04 #@! TO.P,H4,1,1*
G04 #@! TO.N,/OUT-*
X189500000Y-86800000D03*
D14*
X189500000Y-86800000D03*
G04 #@! TD*
D31*
G04 #@! TO.P,R4,1*
G04 #@! TO.N,/VOUT*
X194800000Y-122225000D03*
G04 #@! TO.P,R4,2*
G04 #@! TO.N,Net-(D3-A)*
X194800000Y-120575000D03*
G04 #@! TD*
D20*
G04 #@! TO.P,R11,1*
G04 #@! TO.N,/MOSI*
X173600000Y-105760000D03*
G04 #@! TO.P,R11,2*
G04 #@! TO.N,Net-(BZ1-+)*
X173600000Y-102660000D03*
G04 #@! TD*
D13*
G04 #@! TO.P,H6,1,1*
G04 #@! TO.N,/THERM*
X194900000Y-94300000D03*
D14*
X194900000Y-94300000D03*
G04 #@! TD*
D32*
G04 #@! TO.P,U1,1,VIN*
G04 #@! TO.N,/IN+*
X175150000Y-141850000D03*
G04 #@! TO.P,U1,2,OUT*
G04 #@! TO.N,/SW*
X175150000Y-140150000D03*
G04 #@! TO.P,U1,3,GND*
G04 #@! TO.N,GND*
X175150000Y-138450000D03*
D33*
X166000000Y-138450000D03*
D32*
G04 #@! TO.P,U1,4,FB*
G04 #@! TO.N,Net-(U1-FB)*
X175150000Y-136750000D03*
G04 #@! TO.P,U1,5,~{ON}/OFF*
G04 #@! TO.N,GND*
X175150000Y-135050000D03*
G04 #@! TD*
D34*
G04 #@! TO.P,R14,1*
G04 #@! TO.N,Net-(R13-Pad2)*
X177700000Y-129900000D03*
G04 #@! TO.P,R14,2*
G04 #@! TO.N,Net-(U1-FB)*
X177700000Y-131900000D03*
G04 #@! TD*
D21*
G04 #@! TO.P,Q2,1,G*
G04 #@! TO.N,Net-(Q1-G)*
X181117500Y-94340000D03*
D22*
G04 #@! TO.P,Q2,2,D*
G04 #@! TO.N,/OUT-*
X183397500Y-88040000D03*
D21*
G04 #@! TO.P,Q2,3,S*
G04 #@! TO.N,GND*
X185677500Y-94340000D03*
G04 #@! TD*
D13*
G04 #@! TO.P,H7,1,1*
G04 #@! TO.N,GND*
X189400000Y-94100000D03*
D14*
X189400000Y-94100000D03*
G04 #@! TD*
D35*
G04 #@! TO.P,L2,1,1*
G04 #@! TO.N,/SW*
X184000000Y-137600000D03*
G04 #@! TO.P,L2,2,2*
G04 #@! TO.N,/VOUT*
X194000000Y-137600000D03*
G04 #@! TD*
D36*
G04 #@! TO.P,D3,1,K*
G04 #@! TO.N,GND*
X192400000Y-122175000D03*
G04 #@! TO.P,D3,2,A*
G04 #@! TO.N,Net-(D3-A)*
X192400000Y-120600000D03*
G04 #@! TD*
D24*
G04 #@! TO.P,R5,1*
G04 #@! TO.N,Net-(D4-A)*
X168387500Y-94300000D03*
G04 #@! TO.P,R5,2*
G04 #@! TO.N,Net-(Q1-G)*
X170212500Y-94300000D03*
G04 #@! TD*
D37*
G04 #@! TO.P,R10,1*
G04 #@! TO.N,/LED3*
X171140000Y-99620000D03*
G04 #@! TO.P,R10,2*
G04 #@! TO.N,Net-(D7-A)*
X168040000Y-99620000D03*
G04 #@! TD*
D38*
G04 #@! TO.P,C2,1*
G04 #@! TO.N,Net-(U2-XTAL1{slash}PB6)*
X190000000Y-107037500D03*
G04 #@! TO.P,C2,2*
G04 #@! TO.N,GND*
X190000000Y-110162500D03*
G04 #@! TD*
D39*
G04 #@! TO.P,C1,1*
G04 #@! TO.N,Net-(U2-XTAL2{slash}PB7)*
X183100000Y-108562500D03*
G04 #@! TO.P,C1,2*
G04 #@! TO.N,GND*
X183100000Y-105437500D03*
G04 #@! TD*
D40*
G04 #@! TO.P,C10,1*
G04 #@! TO.N,/VOUT*
X185275000Y-145100000D03*
G04 #@! TO.P,C10,2*
G04 #@! TO.N,GND*
X183725000Y-145100000D03*
G04 #@! TD*
D41*
G04 #@! TO.P,R13,1*
G04 #@! TO.N,/VOUT*
X179900000Y-131900000D03*
G04 #@! TO.P,R13,2*
G04 #@! TO.N,Net-(R13-Pad2)*
X179900000Y-129900000D03*
G04 #@! TD*
D28*
G04 #@! TO.P,R2,1*
G04 #@! TO.N,+5V*
X184820000Y-121260000D03*
G04 #@! TO.P,R2,2*
G04 #@! TO.N,/RESET*
X182820000Y-121260000D03*
G04 #@! TD*
D17*
G04 #@! TO.P,C4,1*
G04 #@! TO.N,+5V*
X190400000Y-116312500D03*
G04 #@! TO.P,C4,2*
G04 #@! TO.N,GND*
X190400000Y-118387500D03*
G04 #@! TD*
D42*
G04 #@! TO.P,C12,1*
G04 #@! TO.N,+5V*
X178682380Y-125500000D03*
D43*
G04 #@! TO.P,C12,2*
G04 #@! TO.N,GND*
X176182380Y-125500000D03*
G04 #@! TD*
D44*
G04 #@! TO.P,D4,1,K*
G04 #@! TO.N,GND*
X171387500Y-97200000D03*
G04 #@! TO.P,D4,2,A*
G04 #@! TO.N,Net-(D4-A)*
X168412500Y-97200000D03*
G04 #@! TD*
D45*
G04 #@! TO.P,J2,1,Pin_1*
G04 #@! TO.N,/VOUT*
X193200000Y-128900000D03*
D11*
G04 #@! TO.P,J2,2,Pin_2*
G04 #@! TO.N,/VOUT-VI*
X193200000Y-126360000D03*
G04 #@! TD*
D17*
G04 #@! TO.P,C5,1*
G04 #@! TO.N,/AVCC-LC*
X174027500Y-112772500D03*
G04 #@! TO.P,C5,2*
G04 #@! TO.N,GND*
X174027500Y-114847500D03*
G04 #@! TD*
G04 #@! TO.P,C3,1*
G04 #@! TO.N,+5V*
X187650000Y-112015000D03*
G04 #@! TO.P,C3,2*
G04 #@! TO.N,GND*
X187650000Y-114090000D03*
G04 #@! TD*
D20*
G04 #@! TO.P,R8,1*
G04 #@! TO.N,/LED1*
X183700000Y-102550000D03*
G04 #@! TO.P,R8,2*
G04 #@! TO.N,Net-(D5-A)*
X183700000Y-99450000D03*
G04 #@! TD*
D44*
G04 #@! TO.P,D1,1,K*
G04 #@! TO.N,GND*
X167200000Y-130200000D03*
G04 #@! TO.P,D1,2,A*
G04 #@! TO.N,Net-(D1-A)*
X164225000Y-130200000D03*
G04 #@! TD*
D46*
G04 #@! TO.P,Y1,1,1*
G04 #@! TO.N,Net-(U2-XTAL2{slash}PB7)*
X185480000Y-108740000D03*
G04 #@! TO.P,Y1,2,G*
G04 #@! TO.N,GND*
X187680000Y-108740000D03*
G04 #@! TO.P,Y1,3,3*
G04 #@! TO.N,Net-(U2-XTAL1{slash}PB6)*
X187680000Y-107040000D03*
G04 #@! TO.P,Y1,4,G*
G04 #@! TO.N,GND*
X185480000Y-107040000D03*
G04 #@! TD*
D47*
G04 #@! TO.P,D2,1,K*
G04 #@! TO.N,/SW*
X179600000Y-138000000D03*
G04 #@! TO.P,D2,2,A*
G04 #@! TO.N,GND*
X179600000Y-142000000D03*
G04 #@! TD*
D48*
G04 #@! TO.P,D6,1,K*
G04 #@! TO.N,GND*
X177050000Y-102070000D03*
D49*
G04 #@! TO.P,D6,2,A*
G04 #@! TO.N,Net-(D6-A)*
X177050000Y-99530000D03*
G04 #@! TD*
D48*
G04 #@! TO.P,D5,1,K*
G04 #@! TO.N,GND*
X191100000Y-102070000D03*
D49*
G04 #@! TO.P,D5,2,A*
G04 #@! TO.N,Net-(D5-A)*
X191100000Y-99530000D03*
G04 #@! TD*
D48*
G04 #@! TO.P,D7,1,K*
G04 #@! TO.N,GND*
X163000000Y-102070000D03*
D49*
G04 #@! TO.P,D7,2,A*
G04 #@! TO.N,Net-(D7-A)*
X163000000Y-99530000D03*
G04 #@! TD*
D50*
G04 #@! TO.P,BZ1,1,+*
G04 #@! TO.N,Net-(BZ1-+)*
X190500000Y-114000000D03*
D51*
G04 #@! TO.P,BZ1,2,-*
G04 #@! TO.N,GND*
X190500000Y-121600000D03*
G04 #@! TD*
D52*
G04 #@! TO.N,+5V*
X177100000Y-110800000D03*
X178400000Y-112000000D03*
G04 #@! TO.N,/Button*
X184600000Y-119900000D03*
G04 #@! TO.N,GND*
X175700000Y-149500000D03*
X175700000Y-148700000D03*
X178200000Y-149400000D03*
X178200000Y-148600000D03*
X172900000Y-98500000D03*
X183400000Y-95800000D03*
X184400000Y-95800000D03*
X183400000Y-94700000D03*
X184400000Y-94700000D03*
X183400000Y-93600000D03*
X184400000Y-93600000D03*
X174800000Y-95700000D03*
X175800000Y-95700000D03*
X174800000Y-94700000D03*
X175800000Y-94700000D03*
X174800000Y-93700000D03*
X175800000Y-93700000D03*
X188700000Y-113300000D03*
X188000000Y-110300000D03*
X185800000Y-105300000D03*
X184800000Y-105300000D03*
X175300000Y-100800000D03*
X189000000Y-102600000D03*
X189000000Y-101300000D03*
X162500000Y-103900000D03*
X163600000Y-103900000D03*
X166300000Y-93800000D03*
X165300000Y-124300000D03*
X163200000Y-123900000D03*
X190400000Y-119800000D03*
X186500000Y-119300000D03*
X186800000Y-129800000D03*
X186800000Y-128900000D03*
X169500000Y-142450000D03*
X167500000Y-142450000D03*
X165500000Y-142450000D03*
X163500000Y-142450000D03*
X161500000Y-142450000D03*
X169500000Y-140450000D03*
X167500000Y-140450000D03*
X165500000Y-140450000D03*
X163500000Y-140450000D03*
X161500000Y-140450000D03*
X169500000Y-138450000D03*
X167500000Y-138450000D03*
X165500000Y-138450000D03*
X163500000Y-138450000D03*
X161500000Y-138450000D03*
X169500000Y-136450000D03*
X167500000Y-136450000D03*
X165500000Y-136450000D03*
X163500000Y-136450000D03*
X161500000Y-136450000D03*
X169500000Y-134450000D03*
X167500000Y-134450000D03*
X165500000Y-134450000D03*
X163500000Y-134450000D03*
X161500000Y-134450000D03*
G04 #@! TO.N,/OUT-*
X177000000Y-90000000D03*
X174000000Y-89000000D03*
X175000000Y-90000000D03*
X176000000Y-89000000D03*
X173000000Y-90000000D03*
X175000000Y-89000000D03*
X174000000Y-90000000D03*
X176000000Y-90000000D03*
X177000000Y-89000000D03*
X177000000Y-88000000D03*
X176000000Y-88000000D03*
X173000000Y-88000000D03*
X174000000Y-87000000D03*
X174000000Y-86000000D03*
X175000000Y-86000000D03*
X173000000Y-86000000D03*
X174000000Y-88000000D03*
X177000000Y-87000000D03*
X175000000Y-87000000D03*
X177000000Y-86000000D03*
X173000000Y-89000000D03*
X173000000Y-87000000D03*
X175000000Y-88000000D03*
X176000000Y-87000000D03*
X176000000Y-86000000D03*
X184300000Y-85900000D03*
X184300000Y-86900000D03*
X183300000Y-87900000D03*
X181300000Y-86900000D03*
X181300000Y-88900000D03*
X185300000Y-85900000D03*
X183300000Y-86900000D03*
X185300000Y-86900000D03*
X182300000Y-87900000D03*
X181300000Y-85900000D03*
X183300000Y-85900000D03*
X182300000Y-85900000D03*
X182300000Y-86900000D03*
X181300000Y-87900000D03*
X184300000Y-87900000D03*
X185300000Y-87900000D03*
X185300000Y-88900000D03*
X184300000Y-89900000D03*
X182300000Y-89900000D03*
X183300000Y-88900000D03*
X181300000Y-89900000D03*
X184300000Y-88900000D03*
X183300000Y-89900000D03*
X182300000Y-88900000D03*
X185300000Y-89900000D03*
G04 #@! TO.N,GND*
X179200000Y-149400000D03*
X179200000Y-148600000D03*
X174800000Y-148700000D03*
X174800000Y-149500000D03*
X180200000Y-145500000D03*
X180200000Y-144200000D03*
X161900000Y-122800000D03*
X172200000Y-131400000D03*
X173500000Y-130000000D03*
X168900000Y-130700000D03*
X168900000Y-129800000D03*
X175900000Y-127700000D03*
X174400000Y-126400000D03*
X174400000Y-125400000D03*
X161500000Y-116700000D03*
X161500000Y-111600000D03*
X171800000Y-117800000D03*
X172600000Y-115100000D03*
X178400000Y-114600000D03*
G04 #@! TO.N,/THERM*
X180400000Y-115500000D03*
X192400000Y-115600000D03*
G04 #@! TO.N,GND*
X171800000Y-120200000D03*
G04 #@! TD*
D53*
G04 #@! TO.N,/MOSI*
X178059999Y-108830000D02*
X178960000Y-109730001D01*
X178960000Y-109730001D02*
X178960000Y-110467500D01*
X165270000Y-108830000D02*
X178059999Y-108830000D01*
X164400000Y-119180000D02*
X164400000Y-109700000D01*
X165700000Y-120480000D02*
X164400000Y-119180000D01*
X164400000Y-109700000D02*
X165270000Y-108830000D01*
G04 #@! TO.N,/SCK*
X166790000Y-111770000D02*
X165700000Y-112860000D01*
X176737500Y-111770000D02*
X166790000Y-111770000D01*
X176797500Y-111830000D02*
X176737500Y-111770000D01*
D54*
G04 #@! TO.N,+5V*
X165480000Y-122800000D02*
X177600000Y-122800000D01*
X163160000Y-120480000D02*
X165480000Y-122800000D01*
G04 #@! TO.N,/RESET*
X181360000Y-120300000D02*
X181360000Y-119800000D01*
X180320000Y-121340000D02*
X181360000Y-120300000D01*
X165700000Y-115400000D02*
X171640000Y-121340000D01*
X171640000Y-121340000D02*
X180320000Y-121340000D01*
D53*
G04 #@! TO.N,/MISO*
X166230000Y-109790000D02*
X165700000Y-110320000D01*
X177482500Y-109790000D02*
X166230000Y-109790000D01*
X178160000Y-110467500D02*
X177482500Y-109790000D01*
D54*
G04 #@! TO.N,+5V*
X177100000Y-110800000D02*
X177062500Y-110837500D01*
X177062500Y-110837500D02*
X170640000Y-110837500D01*
X181600000Y-112000000D02*
X178400000Y-112000000D01*
X183500000Y-113900000D02*
X181600000Y-112000000D01*
X183930000Y-115030000D02*
X185122500Y-115030000D01*
X183500000Y-113900000D02*
X183500000Y-114600000D01*
X183500000Y-114600000D02*
X183930000Y-115030000D01*
X183970000Y-113430000D02*
X183500000Y-113900000D01*
X185122500Y-113430000D02*
X183970000Y-113430000D01*
G04 #@! TO.N,/AVCC-LC*
X173800000Y-113000000D02*
X174027500Y-112772500D01*
X170677500Y-113000000D02*
X173800000Y-113000000D01*
X170640000Y-112962500D02*
X170677500Y-113000000D01*
G04 #@! TO.N,/Button*
X183760000Y-119060000D02*
X183760000Y-118792500D01*
X184600000Y-119900000D02*
X183760000Y-119060000D01*
D53*
G04 #@! TO.N,Net-(D3-A)*
X192400000Y-120600000D02*
X192100000Y-120600000D01*
X192425000Y-120575000D02*
X192400000Y-120600000D01*
X194800000Y-120575000D02*
X192425000Y-120575000D01*
D54*
G04 #@! TO.N,Net-(U1-FB)*
X177450000Y-136750000D02*
X175150000Y-136750000D01*
X178100000Y-136100000D02*
X177450000Y-136750000D01*
X178100000Y-132200000D02*
X178100000Y-136100000D01*
X178000000Y-132100000D02*
X178100000Y-132200000D01*
D55*
X177700000Y-131900000D02*
X177700000Y-132100000D01*
X177000000Y-131900000D02*
X177700000Y-131900000D01*
X176500000Y-131400000D02*
X177000000Y-131900000D01*
X175225000Y-131400000D02*
X176500000Y-131400000D01*
G04 #@! TO.N,/VOUT*
X193100000Y-133800000D02*
X193100000Y-137300000D01*
X180100000Y-132100000D02*
X191400000Y-132100000D01*
X179900000Y-131900000D02*
X180100000Y-132100000D01*
X191400000Y-132100000D02*
X193100000Y-133800000D01*
G04 #@! TO.N,Net-(R13-Pad2)*
X177900000Y-129900000D02*
X177700000Y-130100000D01*
X179700000Y-129900000D02*
X177900000Y-129900000D01*
X179900000Y-130100000D02*
X179700000Y-129900000D01*
D53*
G04 #@! TO.N,Net-(BZ1-+)*
X193100000Y-111400000D02*
X190500000Y-114000000D01*
X193100000Y-99100000D02*
X193100000Y-111400000D01*
X191700000Y-97700000D02*
X193100000Y-99100000D01*
X173600000Y-99800000D02*
X175700000Y-97700000D01*
X173600000Y-102660000D02*
X173600000Y-99800000D01*
X175700000Y-97700000D02*
X191700000Y-97700000D01*
D54*
G04 #@! TO.N,GND*
X166550000Y-92400000D02*
X165450000Y-93500000D01*
X168387500Y-92400000D02*
X166600000Y-92400000D01*
G04 #@! TO.N,+5V*
X166800000Y-125212500D02*
X166800000Y-127600000D01*
G04 #@! TO.N,GND*
X177970000Y-115030000D02*
X178400000Y-114600000D01*
X176797500Y-115030000D02*
X177970000Y-115030000D01*
G04 #@! TO.N,+5V*
X166890000Y-127690000D02*
X166800000Y-127600000D01*
X169056250Y-122843750D02*
X166800000Y-125100000D01*
D56*
X177700000Y-122900000D02*
X177600000Y-122800000D01*
X178700000Y-125700000D02*
X178700000Y-122900000D01*
D54*
G04 #@! TO.N,Net-(U2-XTAL2{slash}PB7)*
X185480000Y-108740000D02*
X185302500Y-108562500D01*
D53*
X185480000Y-111472500D02*
X185480000Y-108740000D01*
X185122500Y-111830000D02*
X185480000Y-111472500D01*
D54*
X185302500Y-108562500D02*
X183100000Y-108562500D01*
G04 #@! TO.N,GND*
X185122500Y-115830000D02*
X185896076Y-115830000D01*
X186870000Y-118380000D02*
X187610000Y-118380000D01*
X186434000Y-117944000D02*
X186870000Y-118380000D01*
X190932500Y-118380000D02*
X190940000Y-118387500D01*
X187510000Y-114230000D02*
X187650000Y-114090000D01*
X186434000Y-116367924D02*
X186434000Y-117944000D01*
X185122500Y-114230000D02*
X187510000Y-114230000D01*
X163200000Y-110320000D02*
X163200000Y-117940000D01*
X190392500Y-118380000D02*
X190400000Y-118387500D01*
X185896076Y-115830000D02*
X186434000Y-116367924D01*
G04 #@! TO.N,Net-(U2-XTAL1{slash}PB6)*
X187682500Y-107037500D02*
X187680000Y-107040000D01*
D53*
X185859999Y-112630000D02*
X185122500Y-112630000D01*
D54*
X190000000Y-107037500D02*
X187682500Y-107037500D01*
D53*
X187680000Y-107040000D02*
X186531000Y-108189000D01*
X186531000Y-108189000D02*
X186531000Y-111958999D01*
X186531000Y-111958999D02*
X185859999Y-112630000D01*
G04 #@! TO.N,+5V*
X185122500Y-113430000D02*
X186220000Y-113430000D01*
D54*
X186500000Y-122800000D02*
X189000000Y-120300000D01*
D53*
X187635000Y-112015000D02*
X187650000Y-112015000D01*
D54*
X189000000Y-116305000D02*
X190392500Y-116305000D01*
D53*
X185122500Y-115030000D02*
X186335000Y-115030000D01*
D54*
X187610000Y-116305000D02*
X189000000Y-116305000D01*
X192187500Y-110812500D02*
X192187500Y-109212500D01*
X187650000Y-112015000D02*
X190985000Y-112015000D01*
X186640000Y-121260000D02*
X189000000Y-118900000D01*
D53*
X186220000Y-113430000D02*
X187635000Y-112015000D01*
D54*
X190392500Y-116305000D02*
X190400000Y-116312500D01*
D53*
X186335000Y-115030000D02*
X187610000Y-116305000D01*
D54*
X189000000Y-120300000D02*
X189000000Y-118900000D01*
X190985000Y-112015000D02*
X192187500Y-110812500D01*
X184820000Y-121260000D02*
X186640000Y-121260000D01*
X177600000Y-122800000D02*
X186500000Y-122800000D01*
X189000000Y-118900000D02*
X189000000Y-116305000D01*
G04 #@! TO.N,Net-(D1-A)*
X164225000Y-128175000D02*
X164225000Y-130200000D01*
X164800000Y-127600000D02*
X164225000Y-128175000D01*
G04 #@! TO.N,/LED1*
X181360000Y-104890000D02*
X183700000Y-102550000D01*
X181360000Y-110467500D02*
X181360000Y-104890000D01*
G04 #@! TO.N,/LED2*
X180560000Y-102610000D02*
X180500000Y-102550000D01*
X180560000Y-110467500D02*
X180560000Y-102610000D01*
G04 #@! TO.N,/LED3*
X179760000Y-106290000D02*
X177750000Y-104280000D01*
X171140000Y-102590000D02*
X171140000Y-99620000D01*
X172830000Y-104280000D02*
X171140000Y-102590000D01*
X177750000Y-104280000D02*
X172830000Y-104280000D01*
X179760000Y-110467500D02*
X179760000Y-106290000D01*
G04 #@! TO.N,/RESET*
X181360000Y-119800000D02*
X182820000Y-121260000D01*
X181360000Y-118792500D02*
X181360000Y-119800000D01*
D53*
G04 #@! TO.N,Net-(U2-AREF)*
X175400000Y-114890001D02*
X175400000Y-116040000D01*
X175400000Y-116040000D02*
X174667500Y-116772500D01*
X174667500Y-116772500D02*
X174007500Y-116772500D01*
X176797500Y-114230000D02*
X176060001Y-114230000D01*
X176060001Y-114230000D02*
X175400000Y-114890001D01*
D54*
G04 #@! TO.N,/MOSI*
X178971000Y-110456500D02*
X178971000Y-107031818D01*
X178971000Y-107031818D02*
X177699182Y-105760000D01*
X177699182Y-105760000D02*
X173600000Y-105760000D01*
X178960000Y-110467500D02*
X178971000Y-110456500D01*
D55*
G04 #@! TO.N,/THERM*
X195100000Y-108125000D02*
X195100000Y-94500000D01*
D54*
X179270000Y-116630000D02*
X176797500Y-116630000D01*
X194012500Y-113987500D02*
X192400000Y-115600000D01*
D55*
X194012500Y-109212500D02*
X195100000Y-108125000D01*
D54*
X194012500Y-109212500D02*
X194012500Y-113987500D01*
D55*
X195100000Y-94500000D02*
X194900000Y-94300000D01*
D54*
X180400000Y-115500000D02*
X179270000Y-116630000D01*
D53*
G04 #@! TO.N,/VOUT*
X194800000Y-122225000D02*
X194800000Y-128200000D01*
X194800000Y-128200000D02*
X194100000Y-128900000D01*
X194100000Y-128900000D02*
X193200000Y-128900000D01*
D55*
G04 #@! TO.N,/SW*
X177450000Y-140150000D02*
X175150000Y-140150000D01*
X179600000Y-138000000D02*
X177450000Y-140150000D01*
D54*
G04 #@! TO.N,Net-(D4-A)*
X168387500Y-97175000D02*
X168412500Y-97200000D01*
X168387500Y-94300000D02*
X168387500Y-97175000D01*
G04 #@! TO.N,Net-(Q1-G)*
X169800000Y-96200000D02*
X171735000Y-94265000D01*
X172435000Y-94265000D02*
X174400000Y-92300000D01*
X171987500Y-107987500D02*
X169800000Y-105800000D01*
X170212500Y-94300000D02*
X170212500Y-92400000D01*
X172420000Y-94265000D02*
X172435000Y-94265000D01*
X170247500Y-94265000D02*
X170212500Y-94300000D01*
X173500000Y-107987500D02*
X171987500Y-107987500D01*
X171735000Y-94265000D02*
X172420000Y-94265000D01*
X172420000Y-94265000D02*
X170247500Y-94265000D01*
X179100000Y-92300000D02*
X179100000Y-92322500D01*
X169800000Y-105800000D02*
X169800000Y-96200000D01*
X179100000Y-92322500D02*
X181117500Y-94340000D01*
X174400000Y-92300000D02*
X179100000Y-92300000D01*
G04 #@! TO.N,Net-(D5-A)*
X183700000Y-99450000D02*
X191020000Y-99450000D01*
X191020000Y-99450000D02*
X191100000Y-99530000D01*
G04 #@! TO.N,Net-(D6-A)*
X177130000Y-99450000D02*
X177050000Y-99530000D01*
X180500000Y-99450000D02*
X177130000Y-99450000D01*
D55*
G04 #@! TO.N,Net-(D7-A)*
X163090000Y-99620000D02*
X163000000Y-99530000D01*
X168040000Y-99620000D02*
X163090000Y-99620000D01*
D53*
G04 #@! TO.N,/AVCC-LC*
X174170000Y-112630000D02*
X174027500Y-112772500D01*
X176797500Y-112630000D02*
X174170000Y-112630000D01*
D54*
G04 #@! TO.N,Net-(D4-A)*
X167987500Y-96775000D02*
X168412500Y-97200000D01*
D55*
G04 #@! TO.N,/THERM*
X194900000Y-94300000D02*
X194900000Y-94100000D01*
X194900000Y-94100000D02*
X194300000Y-93500000D01*
D53*
G04 #@! TO.N,+5V*
X187462500Y-116452500D02*
X187610000Y-116305000D01*
D54*
X166800000Y-125100000D02*
X166800000Y-125212500D01*
G04 #@! TD*
G04 #@! TA.AperFunction,Conductor*
G04 #@! TO.N,/OUT-*
G36*
X193322640Y-84819685D02*
G01*
X193334304Y-84828178D01*
X196054709Y-87062796D01*
X196094016Y-87120558D01*
X196100000Y-87158613D01*
X196100000Y-91176000D01*
X196080315Y-91243039D01*
X196027511Y-91288794D01*
X195976000Y-91300000D01*
X168724000Y-91300000D01*
X168656961Y-91280315D01*
X168611206Y-91227511D01*
X168600000Y-91176000D01*
X168600000Y-84924000D01*
X168619685Y-84856961D01*
X168672489Y-84811206D01*
X168724000Y-84800000D01*
X193255601Y-84800000D01*
X193322640Y-84819685D01*
G37*
G04 #@! TD.AperFunction*
G04 #@! TD*
G04 #@! TA.AperFunction,Conductor*
G04 #@! TO.N,/VOUT-VI*
G36*
X193943039Y-123719685D02*
G01*
X193988794Y-123772489D01*
X194000000Y-123824000D01*
X194000000Y-127425500D01*
X193980315Y-127492539D01*
X193927511Y-127538294D01*
X193876000Y-127549500D01*
X192302129Y-127549500D01*
X192302123Y-127549501D01*
X192242516Y-127555908D01*
X192107671Y-127606202D01*
X192101025Y-127609832D01*
X192041597Y-127625000D01*
X190529500Y-127625000D01*
X190462461Y-127605315D01*
X190416706Y-127552511D01*
X190405500Y-127501000D01*
X190405500Y-126224010D01*
X190405500Y-126224000D01*
X190400710Y-126179446D01*
X190400000Y-126166193D01*
X190400000Y-125400000D01*
X187324000Y-125400000D01*
X187256961Y-125380315D01*
X187211206Y-125327511D01*
X187200000Y-125276000D01*
X187200000Y-123824000D01*
X187219685Y-123756961D01*
X187272489Y-123711206D01*
X187324000Y-123700000D01*
X193876000Y-123700000D01*
X193943039Y-123719685D01*
G37*
G04 #@! TD.AperFunction*
G04 #@! TD*
G04 #@! TA.AperFunction,Conductor*
G04 #@! TO.N,/IN+*
G36*
X167643039Y-87419685D02*
G01*
X167688794Y-87472489D01*
X167700000Y-87524000D01*
X167700000Y-89848638D01*
X167680315Y-89915677D01*
X167663681Y-89936319D01*
X160500000Y-97099999D01*
X160500000Y-97100000D01*
X160500000Y-144800000D01*
X170900000Y-144800000D01*
X172400000Y-143300000D01*
X172400000Y-142898888D01*
X172401262Y-142881241D01*
X172405500Y-142851766D01*
X172405500Y-141553494D01*
X172425185Y-141486455D01*
X172450114Y-141458238D01*
X172768897Y-141192585D01*
X172832995Y-141164792D01*
X172887273Y-141170140D01*
X172947203Y-141189999D01*
X173049991Y-141200500D01*
X177250008Y-141200499D01*
X177352797Y-141189999D01*
X177519334Y-141134814D01*
X177610906Y-141078332D01*
X177678295Y-141059893D01*
X177744959Y-141080815D01*
X177789729Y-141134457D01*
X177800000Y-141183872D01*
X177800000Y-146074135D01*
X177780315Y-146141174D01*
X177727511Y-146186929D01*
X177674149Y-146198121D01*
X167400000Y-146044762D01*
X167400000Y-153776000D01*
X167380315Y-153843039D01*
X167327511Y-153888794D01*
X167276000Y-153900000D01*
X159951362Y-153900000D01*
X159884323Y-153880315D01*
X159863681Y-153863681D01*
X157036319Y-151036319D01*
X157002834Y-150974996D01*
X157000000Y-150948638D01*
X157000000Y-94851362D01*
X157019685Y-94784323D01*
X157036319Y-94763681D01*
X164363681Y-87436319D01*
X164425004Y-87402834D01*
X164451362Y-87400000D01*
X167576000Y-87400000D01*
X167643039Y-87419685D01*
G37*
G04 #@! TD.AperFunction*
G04 #@! TD*
G04 #@! TA.AperFunction,Conductor*
G04 #@! TO.N,GND*
G36*
X172299999Y-134199999D02*
G01*
X172300000Y-134200000D01*
X177225500Y-134200000D01*
X177292539Y-134219685D01*
X177338294Y-134272489D01*
X177349500Y-134324000D01*
X177349500Y-135476000D01*
X177329815Y-135543039D01*
X177277011Y-135588794D01*
X177225500Y-135600000D01*
X172299999Y-135600000D01*
X171800000Y-136099999D01*
X171800000Y-136100000D01*
X171800000Y-137000000D01*
X172500000Y-137600000D01*
X172537270Y-137600000D01*
X172604309Y-137619685D01*
X172624951Y-137636319D01*
X172631344Y-137642712D01*
X172780666Y-137734814D01*
X172947203Y-137789999D01*
X173049991Y-137800500D01*
X177250008Y-137800499D01*
X177250018Y-137800498D01*
X177359533Y-137789311D01*
X177359737Y-137791316D01*
X177419707Y-137795799D01*
X177475505Y-137837850D01*
X177499712Y-137903392D01*
X177500000Y-137911841D01*
X177500000Y-138845848D01*
X177491355Y-138875288D01*
X177484832Y-138905275D01*
X177481077Y-138910290D01*
X177480315Y-138912887D01*
X177463684Y-138933525D01*
X177341046Y-139056164D01*
X177334028Y-139063182D01*
X177272705Y-139096666D01*
X177246347Y-139099500D01*
X173049998Y-139099500D01*
X173049981Y-139099501D01*
X172947203Y-139110000D01*
X172947200Y-139110001D01*
X172780668Y-139165185D01*
X172780659Y-139165189D01*
X172754153Y-139181539D01*
X172689057Y-139200000D01*
X172400000Y-139200000D01*
X171900000Y-139800000D01*
X171900000Y-142851766D01*
X171880315Y-142918805D01*
X171867407Y-142935556D01*
X170836859Y-144059790D01*
X170777048Y-144095907D01*
X170745452Y-144100000D01*
X161224000Y-144100000D01*
X161156961Y-144080315D01*
X161111206Y-144027511D01*
X161100000Y-143976000D01*
X161100000Y-132800000D01*
X171199999Y-132800000D01*
X172299999Y-134199999D01*
G37*
G04 #@! TD.AperFunction*
G04 #@! TD*
G04 #@! TA.AperFunction,Conductor*
G04 #@! TO.N,GND*
G36*
X189840596Y-128421070D02*
G01*
X189887566Y-128472796D01*
X189900000Y-128526916D01*
X189900000Y-130876000D01*
X189880315Y-130943039D01*
X189827511Y-130988794D01*
X189776000Y-131000000D01*
X182724000Y-131000000D01*
X182656961Y-130980315D01*
X182611206Y-130927511D01*
X182600000Y-130876000D01*
X182600000Y-130424000D01*
X182619685Y-130356961D01*
X182672489Y-130311206D01*
X182724000Y-130300000D01*
X183700000Y-130300000D01*
X185565340Y-128532835D01*
X185627542Y-128501021D01*
X185647722Y-128498890D01*
X189773119Y-128402950D01*
X189840596Y-128421070D01*
G37*
G04 #@! TD.AperFunction*
G04 #@! TD*
G04 #@! TA.AperFunction,Conductor*
G04 #@! TO.N,+5V*
G36*
X184111223Y-122619685D02*
G01*
X184137007Y-122641782D01*
X187200000Y-126100000D01*
X189776000Y-126100000D01*
X189843039Y-126119685D01*
X189888794Y-126172489D01*
X189900000Y-126224000D01*
X189900000Y-127676000D01*
X189880315Y-127743039D01*
X189827511Y-127788794D01*
X189776000Y-127800000D01*
X185299999Y-127800000D01*
X183636319Y-129463681D01*
X183574996Y-129497166D01*
X183548638Y-129500000D01*
X181224000Y-129500000D01*
X181156961Y-129480315D01*
X181111206Y-129427511D01*
X181100000Y-129376000D01*
X181100000Y-128100000D01*
X177824000Y-128100000D01*
X177756961Y-128080315D01*
X177711206Y-128027511D01*
X177700000Y-127976000D01*
X177700000Y-122724000D01*
X177719685Y-122656961D01*
X177772489Y-122611206D01*
X177824000Y-122600000D01*
X184044184Y-122600000D01*
X184111223Y-122619685D01*
G37*
G04 #@! TD.AperFunction*
G04 #@! TD*
G04 #@! TA.AperFunction,Conductor*
G04 #@! TO.N,GND*
G36*
X180643039Y-140319685D02*
G01*
X180688794Y-140372489D01*
X180700000Y-140424000D01*
X180700000Y-144800000D01*
X183676000Y-144800000D01*
X183743039Y-144819685D01*
X183788794Y-144872489D01*
X183800000Y-144924000D01*
X183800000Y-153677112D01*
X183780315Y-153744151D01*
X183727511Y-153789906D01*
X183677117Y-153801107D01*
X169727210Y-153926784D01*
X169659996Y-153907704D01*
X169613767Y-153855315D01*
X169602110Y-153800732D01*
X169711114Y-147230544D01*
X169731908Y-147163840D01*
X169785464Y-147118968D01*
X169833703Y-147108609D01*
X178600000Y-147010120D01*
X178600000Y-140424000D01*
X178619685Y-140356961D01*
X178672489Y-140311206D01*
X178724000Y-140300000D01*
X180576000Y-140300000D01*
X180643039Y-140319685D01*
G37*
G04 #@! TD.AperFunction*
G04 #@! TD*
G04 #@! TA.AperFunction,Conductor*
G04 #@! TO.N,/VOUT*
G36*
X196039274Y-128321865D02*
G01*
X196086884Y-128373003D01*
X196100000Y-128428507D01*
X196100000Y-140798191D01*
X196099946Y-140801836D01*
X195971739Y-145160874D01*
X195950092Y-145227306D01*
X195926485Y-145253060D01*
X190500000Y-149709028D01*
X190500000Y-153497237D01*
X190480315Y-153564276D01*
X190427511Y-153610031D01*
X190377851Y-153621223D01*
X185225851Y-153698121D01*
X185158525Y-153679439D01*
X185111987Y-153627324D01*
X185100000Y-153574135D01*
X185100000Y-144824000D01*
X185119685Y-144756961D01*
X185172489Y-144711206D01*
X185224000Y-144700000D01*
X190398765Y-144700000D01*
X190398766Y-144700000D01*
X190315569Y-131222173D01*
X190326771Y-131169904D01*
X190365338Y-131085459D01*
X190385023Y-131018420D01*
X190385024Y-131018416D01*
X190405500Y-130876000D01*
X190405500Y-128623024D01*
X190425185Y-128555985D01*
X190477989Y-128510230D01*
X190525068Y-128499104D01*
X195971576Y-128304586D01*
X196039274Y-128321865D01*
G37*
G04 #@! TD.AperFunction*
G04 #@! TD*
G04 #@! TA.AperFunction,Conductor*
G04 #@! TO.N,/SW*
G36*
X187576194Y-133398624D02*
G01*
X187643009Y-133419052D01*
X187688175Y-133472361D01*
X187698809Y-133523808D01*
X187601181Y-143677192D01*
X187580853Y-143744039D01*
X187527612Y-143789284D01*
X187477187Y-143800000D01*
X181624000Y-143800000D01*
X181556961Y-143780315D01*
X181511206Y-143727511D01*
X181500000Y-143676000D01*
X181500000Y-139700000D01*
X178824000Y-139700000D01*
X178756961Y-139680315D01*
X178711206Y-139627511D01*
X178700000Y-139576000D01*
X178700000Y-136590513D01*
X178705328Y-136572367D01*
X178705666Y-136553459D01*
X178719165Y-136525243D01*
X178719685Y-136523474D01*
X178720851Y-136521692D01*
X178732186Y-136504729D01*
X178765084Y-136455495D01*
X178821658Y-136318913D01*
X178850500Y-136173918D01*
X178850500Y-133427057D01*
X178870185Y-133360018D01*
X178922989Y-133314263D01*
X178975876Y-133303065D01*
X187576194Y-133398624D01*
G37*
G04 #@! TD.AperFunction*
G04 #@! TD*
G04 #@! TA.AperFunction,Conductor*
G04 #@! TO.N,GND*
G36*
X169167540Y-92419685D02*
G01*
X169213295Y-92472489D01*
X169224501Y-92524000D01*
X169224501Y-92686686D01*
X169234825Y-92787752D01*
X169246270Y-92822289D01*
X169289092Y-92951516D01*
X169378004Y-93095666D01*
X169379661Y-93098351D01*
X169425681Y-93144371D01*
X169440384Y-93171298D01*
X169456977Y-93197117D01*
X169457868Y-93203317D01*
X169459166Y-93205694D01*
X169462000Y-93232052D01*
X169462000Y-93467948D01*
X169442315Y-93534987D01*
X169425681Y-93555629D01*
X169387681Y-93593629D01*
X169326358Y-93627114D01*
X169256666Y-93622130D01*
X169212319Y-93593629D01*
X169098351Y-93479661D01*
X169098350Y-93479660D01*
X168982409Y-93408147D01*
X168951518Y-93389093D01*
X168951513Y-93389091D01*
X168878784Y-93364991D01*
X168787753Y-93334826D01*
X168787751Y-93334825D01*
X168686678Y-93324500D01*
X168088330Y-93324500D01*
X168088312Y-93324501D01*
X167987247Y-93334825D01*
X167823484Y-93389092D01*
X167823481Y-93389093D01*
X167676648Y-93479661D01*
X167554661Y-93601648D01*
X167464093Y-93748481D01*
X167464092Y-93748484D01*
X167409826Y-93912247D01*
X167409826Y-93912248D01*
X167409825Y-93912248D01*
X167399500Y-94013315D01*
X167399500Y-94586669D01*
X167399501Y-94586687D01*
X167409825Y-94687752D01*
X167464092Y-94851515D01*
X167464093Y-94851518D01*
X167554661Y-94998351D01*
X167600681Y-95044371D01*
X167634166Y-95105694D01*
X167637000Y-95132052D01*
X167637000Y-95817072D01*
X167617315Y-95884111D01*
X167578098Y-95922610D01*
X167481345Y-95982288D01*
X167357289Y-96106344D01*
X167357286Y-96106348D01*
X167265187Y-96255662D01*
X167265186Y-96255664D01*
X167210001Y-96422203D01*
X167210000Y-96422204D01*
X167199500Y-96524984D01*
X167199500Y-97875015D01*
X167210000Y-97977795D01*
X167210001Y-97977797D01*
X167265186Y-98144334D01*
X167289484Y-98183727D01*
X167307925Y-98251118D01*
X167287003Y-98317782D01*
X167249043Y-98354362D01*
X167171347Y-98402285D01*
X167171343Y-98402288D01*
X167047289Y-98526342D01*
X166955185Y-98675667D01*
X166952256Y-98684507D01*
X166912482Y-98741951D01*
X166847965Y-98768772D01*
X166834551Y-98769500D01*
X164241759Y-98769500D01*
X164174720Y-98749815D01*
X164141442Y-98718387D01*
X164068242Y-98617635D01*
X163912365Y-98461758D01*
X163912363Y-98461756D01*
X163912358Y-98461752D01*
X163734025Y-98332187D01*
X163734024Y-98332186D01*
X163734022Y-98332185D01*
X163664882Y-98296956D01*
X163537606Y-98232104D01*
X163537603Y-98232103D01*
X163327952Y-98163985D01*
X163203880Y-98144334D01*
X163110222Y-98129500D01*
X162889778Y-98129500D01*
X162817201Y-98140995D01*
X162672047Y-98163985D01*
X162462396Y-98232103D01*
X162462393Y-98232104D01*
X162265974Y-98332187D01*
X162087641Y-98461752D01*
X162087636Y-98461756D01*
X161931756Y-98617636D01*
X161931752Y-98617641D01*
X161802187Y-98795974D01*
X161702104Y-98992393D01*
X161702103Y-98992396D01*
X161633985Y-99202047D01*
X161599500Y-99419778D01*
X161599500Y-99640221D01*
X161633985Y-99857952D01*
X161702103Y-100067603D01*
X161702104Y-100067606D01*
X161769819Y-100200500D01*
X161802184Y-100264021D01*
X161802187Y-100264025D01*
X161931752Y-100442358D01*
X161931756Y-100442363D01*
X162087636Y-100598243D01*
X162087641Y-100598247D01*
X162209027Y-100686438D01*
X162265978Y-100727815D01*
X162394375Y-100793237D01*
X162462393Y-100827895D01*
X162462396Y-100827896D01*
X162527454Y-100849034D01*
X162672049Y-100896015D01*
X162889778Y-100930500D01*
X162889779Y-100930500D01*
X163110221Y-100930500D01*
X163110222Y-100930500D01*
X163327951Y-100896015D01*
X163537606Y-100827895D01*
X163734022Y-100727815D01*
X163912365Y-100598242D01*
X164003788Y-100506819D01*
X164065111Y-100473334D01*
X164091469Y-100470500D01*
X166834551Y-100470500D01*
X166901590Y-100490185D01*
X166947345Y-100542989D01*
X166952256Y-100555493D01*
X166955186Y-100564334D01*
X167047288Y-100713656D01*
X167171344Y-100837712D01*
X167320666Y-100929814D01*
X167487203Y-100984999D01*
X167589991Y-100995500D01*
X168490008Y-100995499D01*
X168490016Y-100995498D01*
X168490019Y-100995498D01*
X168546302Y-100989748D01*
X168592797Y-100984999D01*
X168759334Y-100929814D01*
X168860404Y-100867473D01*
X168927796Y-100849034D01*
X168994459Y-100869957D01*
X169039229Y-100923599D01*
X169049500Y-100973013D01*
X169049500Y-105873918D01*
X169049500Y-105873920D01*
X169049499Y-105873920D01*
X169078340Y-106018907D01*
X169078343Y-106018917D01*
X169134914Y-106155492D01*
X169167812Y-106204727D01*
X169167813Y-106204730D01*
X169217046Y-106278414D01*
X169217052Y-106278421D01*
X170906452Y-107967819D01*
X170939937Y-108029142D01*
X170934953Y-108098833D01*
X170893081Y-108154767D01*
X170827617Y-108179184D01*
X170818771Y-108179500D01*
X165205929Y-108179500D01*
X165080261Y-108204497D01*
X165080255Y-108204499D01*
X165001302Y-108237203D01*
X165001301Y-108237203D01*
X164961876Y-108253532D01*
X164855326Y-108324726D01*
X163894724Y-109285328D01*
X163846201Y-109357948D01*
X163846202Y-109357949D01*
X163823534Y-109391874D01*
X163774499Y-109510255D01*
X163774497Y-109510261D01*
X163749500Y-109635928D01*
X163749500Y-119080869D01*
X163729815Y-119147908D01*
X163677011Y-119193663D01*
X163607853Y-119203607D01*
X163587182Y-119198800D01*
X163476240Y-119162753D01*
X163314957Y-119137208D01*
X163266287Y-119129500D01*
X163053713Y-119129500D01*
X163005042Y-119137208D01*
X162843760Y-119162753D01*
X162641585Y-119228444D01*
X162452179Y-119324951D01*
X162280213Y-119449890D01*
X162129890Y-119600213D01*
X162004951Y-119772179D01*
X161908444Y-119961585D01*
X161842753Y-120163760D01*
X161831499Y-120234815D01*
X161809500Y-120373713D01*
X161809500Y-120586287D01*
X161842754Y-120796243D01*
X161905602Y-120989669D01*
X161908444Y-120998414D01*
X162004951Y-121187820D01*
X162129890Y-121359786D01*
X162280213Y-121510109D01*
X162452179Y-121635048D01*
X162452181Y-121635049D01*
X162452184Y-121635051D01*
X162641588Y-121731557D01*
X162843757Y-121797246D01*
X163053713Y-121830500D01*
X163053714Y-121830500D01*
X163266286Y-121830500D01*
X163266287Y-121830500D01*
X163361728Y-121815383D01*
X163431021Y-121824337D01*
X163468807Y-121850175D01*
X164897048Y-123278415D01*
X164897049Y-123278416D01*
X165001584Y-123382951D01*
X165001585Y-123382952D01*
X165124498Y-123465080D01*
X165124511Y-123465087D01*
X165204838Y-123498359D01*
X165261087Y-123521658D01*
X165261091Y-123521658D01*
X165261092Y-123521659D01*
X165406079Y-123550500D01*
X165406082Y-123550500D01*
X166988770Y-123550500D01*
X167055809Y-123570185D01*
X167101564Y-123622989D01*
X167111508Y-123692147D01*
X167082483Y-123755703D01*
X167076451Y-123762181D01*
X166217052Y-124621578D01*
X166217049Y-124621581D01*
X166187309Y-124666090D01*
X166187310Y-124666091D01*
X166134914Y-124744508D01*
X166078343Y-124881082D01*
X166078340Y-124881092D01*
X166049500Y-125026079D01*
X166049500Y-126446042D01*
X166029815Y-126513081D01*
X166010144Y-126536659D01*
X166001114Y-126545093D01*
X165981344Y-126557288D01*
X165886176Y-126652455D01*
X165884644Y-126653887D01*
X165855226Y-126668672D01*
X165826358Y-126684436D01*
X165824174Y-126684279D01*
X165822216Y-126685264D01*
X165789492Y-126681799D01*
X165756666Y-126679452D01*
X165754565Y-126678101D01*
X165752734Y-126677908D01*
X165746608Y-126672988D01*
X165712319Y-126650951D01*
X165618657Y-126557289D01*
X165618656Y-126557288D01*
X165469334Y-126465186D01*
X165302797Y-126410001D01*
X165302795Y-126410000D01*
X165200010Y-126399500D01*
X164399998Y-126399500D01*
X164399980Y-126399501D01*
X164297203Y-126410000D01*
X164297200Y-126410001D01*
X164130668Y-126465185D01*
X164130663Y-126465187D01*
X163981342Y-126557289D01*
X163857289Y-126681342D01*
X163765187Y-126830663D01*
X163765185Y-126830668D01*
X163737349Y-126914670D01*
X163710001Y-126997203D01*
X163710001Y-126997204D01*
X163710000Y-126997204D01*
X163699500Y-127099983D01*
X163699500Y-127587769D01*
X163693135Y-127609444D01*
X163691356Y-127631965D01*
X163682516Y-127645607D01*
X163679815Y-127654808D01*
X163674212Y-127662815D01*
X163669123Y-127669507D01*
X163642048Y-127696584D01*
X163597059Y-127763917D01*
X163594963Y-127767052D01*
X163594959Y-127767059D01*
X163559914Y-127819507D01*
X163559913Y-127819509D01*
X163503343Y-127956082D01*
X163503340Y-127956092D01*
X163474500Y-128101079D01*
X163474500Y-128801652D01*
X163454815Y-128868691D01*
X163415598Y-128907190D01*
X163293845Y-128982288D01*
X163169789Y-129106344D01*
X163169786Y-129106348D01*
X163077687Y-129255662D01*
X163077686Y-129255664D01*
X163022501Y-129422203D01*
X163022500Y-129422204D01*
X163012000Y-129524984D01*
X163012000Y-130875015D01*
X163022500Y-130977795D01*
X163022501Y-130977796D01*
X163077686Y-131144335D01*
X163077687Y-131144337D01*
X163169786Y-131293651D01*
X163169789Y-131293655D01*
X163293844Y-131417710D01*
X163293848Y-131417713D01*
X163443162Y-131509812D01*
X163443164Y-131509813D01*
X163443166Y-131509814D01*
X163609703Y-131564999D01*
X163712492Y-131575500D01*
X163712497Y-131575500D01*
X164737503Y-131575500D01*
X164737508Y-131575500D01*
X164840297Y-131564999D01*
X165006834Y-131509814D01*
X165156155Y-131417711D01*
X165280211Y-131293655D01*
X165372314Y-131144334D01*
X165427499Y-130977797D01*
X165438000Y-130875008D01*
X165438000Y-129524992D01*
X165427499Y-129422203D01*
X165372314Y-129255666D01*
X165342991Y-129208127D01*
X165280213Y-129106348D01*
X165280210Y-129106344D01*
X165179798Y-129005932D01*
X165146313Y-128944609D01*
X165151297Y-128874917D01*
X165193169Y-128818984D01*
X165254877Y-128794894D01*
X165302797Y-128789999D01*
X165469334Y-128734814D01*
X165618656Y-128642712D01*
X165712319Y-128549049D01*
X165773642Y-128515564D01*
X165843334Y-128520548D01*
X165887681Y-128549049D01*
X165981344Y-128642712D01*
X166130666Y-128734814D01*
X166297203Y-128789999D01*
X166399991Y-128800500D01*
X167200008Y-128800499D01*
X167200016Y-128800498D01*
X167200019Y-128800498D01*
X167256302Y-128794748D01*
X167302797Y-128789999D01*
X167469334Y-128734814D01*
X167618656Y-128642712D01*
X167742712Y-128518656D01*
X167834814Y-128369334D01*
X167889999Y-128202797D01*
X167900500Y-128100009D01*
X167900499Y-127099992D01*
X167889999Y-126997203D01*
X167834814Y-126830666D01*
X167742712Y-126681344D01*
X167618656Y-126557288D01*
X167618655Y-126557287D01*
X167609402Y-126551580D01*
X167562678Y-126499632D01*
X167550500Y-126446042D01*
X167550500Y-125462229D01*
X167570185Y-125395190D01*
X167586819Y-125374548D01*
X169374548Y-123586819D01*
X169435871Y-123553334D01*
X169462229Y-123550500D01*
X176676000Y-123550500D01*
X176743039Y-123570185D01*
X176788794Y-123622989D01*
X176800000Y-123674500D01*
X176800000Y-128217333D01*
X176780315Y-128284372D01*
X176727511Y-128330127D01*
X176723692Y-128331795D01*
X174400000Y-129300000D01*
X174400000Y-130770259D01*
X174383845Y-130828212D01*
X174384601Y-130828552D01*
X174382368Y-130833513D01*
X174382120Y-130834404D01*
X174381523Y-130835390D01*
X174330913Y-130997807D01*
X174324500Y-131068386D01*
X174324500Y-131731613D01*
X174330913Y-131802192D01*
X174330913Y-131802194D01*
X174330914Y-131802196D01*
X174381522Y-131964606D01*
X174382115Y-131965587D01*
X174382362Y-131966473D01*
X174384600Y-131971445D01*
X174383843Y-131971785D01*
X174386646Y-131981842D01*
X174394977Y-131994804D01*
X174400000Y-132029739D01*
X174400000Y-132031930D01*
X174380315Y-132098969D01*
X174342573Y-132136544D01*
X173330464Y-132780614D01*
X173263891Y-132800000D01*
X161100000Y-132800000D01*
X161100000Y-97451362D01*
X161119685Y-97384323D01*
X161136319Y-97363681D01*
X161399552Y-97100448D01*
X161400480Y-97099530D01*
X166163846Y-92435401D01*
X166225518Y-92402563D01*
X166250599Y-92400000D01*
X169100501Y-92400000D01*
X169167540Y-92419685D01*
G37*
G04 #@! TD.AperFunction*
G04 #@! TA.AperFunction,Conductor*
G36*
X191830702Y-116163227D02*
G01*
X191837180Y-116169259D01*
X191889707Y-116221786D01*
X191889711Y-116221789D01*
X192020814Y-116309390D01*
X192020827Y-116309397D01*
X192166498Y-116369735D01*
X192166503Y-116369737D01*
X192321153Y-116400499D01*
X192321156Y-116400500D01*
X192321158Y-116400500D01*
X192478844Y-116400500D01*
X192478845Y-116400499D01*
X192633497Y-116369737D01*
X192779179Y-116309394D01*
X192830701Y-116274968D01*
X192897376Y-116254090D01*
X192964756Y-116272573D01*
X193011447Y-116324552D01*
X193023590Y-116378564D01*
X193010876Y-119569826D01*
X192990925Y-119636787D01*
X192937939Y-119682331D01*
X192868741Y-119691999D01*
X192847873Y-119687038D01*
X192802685Y-119672064D01*
X192802683Y-119672063D01*
X192704181Y-119662000D01*
X192704174Y-119662000D01*
X192095826Y-119662000D01*
X192095818Y-119662000D01*
X191997316Y-119672063D01*
X191997315Y-119672064D01*
X191918219Y-119698273D01*
X191837715Y-119724950D01*
X191837704Y-119724955D01*
X191694612Y-119813216D01*
X191694608Y-119813219D01*
X191575719Y-119932108D01*
X191575716Y-119932112D01*
X191487455Y-120075204D01*
X191487450Y-120075215D01*
X191470891Y-120125187D01*
X191434564Y-120234815D01*
X191434564Y-120234816D01*
X191434563Y-120234816D01*
X191424500Y-120333318D01*
X191424500Y-120866681D01*
X191434563Y-120965183D01*
X191487450Y-121124784D01*
X191487455Y-121124795D01*
X191575716Y-121267887D01*
X191575719Y-121267891D01*
X191694608Y-121386780D01*
X191694612Y-121386783D01*
X191837704Y-121475044D01*
X191837707Y-121475045D01*
X191837713Y-121475049D01*
X191997315Y-121527936D01*
X192095826Y-121538000D01*
X192095831Y-121538000D01*
X192704169Y-121538000D01*
X192704174Y-121538000D01*
X192802685Y-121527936D01*
X192839650Y-121515686D01*
X192909477Y-121513284D01*
X192969519Y-121549015D01*
X193000712Y-121611535D01*
X193002653Y-121633886D01*
X193000492Y-122176494D01*
X192980541Y-122243454D01*
X192927555Y-122288999D01*
X192876493Y-122300000D01*
X188360730Y-122300000D01*
X188293691Y-122280315D01*
X188247936Y-122227511D01*
X188237992Y-122158353D01*
X188267017Y-122094797D01*
X188273049Y-122088319D01*
X189582947Y-120778421D01*
X189582952Y-120778416D01*
X189655563Y-120669744D01*
X189665084Y-120655495D01*
X189721658Y-120518913D01*
X189750500Y-120373918D01*
X189750500Y-118826082D01*
X189750500Y-117524499D01*
X189770185Y-117457460D01*
X189822989Y-117411705D01*
X189874500Y-117400499D01*
X189874981Y-117400499D01*
X189874991Y-117400500D01*
X190925008Y-117400499D01*
X190925016Y-117400498D01*
X190925019Y-117400498D01*
X190998419Y-117393000D01*
X191027797Y-117389999D01*
X191194334Y-117334814D01*
X191343656Y-117242712D01*
X191467712Y-117118656D01*
X191559814Y-116969334D01*
X191614999Y-116802797D01*
X191625500Y-116700009D01*
X191625499Y-116256938D01*
X191645183Y-116189901D01*
X191697987Y-116144146D01*
X191767146Y-116134202D01*
X191830702Y-116163227D01*
G37*
G04 #@! TD.AperFunction*
G04 #@! TA.AperFunction,Conductor*
G36*
X169503474Y-112440185D02*
G01*
X169549229Y-112492989D01*
X169559173Y-112562147D01*
X169554142Y-112583496D01*
X169550893Y-112593304D01*
X169549563Y-112597318D01*
X169539500Y-112695818D01*
X169539500Y-113229181D01*
X169549563Y-113327683D01*
X169602450Y-113487284D01*
X169602455Y-113487295D01*
X169690716Y-113630387D01*
X169690719Y-113630391D01*
X169809608Y-113749280D01*
X169809612Y-113749283D01*
X169952704Y-113837544D01*
X169952707Y-113837545D01*
X169952713Y-113837549D01*
X170112315Y-113890436D01*
X170210826Y-113900500D01*
X170210831Y-113900500D01*
X171069169Y-113900500D01*
X171069174Y-113900500D01*
X171167685Y-113890436D01*
X171327287Y-113837549D01*
X171351046Y-113822894D01*
X171438484Y-113768962D01*
X171503581Y-113750500D01*
X173126155Y-113750500D01*
X173191251Y-113768961D01*
X173233159Y-113794810D01*
X173233160Y-113794810D01*
X173233166Y-113794814D01*
X173399703Y-113849999D01*
X173502491Y-113860500D01*
X174552508Y-113860499D01*
X174552516Y-113860498D01*
X174552519Y-113860498D01*
X174615023Y-113854113D01*
X174655297Y-113849999D01*
X174821834Y-113794814D01*
X174971156Y-113702712D01*
X175095212Y-113578656D01*
X175187314Y-113429334D01*
X175208468Y-113365494D01*
X175222338Y-113345461D01*
X175232461Y-113323297D01*
X175241872Y-113317248D01*
X175248241Y-113308051D01*
X175270739Y-113298697D01*
X175291239Y-113285523D01*
X175308340Y-113283064D01*
X175312757Y-113281228D01*
X175326174Y-113280500D01*
X175435500Y-113280500D01*
X175502539Y-113300185D01*
X175548294Y-113352989D01*
X175559500Y-113404499D01*
X175559500Y-113631921D01*
X175559501Y-113631947D01*
X175562345Y-113668096D01*
X175562346Y-113668098D01*
X175573316Y-113705860D01*
X175573115Y-113775729D01*
X175541920Y-113828133D01*
X174894725Y-114475329D01*
X174894719Y-114475337D01*
X174843773Y-114551583D01*
X174843774Y-114551584D01*
X174823534Y-114581875D01*
X174774499Y-114700256D01*
X174774497Y-114700262D01*
X174749500Y-114825929D01*
X174749500Y-115569354D01*
X174729815Y-115636393D01*
X174677011Y-115682148D01*
X174612898Y-115692712D01*
X174532511Y-115684500D01*
X173482498Y-115684500D01*
X173482480Y-115684501D01*
X173379703Y-115695000D01*
X173379700Y-115695001D01*
X173213168Y-115750185D01*
X173213163Y-115750187D01*
X173063842Y-115842289D01*
X172939789Y-115966342D01*
X172847687Y-116115663D01*
X172847685Y-116115668D01*
X172831926Y-116163227D01*
X172792501Y-116282203D01*
X172792501Y-116282204D01*
X172792500Y-116282204D01*
X172782000Y-116384983D01*
X172782000Y-117160001D01*
X172782001Y-117160019D01*
X172792500Y-117262796D01*
X172792501Y-117262799D01*
X172841844Y-117411705D01*
X172847686Y-117429334D01*
X172939788Y-117578656D01*
X173063844Y-117702712D01*
X173213166Y-117794814D01*
X173379703Y-117849999D01*
X173482491Y-117860500D01*
X174532508Y-117860499D01*
X174532516Y-117860498D01*
X174532519Y-117860498D01*
X174588802Y-117854748D01*
X174635297Y-117849999D01*
X174801834Y-117794814D01*
X174951156Y-117702712D01*
X175075212Y-117578656D01*
X175167314Y-117429334D01*
X175222499Y-117262797D01*
X175232278Y-117167066D01*
X175241573Y-117144285D01*
X175246804Y-117120243D01*
X175256869Y-117106797D01*
X175258673Y-117102377D01*
X175267946Y-117091998D01*
X175382319Y-116977625D01*
X175443640Y-116944142D01*
X175513332Y-116949126D01*
X175569265Y-116990998D01*
X175593682Y-117056462D01*
X175589074Y-117099903D01*
X175562346Y-117191897D01*
X175562345Y-117191903D01*
X175559500Y-117228057D01*
X175559500Y-117631922D01*
X175559501Y-117631947D01*
X175562346Y-117668098D01*
X175607317Y-117822889D01*
X175607320Y-117822896D01*
X175689369Y-117961636D01*
X175689378Y-117961648D01*
X175803351Y-118075621D01*
X175803355Y-118075624D01*
X175803357Y-118075626D01*
X175803360Y-118075627D01*
X175803363Y-118075630D01*
X175818000Y-118084286D01*
X175942106Y-118157681D01*
X175982928Y-118169541D01*
X176096897Y-118202653D01*
X176096900Y-118202653D01*
X176096902Y-118202654D01*
X176133065Y-118205500D01*
X177260500Y-118205499D01*
X177327539Y-118225184D01*
X177373294Y-118277987D01*
X177384500Y-118329499D01*
X177384500Y-119456922D01*
X177384501Y-119456947D01*
X177387346Y-119493098D01*
X177432317Y-119647889D01*
X177432320Y-119647896D01*
X177514369Y-119786636D01*
X177514378Y-119786648D01*
X177628351Y-119900621D01*
X177628355Y-119900624D01*
X177628357Y-119900626D01*
X177628360Y-119900627D01*
X177628363Y-119900630D01*
X177710998Y-119949499D01*
X177767106Y-119982681D01*
X177777649Y-119985744D01*
X177921897Y-120027653D01*
X177921900Y-120027653D01*
X177921902Y-120027654D01*
X177958065Y-120030500D01*
X178361934Y-120030499D01*
X178398098Y-120027654D01*
X178525406Y-119990667D01*
X178594594Y-119990667D01*
X178721902Y-120027654D01*
X178758065Y-120030500D01*
X179161934Y-120030499D01*
X179198098Y-120027654D01*
X179325406Y-119990667D01*
X179394594Y-119990667D01*
X179521902Y-120027654D01*
X179558065Y-120030500D01*
X179961934Y-120030499D01*
X179998098Y-120027654D01*
X180125406Y-119990667D01*
X180143054Y-119990667D01*
X180159646Y-119985744D01*
X180194592Y-119990666D01*
X180313559Y-120025230D01*
X180372444Y-120062837D01*
X180401650Y-120126309D01*
X180391904Y-120195496D01*
X180366644Y-120231987D01*
X180045451Y-120553181D01*
X179984128Y-120586666D01*
X179957770Y-120589500D01*
X172002229Y-120589500D01*
X171935190Y-120569815D01*
X171914548Y-120553181D01*
X167070175Y-115708807D01*
X167036690Y-115647484D01*
X167035383Y-115601728D01*
X167036939Y-115591902D01*
X167050500Y-115506287D01*
X167050500Y-115293713D01*
X167017246Y-115083757D01*
X166951557Y-114881588D01*
X166855051Y-114692184D01*
X166855049Y-114692181D01*
X166855048Y-114692179D01*
X166730109Y-114520213D01*
X166579786Y-114369890D01*
X166407820Y-114244951D01*
X166407115Y-114244591D01*
X166399054Y-114240485D01*
X166348259Y-114192512D01*
X166331463Y-114124692D01*
X166353999Y-114058556D01*
X166399054Y-114019515D01*
X166407816Y-114015051D01*
X166439678Y-113991902D01*
X166579786Y-113890109D01*
X166579788Y-113890106D01*
X166579792Y-113890104D01*
X166730104Y-113739792D01*
X166730106Y-113739788D01*
X166730109Y-113739786D01*
X166855048Y-113567820D01*
X166855047Y-113567820D01*
X166855051Y-113567816D01*
X166951557Y-113378412D01*
X167017246Y-113176243D01*
X167050500Y-112966287D01*
X167050500Y-112753713D01*
X167020436Y-112563897D01*
X167029391Y-112494604D01*
X167074387Y-112441153D01*
X167141138Y-112420513D01*
X167142909Y-112420500D01*
X169436435Y-112420500D01*
X169503474Y-112440185D01*
G37*
G04 #@! TD.AperFunction*
G04 #@! TA.AperFunction,Conductor*
G36*
X186488813Y-117107907D02*
G01*
X186502146Y-117105991D01*
X186522288Y-117115190D01*
X186543926Y-117119897D01*
X186561652Y-117133167D01*
X186565701Y-117135016D01*
X186572180Y-117141048D01*
X186666344Y-117235212D01*
X186815666Y-117327314D01*
X186982203Y-117382499D01*
X187084991Y-117393000D01*
X188125500Y-117392999D01*
X188192539Y-117412683D01*
X188238294Y-117465487D01*
X188249500Y-117516999D01*
X188249500Y-118537770D01*
X188229815Y-118604809D01*
X188213181Y-118625451D01*
X186365451Y-120473181D01*
X186304128Y-120506666D01*
X186277770Y-120509500D01*
X185935638Y-120509500D01*
X185868599Y-120489815D01*
X185830099Y-120450597D01*
X185762712Y-120341344D01*
X185638656Y-120217288D01*
X185489334Y-120125186D01*
X185489332Y-120125185D01*
X185489324Y-120125182D01*
X185482664Y-120122975D01*
X185425220Y-120083201D01*
X185398400Y-120018684D01*
X185400056Y-119981072D01*
X185400500Y-119978840D01*
X185400500Y-119821155D01*
X185400499Y-119821153D01*
X185381363Y-119724950D01*
X185369737Y-119666503D01*
X185342277Y-119600208D01*
X185309397Y-119520827D01*
X185309390Y-119520814D01*
X185221789Y-119389711D01*
X185221786Y-119389707D01*
X185110292Y-119278213D01*
X185110284Y-119278207D01*
X184979181Y-119190607D01*
X184979179Y-119190606D01*
X184955521Y-119180806D01*
X184915295Y-119153927D01*
X184571818Y-118810450D01*
X184538333Y-118749127D01*
X184535499Y-118722769D01*
X184535499Y-118329499D01*
X184555184Y-118262460D01*
X184607988Y-118216705D01*
X184659499Y-118205499D01*
X185786922Y-118205499D01*
X185786934Y-118205499D01*
X185823098Y-118202654D01*
X185977894Y-118157681D01*
X186116643Y-118075626D01*
X186230626Y-117961643D01*
X186312681Y-117822894D01*
X186357654Y-117668098D01*
X186360500Y-117631935D01*
X186360499Y-117228728D01*
X186366737Y-117207482D01*
X186368317Y-117185395D01*
X186376388Y-117174612D01*
X186380183Y-117161690D01*
X186396919Y-117147188D01*
X186410189Y-117129462D01*
X186422807Y-117124755D01*
X186432987Y-117115935D01*
X186454905Y-117112783D01*
X186475653Y-117105045D01*
X186488813Y-117107907D01*
G37*
G04 #@! TD.AperFunction*
G04 #@! TA.AperFunction,Conductor*
G36*
X181304809Y-112770185D02*
G01*
X181325451Y-112786819D01*
X182713181Y-114174549D01*
X182746666Y-114235872D01*
X182749500Y-114262230D01*
X182749500Y-114673918D01*
X182749500Y-114673920D01*
X182749499Y-114673920D01*
X182778340Y-114818907D01*
X182778343Y-114818917D01*
X182834912Y-114955488D01*
X182834920Y-114955502D01*
X182861126Y-114994721D01*
X182861127Y-114994724D01*
X182861128Y-114994724D01*
X182868327Y-115005499D01*
X182917051Y-115078420D01*
X182917052Y-115078421D01*
X183451584Y-115612952D01*
X183451586Y-115612954D01*
X183474183Y-115628052D01*
X183525270Y-115662186D01*
X183574505Y-115695084D01*
X183574506Y-115695084D01*
X183574507Y-115695085D01*
X183574509Y-115695086D01*
X183711082Y-115751656D01*
X183711087Y-115751658D01*
X183711091Y-115751658D01*
X183711092Y-115751659D01*
X183856079Y-115780500D01*
X183856082Y-115780500D01*
X183856083Y-115780500D01*
X184003918Y-115780500D01*
X184032868Y-115780500D01*
X184099907Y-115800185D01*
X184145662Y-115852989D01*
X184155606Y-115922147D01*
X184126581Y-115985703D01*
X184120549Y-115992181D01*
X184014378Y-116098351D01*
X184014369Y-116098363D01*
X183932320Y-116237103D01*
X183932317Y-116237110D01*
X183887346Y-116391897D01*
X183887345Y-116391903D01*
X183884500Y-116428057D01*
X183884500Y-116831922D01*
X183884501Y-116831947D01*
X183887346Y-116868098D01*
X183924332Y-116995404D01*
X183924332Y-117064594D01*
X183887346Y-117191897D01*
X183887345Y-117191903D01*
X183884500Y-117228057D01*
X183884500Y-117430500D01*
X183864815Y-117497539D01*
X183812011Y-117543294D01*
X183760501Y-117554500D01*
X183558078Y-117554500D01*
X183558052Y-117554501D01*
X183521901Y-117557346D01*
X183394595Y-117594332D01*
X183325405Y-117594332D01*
X183198102Y-117557346D01*
X183198096Y-117557345D01*
X183161935Y-117554500D01*
X182758077Y-117554500D01*
X182758052Y-117554501D01*
X182721901Y-117557346D01*
X182594595Y-117594332D01*
X182525405Y-117594332D01*
X182398102Y-117557346D01*
X182398096Y-117557345D01*
X182361935Y-117554500D01*
X181958077Y-117554500D01*
X181958052Y-117554501D01*
X181921901Y-117557346D01*
X181794595Y-117594332D01*
X181725405Y-117594332D01*
X181598102Y-117557346D01*
X181598096Y-117557345D01*
X181561935Y-117554500D01*
X181158077Y-117554500D01*
X181158052Y-117554501D01*
X181121901Y-117557346D01*
X180994595Y-117594332D01*
X180925405Y-117594332D01*
X180798102Y-117557346D01*
X180798096Y-117557345D01*
X180761935Y-117554500D01*
X180358077Y-117554500D01*
X180358052Y-117554501D01*
X180321901Y-117557346D01*
X180194595Y-117594332D01*
X180125405Y-117594332D01*
X179998102Y-117557346D01*
X179998096Y-117557345D01*
X179961942Y-117554500D01*
X179622597Y-117554500D01*
X179617876Y-117553113D01*
X179613063Y-117554133D01*
X179584679Y-117543366D01*
X179555558Y-117534815D01*
X179552336Y-117531097D01*
X179547736Y-117529352D01*
X179529677Y-117504947D01*
X179509803Y-117482011D01*
X179509102Y-117477142D01*
X179506176Y-117473187D01*
X179504178Y-117442894D01*
X179499859Y-117412853D01*
X179501902Y-117408377D01*
X179501579Y-117403469D01*
X179516272Y-117376912D01*
X179528884Y-117349297D01*
X179533676Y-117345456D01*
X179535405Y-117342333D01*
X179548088Y-117333908D01*
X179563776Y-117321339D01*
X179569313Y-117318355D01*
X179625495Y-117295084D01*
X179674729Y-117262186D01*
X179748416Y-117212952D01*
X180715297Y-116246069D01*
X180755522Y-116219192D01*
X180779179Y-116209394D01*
X180910289Y-116121789D01*
X181021789Y-116010289D01*
X181109394Y-115879179D01*
X181169737Y-115733497D01*
X181200500Y-115578842D01*
X181200500Y-115421158D01*
X181200500Y-115421155D01*
X181200499Y-115421153D01*
X181169737Y-115266503D01*
X181169735Y-115266498D01*
X181109397Y-115120827D01*
X181109390Y-115120814D01*
X181021789Y-114989711D01*
X181021786Y-114989707D01*
X180910292Y-114878213D01*
X180910288Y-114878210D01*
X180779185Y-114790609D01*
X180779172Y-114790602D01*
X180633501Y-114730264D01*
X180633489Y-114730261D01*
X180478845Y-114699500D01*
X180478842Y-114699500D01*
X180321158Y-114699500D01*
X180321155Y-114699500D01*
X180166510Y-114730261D01*
X180166498Y-114730264D01*
X180020827Y-114790602D01*
X180020814Y-114790609D01*
X179889711Y-114878210D01*
X179889707Y-114878213D01*
X179778213Y-114989707D01*
X179778207Y-114989715D01*
X179690607Y-115120818D01*
X179690606Y-115120819D01*
X179680805Y-115144480D01*
X179653927Y-115184703D01*
X178995451Y-115843181D01*
X178934128Y-115876666D01*
X178907770Y-115879500D01*
X178159500Y-115879500D01*
X178092461Y-115859815D01*
X178046706Y-115807011D01*
X178035500Y-115755501D01*
X178035499Y-115628076D01*
X178035498Y-115628052D01*
X178034310Y-115612952D01*
X178032654Y-115591902D01*
X177987681Y-115437106D01*
X177940630Y-115357546D01*
X177905630Y-115298363D01*
X177905621Y-115298351D01*
X177791648Y-115184378D01*
X177791645Y-115184376D01*
X177791643Y-115184374D01*
X177711082Y-115136730D01*
X177663400Y-115085664D01*
X177650896Y-115016922D01*
X177677541Y-114952333D01*
X177711080Y-114923269D01*
X177791643Y-114875626D01*
X177905626Y-114761643D01*
X177987681Y-114622894D01*
X178032654Y-114468098D01*
X178035500Y-114431935D01*
X178035499Y-114028066D01*
X178032654Y-113991902D01*
X177995667Y-113864593D01*
X177995667Y-113795406D01*
X178032654Y-113668098D01*
X178035500Y-113631935D01*
X178035499Y-113228066D01*
X178032654Y-113191902D01*
X177995666Y-113064593D01*
X177995648Y-113047015D01*
X177990745Y-113030619D01*
X177995593Y-112995931D01*
X177995593Y-112995661D01*
X178032654Y-112868098D01*
X178032765Y-112866685D01*
X178034881Y-112859344D01*
X178050417Y-112834901D01*
X178063429Y-112809025D01*
X178068932Y-112805772D01*
X178072362Y-112800378D01*
X178098647Y-112788215D01*
X178123582Y-112773482D01*
X178130897Y-112773292D01*
X178135772Y-112771037D01*
X178148712Y-112772831D01*
X178178221Y-112772068D01*
X178206410Y-112777675D01*
X178321155Y-112800500D01*
X178321158Y-112800500D01*
X178478844Y-112800500D01*
X178478845Y-112800499D01*
X178584149Y-112779553D01*
X178633488Y-112769739D01*
X178633489Y-112769738D01*
X178633497Y-112769737D01*
X178657155Y-112759937D01*
X178704604Y-112750500D01*
X181237770Y-112750500D01*
X181304809Y-112770185D01*
G37*
G04 #@! TD.AperFunction*
G04 #@! TA.AperFunction,Conductor*
G36*
X188896540Y-112769910D02*
G01*
X188912185Y-112769352D01*
X188929378Y-112779553D01*
X188948558Y-112785185D01*
X188958808Y-112797014D01*
X188972274Y-112805004D01*
X188981223Y-112822882D01*
X188994313Y-112837989D01*
X188996959Y-112854319D01*
X189003549Y-112867484D01*
X189004808Y-112902749D01*
X188999500Y-112952127D01*
X188999500Y-112952134D01*
X188999500Y-112952135D01*
X188999500Y-115047870D01*
X188999501Y-115047876D01*
X189005908Y-115107483D01*
X189056202Y-115242328D01*
X189056206Y-115242335D01*
X189141438Y-115356189D01*
X189165856Y-115421653D01*
X189151005Y-115489926D01*
X189101600Y-115539332D01*
X189042172Y-115554500D01*
X188781248Y-115554500D01*
X188714209Y-115534815D01*
X188683468Y-115503502D01*
X188682193Y-115504511D01*
X188677711Y-115498843D01*
X188553657Y-115374789D01*
X188553656Y-115374788D01*
X188404334Y-115282686D01*
X188237797Y-115227501D01*
X188237795Y-115227500D01*
X188135016Y-115217000D01*
X188135009Y-115217000D01*
X187493308Y-115217000D01*
X187426269Y-115197315D01*
X187405627Y-115180681D01*
X186749674Y-114524727D01*
X186749673Y-114524726D01*
X186742919Y-114520213D01*
X186643127Y-114453535D01*
X186524744Y-114404499D01*
X186524738Y-114404497D01*
X186399071Y-114379500D01*
X186399069Y-114379500D01*
X186142323Y-114379500D01*
X186126421Y-114375149D01*
X186111830Y-114375692D01*
X186079205Y-114362234D01*
X186036082Y-114336731D01*
X185988400Y-114285664D01*
X185975896Y-114216922D01*
X186002541Y-114152333D01*
X186036081Y-114123269D01*
X186079204Y-114097766D01*
X186142323Y-114080500D01*
X186284071Y-114080500D01*
X186379998Y-114061418D01*
X186409744Y-114055501D01*
X186528127Y-114006465D01*
X186549921Y-113991903D01*
X186549922Y-113991903D01*
X186613338Y-113949529D01*
X186634669Y-113935277D01*
X187430626Y-113139317D01*
X187491949Y-113105833D01*
X187518307Y-113102999D01*
X188175002Y-113102999D01*
X188175008Y-113102999D01*
X188277797Y-113092499D01*
X188444334Y-113037314D01*
X188593656Y-112945212D01*
X188717712Y-112821156D01*
X188717715Y-112821150D01*
X188722193Y-112815489D01*
X188724015Y-112816930D01*
X188767665Y-112777675D01*
X188821248Y-112765500D01*
X188881519Y-112765500D01*
X188896540Y-112769910D01*
G37*
G04 #@! TD.AperFunction*
G04 #@! TA.AperFunction,Conductor*
G36*
X182480809Y-98370185D02*
G01*
X182526564Y-98422989D01*
X182536508Y-98492147D01*
X182507483Y-98555703D01*
X182501451Y-98562181D01*
X182482289Y-98581342D01*
X182390187Y-98730663D01*
X182390185Y-98730668D01*
X182369962Y-98791698D01*
X182335001Y-98897203D01*
X182335001Y-98897204D01*
X182335000Y-98897204D01*
X182324500Y-98999983D01*
X182324500Y-99900001D01*
X182324501Y-99900019D01*
X182335000Y-100002796D01*
X182335001Y-100002799D01*
X182357086Y-100069446D01*
X182390186Y-100169334D01*
X182482288Y-100318656D01*
X182606344Y-100442712D01*
X182755666Y-100534814D01*
X182922203Y-100589999D01*
X183024991Y-100600500D01*
X184375008Y-100600499D01*
X184477797Y-100589999D01*
X184644334Y-100534814D01*
X184793656Y-100442712D01*
X184917712Y-100318656D01*
X184954259Y-100259402D01*
X185006207Y-100212679D01*
X185059798Y-100200500D01*
X189793831Y-100200500D01*
X189860870Y-100220185D01*
X189897856Y-100260963D01*
X189899640Y-100259870D01*
X189902184Y-100264021D01*
X190031752Y-100442358D01*
X190031756Y-100442363D01*
X190187636Y-100598243D01*
X190187641Y-100598247D01*
X190309027Y-100686438D01*
X190365978Y-100727815D01*
X190494375Y-100793237D01*
X190562393Y-100827895D01*
X190562396Y-100827896D01*
X190627454Y-100849034D01*
X190772049Y-100896015D01*
X190989778Y-100930500D01*
X190989779Y-100930500D01*
X191210221Y-100930500D01*
X191210222Y-100930500D01*
X191427951Y-100896015D01*
X191637606Y-100827895D01*
X191834022Y-100727815D01*
X192012365Y-100598242D01*
X192168242Y-100442365D01*
X192225182Y-100363993D01*
X192280511Y-100321328D01*
X192350124Y-100315349D01*
X192411920Y-100347954D01*
X192446277Y-100408793D01*
X192449500Y-100436879D01*
X192449500Y-108113000D01*
X192429815Y-108180039D01*
X192377011Y-108225794D01*
X192325500Y-108237000D01*
X191888330Y-108237000D01*
X191888312Y-108237001D01*
X191787247Y-108247325D01*
X191623484Y-108301592D01*
X191623481Y-108301593D01*
X191476648Y-108392161D01*
X191354661Y-108514148D01*
X191264093Y-108660981D01*
X191264092Y-108660984D01*
X191209826Y-108824747D01*
X191209826Y-108824748D01*
X191209825Y-108824748D01*
X191199500Y-108925815D01*
X191199500Y-109499169D01*
X191199501Y-109499187D01*
X191209825Y-109600252D01*
X191264092Y-109764015D01*
X191264093Y-109764018D01*
X191270600Y-109774567D01*
X191341991Y-109890311D01*
X191354661Y-109910851D01*
X191400681Y-109956871D01*
X191434166Y-110018194D01*
X191437000Y-110044552D01*
X191437000Y-110450270D01*
X191417315Y-110517309D01*
X191400681Y-110537951D01*
X190710451Y-111228181D01*
X190649128Y-111261666D01*
X190622770Y-111264500D01*
X188821248Y-111264500D01*
X188754209Y-111244815D01*
X188723468Y-111213502D01*
X188722193Y-111214511D01*
X188717711Y-111208843D01*
X188593657Y-111084789D01*
X188593656Y-111084788D01*
X188452202Y-110997539D01*
X188444336Y-110992687D01*
X188444331Y-110992685D01*
X188399571Y-110977853D01*
X188277797Y-110937501D01*
X188277795Y-110937500D01*
X188175016Y-110927000D01*
X188175009Y-110927000D01*
X187305500Y-110927000D01*
X187238461Y-110907315D01*
X187192706Y-110854511D01*
X187181500Y-110803000D01*
X187181500Y-108509807D01*
X187201185Y-108442768D01*
X187217815Y-108422130D01*
X187463127Y-108176817D01*
X187524450Y-108143333D01*
X187550808Y-108140499D01*
X188180002Y-108140499D01*
X188180008Y-108140499D01*
X188282797Y-108129999D01*
X188449334Y-108074814D01*
X188598656Y-107982712D01*
X188622318Y-107959049D01*
X188683640Y-107925564D01*
X188753332Y-107930547D01*
X188797681Y-107959049D01*
X188881344Y-108042712D01*
X189030666Y-108134814D01*
X189197203Y-108189999D01*
X189299991Y-108200500D01*
X190700008Y-108200499D01*
X190802797Y-108189999D01*
X190969334Y-108134814D01*
X191118656Y-108042712D01*
X191242712Y-107918656D01*
X191334814Y-107769334D01*
X191389999Y-107602797D01*
X191400500Y-107500009D01*
X191400499Y-106574992D01*
X191389999Y-106472203D01*
X191334814Y-106305666D01*
X191242712Y-106156344D01*
X191118656Y-106032288D01*
X190969334Y-105940186D01*
X190802797Y-105885001D01*
X190802795Y-105885000D01*
X190700010Y-105874500D01*
X189299998Y-105874500D01*
X189299981Y-105874501D01*
X189197203Y-105885000D01*
X189197200Y-105885001D01*
X189030668Y-105940185D01*
X189030663Y-105940187D01*
X188881342Y-106032289D01*
X188795181Y-106118451D01*
X188733858Y-106151936D01*
X188664166Y-106146952D01*
X188619819Y-106118451D01*
X188598657Y-106097289D01*
X188598656Y-106097288D01*
X188471589Y-106018913D01*
X188449336Y-106005187D01*
X188449331Y-106005185D01*
X188447862Y-106004698D01*
X188282797Y-105950001D01*
X188282795Y-105950000D01*
X188180010Y-105939500D01*
X187179998Y-105939500D01*
X187179980Y-105939501D01*
X187077203Y-105950000D01*
X187077200Y-105950001D01*
X186910668Y-106005185D01*
X186910663Y-106005187D01*
X186761342Y-106097289D01*
X186637289Y-106221342D01*
X186545187Y-106370663D01*
X186545186Y-106370666D01*
X186490001Y-106537203D01*
X186490001Y-106537204D01*
X186490000Y-106537204D01*
X186479500Y-106639983D01*
X186479500Y-107269191D01*
X186459815Y-107336230D01*
X186443181Y-107356872D01*
X186185483Y-107614569D01*
X186124160Y-107648054D01*
X186085200Y-107650246D01*
X185980011Y-107639500D01*
X184979998Y-107639500D01*
X184979980Y-107639501D01*
X184877203Y-107650000D01*
X184877200Y-107650001D01*
X184710668Y-107705185D01*
X184710663Y-107705187D01*
X184632989Y-107753097D01*
X184567421Y-107793539D01*
X184550863Y-107798235D01*
X184537261Y-107806977D01*
X184502326Y-107812000D01*
X184492508Y-107812000D01*
X184425469Y-107792315D01*
X184386969Y-107753097D01*
X184357418Y-107705187D01*
X184342712Y-107681344D01*
X184218656Y-107557288D01*
X184125791Y-107500009D01*
X184069336Y-107465187D01*
X184069331Y-107465185D01*
X184067862Y-107464698D01*
X183902797Y-107410001D01*
X183902795Y-107410000D01*
X183800010Y-107399500D01*
X182399998Y-107399500D01*
X182399981Y-107399501D01*
X182297203Y-107410000D01*
X182297198Y-107410001D01*
X182273501Y-107417854D01*
X182203673Y-107420254D01*
X182143632Y-107384521D01*
X182112441Y-107322000D01*
X182110500Y-107300147D01*
X182110500Y-105252229D01*
X182130185Y-105185190D01*
X182146814Y-105164553D01*
X183574549Y-103736817D01*
X183635872Y-103703333D01*
X183662230Y-103700499D01*
X184375002Y-103700499D01*
X184375008Y-103700499D01*
X184477797Y-103689999D01*
X184644334Y-103634814D01*
X184793656Y-103542712D01*
X184917712Y-103418656D01*
X185009814Y-103269334D01*
X185064999Y-103102797D01*
X185075500Y-103000009D01*
X185075499Y-102099992D01*
X185064999Y-101997203D01*
X185009814Y-101830666D01*
X184917712Y-101681344D01*
X184793656Y-101557288D01*
X184644334Y-101465186D01*
X184477797Y-101410001D01*
X184477795Y-101410000D01*
X184375010Y-101399500D01*
X183024998Y-101399500D01*
X183024981Y-101399501D01*
X182922203Y-101410000D01*
X182922200Y-101410001D01*
X182755668Y-101465185D01*
X182755663Y-101465187D01*
X182606342Y-101557289D01*
X182482289Y-101681342D01*
X182390187Y-101830663D01*
X182390186Y-101830666D01*
X182335001Y-101997203D01*
X182335001Y-101997204D01*
X182335000Y-101997204D01*
X182324500Y-102099983D01*
X182324500Y-102812769D01*
X182304815Y-102879808D01*
X182288181Y-102900450D01*
X182086334Y-103102296D01*
X182025011Y-103135781D01*
X181955319Y-103130797D01*
X181899386Y-103088925D01*
X181874969Y-103023461D01*
X181875296Y-103002001D01*
X181875500Y-103000009D01*
X181875499Y-102099992D01*
X181864999Y-101997203D01*
X181809814Y-101830666D01*
X181717712Y-101681344D01*
X181593656Y-101557288D01*
X181444334Y-101465186D01*
X181277797Y-101410001D01*
X181277795Y-101410000D01*
X181175010Y-101399500D01*
X179824998Y-101399500D01*
X179824981Y-101399501D01*
X179722203Y-101410000D01*
X179722200Y-101410001D01*
X179555668Y-101465185D01*
X179555663Y-101465187D01*
X179406342Y-101557289D01*
X179282289Y-101681342D01*
X179190187Y-101830663D01*
X179190186Y-101830666D01*
X179135001Y-101997203D01*
X179135001Y-101997204D01*
X179135000Y-101997204D01*
X179124500Y-102099983D01*
X179124500Y-103000001D01*
X179124501Y-103000019D01*
X179135000Y-103102796D01*
X179135001Y-103102799D01*
X179171451Y-103212795D01*
X179190186Y-103269334D01*
X179282288Y-103418656D01*
X179406344Y-103542712D01*
X179555666Y-103634814D01*
X179722203Y-103689999D01*
X179722205Y-103689999D01*
X179724504Y-103690761D01*
X179781949Y-103730534D01*
X179808772Y-103795049D01*
X179809500Y-103808467D01*
X179809500Y-104978769D01*
X179789815Y-105045808D01*
X179737011Y-105091563D01*
X179667853Y-105101507D01*
X179604297Y-105072482D01*
X179597819Y-105066450D01*
X178228421Y-103697052D01*
X178228414Y-103697046D01*
X178154729Y-103647812D01*
X178154729Y-103647813D01*
X178105491Y-103614913D01*
X177968917Y-103558343D01*
X177968907Y-103558340D01*
X177823920Y-103529500D01*
X177823918Y-103529500D01*
X175031774Y-103529500D01*
X174964735Y-103509815D01*
X174918980Y-103457011D01*
X174909036Y-103387853D01*
X174914068Y-103366496D01*
X174944867Y-103273550D01*
X174964999Y-103212797D01*
X174975500Y-103110009D01*
X174975499Y-102209992D01*
X174964999Y-102107203D01*
X174909814Y-101940666D01*
X174817712Y-101791344D01*
X174693656Y-101667288D01*
X174544334Y-101575186D01*
X174377797Y-101520001D01*
X174373965Y-101519609D01*
X174361894Y-101518376D01*
X174297203Y-101491978D01*
X174257053Y-101434796D01*
X174250500Y-101395018D01*
X174250500Y-100120808D01*
X174270185Y-100053769D01*
X174286819Y-100033127D01*
X174934621Y-99385325D01*
X175639554Y-98680391D01*
X175700875Y-98646908D01*
X175770567Y-98651892D01*
X175826500Y-98693764D01*
X175850917Y-98759228D01*
X175837718Y-98824369D01*
X175752104Y-98992393D01*
X175752103Y-98992396D01*
X175683985Y-99202047D01*
X175649500Y-99419778D01*
X175649500Y-99640221D01*
X175683985Y-99857952D01*
X175752103Y-100067603D01*
X175752104Y-100067606D01*
X175819819Y-100200500D01*
X175852184Y-100264021D01*
X175852187Y-100264025D01*
X175981752Y-100442358D01*
X175981756Y-100442363D01*
X176137636Y-100598243D01*
X176137641Y-100598247D01*
X176259027Y-100686438D01*
X176315978Y-100727815D01*
X176444375Y-100793237D01*
X176512393Y-100827895D01*
X176512396Y-100827896D01*
X176577454Y-100849034D01*
X176722049Y-100896015D01*
X176939778Y-100930500D01*
X176939779Y-100930500D01*
X177160221Y-100930500D01*
X177160222Y-100930500D01*
X177377951Y-100896015D01*
X177587606Y-100827895D01*
X177784022Y-100727815D01*
X177962365Y-100598242D01*
X178118242Y-100442365D01*
X178247815Y-100264022D01*
X178247818Y-100264016D01*
X178250360Y-100259870D01*
X178252329Y-100261076D01*
X178293925Y-100217254D01*
X178356169Y-100200500D01*
X179140202Y-100200500D01*
X179207241Y-100220185D01*
X179245739Y-100259401D01*
X179282288Y-100318656D01*
X179406344Y-100442712D01*
X179555666Y-100534814D01*
X179722203Y-100589999D01*
X179824991Y-100600500D01*
X181175008Y-100600499D01*
X181277797Y-100589999D01*
X181444334Y-100534814D01*
X181593656Y-100442712D01*
X181717712Y-100318656D01*
X181809814Y-100169334D01*
X181864999Y-100002797D01*
X181875500Y-99900009D01*
X181875499Y-98999992D01*
X181864999Y-98897203D01*
X181809814Y-98730666D01*
X181717712Y-98581344D01*
X181698549Y-98562181D01*
X181665064Y-98500858D01*
X181670048Y-98431166D01*
X181711920Y-98375233D01*
X181777384Y-98350816D01*
X181786230Y-98350500D01*
X182413770Y-98350500D01*
X182480809Y-98370185D01*
G37*
G04 #@! TD.AperFunction*
G04 #@! TA.AperFunction,Conductor*
G36*
X191943039Y-92419685D02*
G01*
X191988794Y-92472489D01*
X192000000Y-92524000D01*
X192000000Y-96300000D01*
X193054287Y-97162599D01*
X193093707Y-97220285D01*
X193099764Y-97259063D01*
X193097296Y-97878483D01*
X193077345Y-97945444D01*
X193024359Y-97990988D01*
X192955161Y-98000656D01*
X192891722Y-97971378D01*
X192885616Y-97965670D01*
X192114674Y-97194727D01*
X192114673Y-97194726D01*
X192114669Y-97194723D01*
X192008127Y-97123535D01*
X191889744Y-97074499D01*
X191889738Y-97074497D01*
X191764071Y-97049500D01*
X191764069Y-97049500D01*
X175635931Y-97049500D01*
X175635929Y-97049500D01*
X175510261Y-97074497D01*
X175510255Y-97074499D01*
X175391870Y-97123535D01*
X175285331Y-97194722D01*
X175285324Y-97194728D01*
X173094727Y-99385325D01*
X173094721Y-99385332D01*
X173047448Y-99456082D01*
X173047449Y-99456083D01*
X173023534Y-99491874D01*
X172974499Y-99610255D01*
X172974497Y-99610261D01*
X172949500Y-99735928D01*
X172949500Y-101395018D01*
X172929815Y-101462057D01*
X172877011Y-101507812D01*
X172838107Y-101518376D01*
X172822200Y-101520001D01*
X172655668Y-101575185D01*
X172655663Y-101575187D01*
X172506342Y-101667289D01*
X172382289Y-101791342D01*
X172290187Y-101940663D01*
X172290186Y-101940666D01*
X172235001Y-102107203D01*
X172235001Y-102107204D01*
X172235000Y-102107204D01*
X172224500Y-102209983D01*
X172224500Y-102313770D01*
X172218261Y-102335015D01*
X172216682Y-102357104D01*
X172208609Y-102367887D01*
X172204815Y-102380809D01*
X172188081Y-102395308D01*
X172174810Y-102413037D01*
X172162189Y-102417744D01*
X172152011Y-102426564D01*
X172130093Y-102429715D01*
X172109346Y-102437454D01*
X172096185Y-102434591D01*
X172082853Y-102436508D01*
X172062709Y-102427308D01*
X172041073Y-102422602D01*
X172023347Y-102409333D01*
X172019297Y-102407483D01*
X172012819Y-102401451D01*
X171926819Y-102315451D01*
X171893334Y-102254128D01*
X171890500Y-102227770D01*
X171890500Y-100979797D01*
X171910185Y-100912758D01*
X171949403Y-100874258D01*
X172008656Y-100837712D01*
X172132712Y-100713656D01*
X172224814Y-100564334D01*
X172279999Y-100397797D01*
X172290500Y-100295009D01*
X172290499Y-98944992D01*
X172279999Y-98842203D01*
X172224814Y-98675666D01*
X172132712Y-98526344D01*
X172008656Y-98402288D01*
X171859334Y-98310186D01*
X171692797Y-98255001D01*
X171692795Y-98255000D01*
X171590010Y-98244500D01*
X170689998Y-98244500D01*
X170689977Y-98244502D01*
X170687100Y-98244796D01*
X170618407Y-98232025D01*
X170567524Y-98184144D01*
X170550500Y-98121438D01*
X170550500Y-96562228D01*
X170570185Y-96495189D01*
X170586815Y-96474551D01*
X171389818Y-95671547D01*
X171451141Y-95638063D01*
X171520833Y-95643047D01*
X171565180Y-95671548D01*
X171601344Y-95707712D01*
X171750666Y-95799814D01*
X171917203Y-95854999D01*
X172019991Y-95865500D01*
X172820008Y-95865499D01*
X172820016Y-95865498D01*
X172820019Y-95865498D01*
X172876302Y-95859748D01*
X172922797Y-95854999D01*
X173089334Y-95799814D01*
X173238656Y-95707712D01*
X173362712Y-95583656D01*
X173454814Y-95434334D01*
X173509999Y-95267797D01*
X173520500Y-95165009D01*
X173520499Y-94292228D01*
X173540183Y-94225190D01*
X173556813Y-94204553D01*
X174674548Y-93086819D01*
X174735871Y-93053334D01*
X174762229Y-93050500D01*
X178715270Y-93050500D01*
X178782309Y-93070185D01*
X178802951Y-93086819D01*
X179980681Y-94264549D01*
X180014166Y-94325872D01*
X180017000Y-94352230D01*
X180017000Y-95240001D01*
X180017001Y-95240019D01*
X180027500Y-95342796D01*
X180027501Y-95342799D01*
X180082685Y-95509331D01*
X180082687Y-95509336D01*
X180117569Y-95565888D01*
X180174788Y-95658656D01*
X180298844Y-95782712D01*
X180448166Y-95874814D01*
X180614703Y-95929999D01*
X180717491Y-95940500D01*
X181517508Y-95940499D01*
X181517516Y-95940498D01*
X181517519Y-95940498D01*
X181573802Y-95934748D01*
X181620297Y-95929999D01*
X181786834Y-95874814D01*
X181936156Y-95782712D01*
X182060212Y-95658656D01*
X182152314Y-95509334D01*
X182207499Y-95342797D01*
X182218000Y-95240009D01*
X182217999Y-93439992D01*
X182207499Y-93337203D01*
X182152314Y-93170666D01*
X182060212Y-93021344D01*
X181936156Y-92897288D01*
X181786834Y-92805186D01*
X181620297Y-92750001D01*
X181620295Y-92750000D01*
X181517510Y-92739500D01*
X180717498Y-92739500D01*
X180717478Y-92739502D01*
X180649879Y-92746407D01*
X180581187Y-92733637D01*
X180549598Y-92710730D01*
X180450549Y-92611681D01*
X180417064Y-92550358D01*
X180422048Y-92480666D01*
X180463920Y-92424733D01*
X180529384Y-92400316D01*
X180538230Y-92400000D01*
X191876000Y-92400000D01*
X191943039Y-92419685D01*
G37*
G04 #@! TD.AperFunction*
G04 #@! TD*
M02*
