%TF.GenerationSoftware,KiCad,Pcbnew,9.0.7*%
%TF.CreationDate,2026-03-11T14:12:07+02:00*%
%TF.ProjectId,FlairControlCircuit,466c6169-7243-46f6-9e74-726f6c436972,rev?*%
%TF.SameCoordinates,Original*%
%TF.FileFunction,Drillmap*%
%TF.FilePolarity,Positive*%
%FSLAX45Y45*%
G04 Gerber Fmt 4.5, Leading zero omitted, Abs format (unit mm)*
G04 Created by KiCad (PCBNEW 9.0.7) date 2026-03-11 14:12:07*
%MOMM*%
%LPD*%
G01*
G04 APERTURE LIST*
%ADD10C,0.050000*%
%ADD11C,0.200000*%
%ADD12C,0.100000*%
%ADD13C,0.220000*%
G04 APERTURE END LIST*
D10*
X19400000Y-15550000D02*
X15900000Y-15550000D01*
X19350000Y-8350000D02*
G75*
G02*
X19750000Y-8750000I0J-400000D01*
G01*
X19750000Y-15200000D02*
G75*
G02*
X19400000Y-15550000I-350000J0D01*
G01*
X19750000Y-8750000D02*
X19750000Y-15200000D01*
X15550000Y-8750000D02*
G75*
G02*
X15950000Y-8350000I400000J0D01*
G01*
X15950000Y-8350000D02*
X19350000Y-8350000D01*
X15550000Y-15200000D02*
X15550000Y-8750000D01*
X15900000Y-15550000D02*
G75*
G02*
X15550000Y-15200000I0J350000D01*
G01*
D11*
D12*
X16135000Y-11145000D02*
X16165000Y-11175000D01*
X16165000Y-11145000D02*
X16135000Y-11175000D01*
X16135000Y-11655000D02*
X16165000Y-11685000D01*
X16165000Y-11655000D02*
X16135000Y-11685000D01*
X16135000Y-13430000D02*
X16165000Y-13460000D01*
X16165000Y-13430000D02*
X16135000Y-13460000D01*
X16135000Y-13630000D02*
X16165000Y-13660000D01*
X16165000Y-13630000D02*
X16135000Y-13660000D01*
X16135000Y-13830000D02*
X16165000Y-13860000D01*
X16165000Y-13830000D02*
X16135000Y-13860000D01*
X16135000Y-14030000D02*
X16165000Y-14060000D01*
X16165000Y-14030000D02*
X16135000Y-14060000D01*
X16135000Y-14230000D02*
X16165000Y-14260000D01*
X16165000Y-14230000D02*
X16135000Y-14260000D01*
X16175000Y-12265000D02*
X16205000Y-12295000D01*
X16205000Y-12265000D02*
X16175000Y-12295000D01*
X16235000Y-10375000D02*
X16265000Y-10405000D01*
X16265000Y-10375000D02*
X16235000Y-10405000D01*
X16305000Y-12375000D02*
X16335000Y-12405000D01*
X16335000Y-12375000D02*
X16305000Y-12405000D01*
X16335000Y-13430000D02*
X16365000Y-13460000D01*
X16365000Y-13430000D02*
X16335000Y-13460000D01*
X16335000Y-13630000D02*
X16365000Y-13660000D01*
X16365000Y-13630000D02*
X16335000Y-13660000D01*
X16335000Y-13830000D02*
X16365000Y-13860000D01*
X16365000Y-13830000D02*
X16335000Y-13860000D01*
X16335000Y-14030000D02*
X16365000Y-14060000D01*
X16365000Y-14030000D02*
X16335000Y-14060000D01*
X16335000Y-14230000D02*
X16365000Y-14260000D01*
X16365000Y-14230000D02*
X16335000Y-14260000D01*
X16345000Y-10375000D02*
X16375000Y-10405000D01*
X16375000Y-10375000D02*
X16345000Y-10405000D01*
X16515000Y-12415000D02*
X16545000Y-12445000D01*
X16545000Y-12415000D02*
X16515000Y-12445000D01*
X16535000Y-13430000D02*
X16565000Y-13460000D01*
X16565000Y-13430000D02*
X16535000Y-13460000D01*
X16535000Y-13630000D02*
X16565000Y-13660000D01*
X16565000Y-13630000D02*
X16535000Y-13660000D01*
X16535000Y-13830000D02*
X16565000Y-13860000D01*
X16565000Y-13830000D02*
X16535000Y-13860000D01*
X16535000Y-14030000D02*
X16565000Y-14060000D01*
X16565000Y-14030000D02*
X16535000Y-14060000D01*
X16535000Y-14230000D02*
X16565000Y-14260000D01*
X16565000Y-14230000D02*
X16535000Y-14260000D01*
X16615000Y-9365000D02*
X16645000Y-9395000D01*
X16645000Y-9365000D02*
X16615000Y-9395000D01*
X16735000Y-13430000D02*
X16765000Y-13460000D01*
X16765000Y-13430000D02*
X16735000Y-13460000D01*
X16735000Y-13630000D02*
X16765000Y-13660000D01*
X16765000Y-13630000D02*
X16735000Y-13660000D01*
X16735000Y-13830000D02*
X16765000Y-13860000D01*
X16765000Y-13830000D02*
X16735000Y-13860000D01*
X16735000Y-14030000D02*
X16765000Y-14060000D01*
X16765000Y-14030000D02*
X16735000Y-14060000D01*
X16735000Y-14230000D02*
X16765000Y-14260000D01*
X16765000Y-14230000D02*
X16735000Y-14260000D01*
X16875000Y-12965000D02*
X16905000Y-12995000D01*
X16905000Y-12965000D02*
X16875000Y-12995000D01*
X16875000Y-13055000D02*
X16905000Y-13085000D01*
X16905000Y-13055000D02*
X16875000Y-13085000D01*
X16935000Y-13430000D02*
X16965000Y-13460000D01*
X16965000Y-13430000D02*
X16935000Y-13460000D01*
X16935000Y-13630000D02*
X16965000Y-13660000D01*
X16965000Y-13630000D02*
X16935000Y-13660000D01*
X16935000Y-13830000D02*
X16965000Y-13860000D01*
X16965000Y-13830000D02*
X16935000Y-13860000D01*
X16935000Y-14030000D02*
X16965000Y-14060000D01*
X16965000Y-14030000D02*
X16935000Y-14060000D01*
X16935000Y-14230000D02*
X16965000Y-14260000D01*
X16965000Y-14230000D02*
X16935000Y-14260000D01*
X17165000Y-11765000D02*
X17195000Y-11795000D01*
X17195000Y-11765000D02*
X17165000Y-11795000D01*
X17165000Y-12005000D02*
X17195000Y-12035000D01*
X17195000Y-12005000D02*
X17165000Y-12035000D01*
X17205000Y-13125000D02*
X17235000Y-13155000D01*
X17235000Y-13125000D02*
X17205000Y-13155000D01*
X17245000Y-11495000D02*
X17275000Y-11525000D01*
X17275000Y-11495000D02*
X17245000Y-11525000D01*
X17275000Y-9835000D02*
X17305000Y-9865000D01*
X17305000Y-9835000D02*
X17275000Y-9865000D01*
X17285000Y-8585000D02*
X17315000Y-8615000D01*
X17315000Y-8585000D02*
X17285000Y-8615000D01*
X17285000Y-8685000D02*
X17315000Y-8715000D01*
X17315000Y-8685000D02*
X17285000Y-8715000D01*
X17285000Y-8785000D02*
X17315000Y-8815000D01*
X17315000Y-8785000D02*
X17285000Y-8815000D01*
X17285000Y-8885000D02*
X17315000Y-8915000D01*
X17315000Y-8885000D02*
X17285000Y-8915000D01*
X17285000Y-8985000D02*
X17315000Y-9015000D01*
X17315000Y-8985000D02*
X17285000Y-9015000D01*
X17335000Y-12985000D02*
X17365000Y-13015000D01*
X17365000Y-12985000D02*
X17335000Y-13015000D01*
X17385000Y-8585000D02*
X17415000Y-8615000D01*
X17415000Y-8585000D02*
X17385000Y-8615000D01*
X17385000Y-8685000D02*
X17415000Y-8715000D01*
X17415000Y-8685000D02*
X17385000Y-8715000D01*
X17385000Y-8785000D02*
X17415000Y-8815000D01*
X17415000Y-8785000D02*
X17385000Y-8815000D01*
X17385000Y-8885000D02*
X17415000Y-8915000D01*
X17415000Y-8885000D02*
X17385000Y-8915000D01*
X17385000Y-8985000D02*
X17415000Y-9015000D01*
X17415000Y-8985000D02*
X17385000Y-9015000D01*
X17425000Y-12525000D02*
X17455000Y-12555000D01*
X17455000Y-12525000D02*
X17425000Y-12555000D01*
X17425000Y-12625000D02*
X17455000Y-12655000D01*
X17455000Y-12625000D02*
X17425000Y-12655000D01*
X17465000Y-9355000D02*
X17495000Y-9385000D01*
X17495000Y-9355000D02*
X17465000Y-9385000D01*
X17465000Y-9455000D02*
X17495000Y-9485000D01*
X17495000Y-9455000D02*
X17465000Y-9485000D01*
X17465000Y-9555000D02*
X17495000Y-9585000D01*
X17495000Y-9555000D02*
X17465000Y-9585000D01*
X17465000Y-14855000D02*
X17495000Y-14885000D01*
X17495000Y-14855000D02*
X17465000Y-14885000D01*
X17465000Y-14935000D02*
X17495000Y-14965000D01*
X17495000Y-14935000D02*
X17465000Y-14965000D01*
X17485000Y-8585000D02*
X17515000Y-8615000D01*
X17515000Y-8585000D02*
X17485000Y-8615000D01*
X17485000Y-8685000D02*
X17515000Y-8715000D01*
X17515000Y-8685000D02*
X17485000Y-8715000D01*
X17485000Y-8785000D02*
X17515000Y-8815000D01*
X17515000Y-8785000D02*
X17485000Y-8815000D01*
X17485000Y-8885000D02*
X17515000Y-8915000D01*
X17515000Y-8885000D02*
X17485000Y-8915000D01*
X17485000Y-8985000D02*
X17515000Y-9015000D01*
X17515000Y-8985000D02*
X17485000Y-9015000D01*
X17515000Y-10065000D02*
X17545000Y-10095000D01*
X17545000Y-10065000D02*
X17515000Y-10095000D01*
X17555000Y-14855000D02*
X17585000Y-14885000D01*
X17585000Y-14855000D02*
X17555000Y-14885000D01*
X17555000Y-14935000D02*
X17585000Y-14965000D01*
X17585000Y-14935000D02*
X17555000Y-14965000D01*
X17565000Y-9355000D02*
X17595000Y-9385000D01*
X17595000Y-9355000D02*
X17565000Y-9385000D01*
X17565000Y-9455000D02*
X17595000Y-9485000D01*
X17595000Y-9455000D02*
X17565000Y-9485000D01*
X17565000Y-9555000D02*
X17595000Y-9585000D01*
X17595000Y-9555000D02*
X17565000Y-9585000D01*
X17575000Y-12755000D02*
X17605000Y-12785000D01*
X17605000Y-12755000D02*
X17575000Y-12785000D01*
X17585000Y-8585000D02*
X17615000Y-8615000D01*
X17615000Y-8585000D02*
X17585000Y-8615000D01*
X17585000Y-8685000D02*
X17615000Y-8715000D01*
X17615000Y-8685000D02*
X17585000Y-8715000D01*
X17585000Y-8785000D02*
X17615000Y-8815000D01*
X17615000Y-8785000D02*
X17585000Y-8815000D01*
X17585000Y-8885000D02*
X17615000Y-8915000D01*
X17615000Y-8885000D02*
X17585000Y-8915000D01*
X17585000Y-8985000D02*
X17615000Y-9015000D01*
X17615000Y-8985000D02*
X17585000Y-9015000D01*
X17685000Y-8585000D02*
X17715000Y-8615000D01*
X17715000Y-8585000D02*
X17685000Y-8615000D01*
X17685000Y-8685000D02*
X17715000Y-8715000D01*
X17715000Y-8685000D02*
X17685000Y-8715000D01*
X17685000Y-8785000D02*
X17715000Y-8815000D01*
X17715000Y-8785000D02*
X17685000Y-8815000D01*
X17685000Y-8885000D02*
X17715000Y-8915000D01*
X17715000Y-8885000D02*
X17685000Y-8915000D01*
X17685000Y-8985000D02*
X17715000Y-9015000D01*
X17715000Y-8985000D02*
X17685000Y-9015000D01*
X17695000Y-11065000D02*
X17725000Y-11095000D01*
X17725000Y-11065000D02*
X17695000Y-11095000D01*
X17805000Y-14845000D02*
X17835000Y-14875000D01*
X17835000Y-14845000D02*
X17805000Y-14875000D01*
X17805000Y-14925000D02*
X17835000Y-14955000D01*
X17835000Y-14925000D02*
X17805000Y-14955000D01*
X17825000Y-11185000D02*
X17855000Y-11215000D01*
X17855000Y-11185000D02*
X17825000Y-11215000D01*
X17825000Y-11445000D02*
X17855000Y-11475000D01*
X17855000Y-11445000D02*
X17825000Y-11475000D01*
X17905000Y-14845000D02*
X17935000Y-14875000D01*
X17935000Y-14845000D02*
X17905000Y-14875000D01*
X17905000Y-14925000D02*
X17935000Y-14955000D01*
X17935000Y-14925000D02*
X17905000Y-14955000D01*
X18005000Y-14405000D02*
X18035000Y-14435000D01*
X18035000Y-14405000D02*
X18005000Y-14435000D01*
X18005000Y-14535000D02*
X18035000Y-14565000D01*
X18035000Y-14535000D02*
X18005000Y-14565000D01*
X18025000Y-11535000D02*
X18055000Y-11565000D01*
X18055000Y-11535000D02*
X18025000Y-11565000D01*
X18115000Y-8575000D02*
X18145000Y-8605000D01*
X18145000Y-8575000D02*
X18115000Y-8605000D01*
X18115000Y-8675000D02*
X18145000Y-8705000D01*
X18145000Y-8675000D02*
X18115000Y-8705000D01*
X18115000Y-8775000D02*
X18145000Y-8805000D01*
X18145000Y-8775000D02*
X18115000Y-8805000D01*
X18115000Y-8875000D02*
X18145000Y-8905000D01*
X18145000Y-8875000D02*
X18115000Y-8905000D01*
X18115000Y-8975000D02*
X18145000Y-9005000D01*
X18145000Y-8975000D02*
X18115000Y-9005000D01*
X18215000Y-8575000D02*
X18245000Y-8605000D01*
X18245000Y-8575000D02*
X18215000Y-8605000D01*
X18215000Y-8675000D02*
X18245000Y-8705000D01*
X18245000Y-8675000D02*
X18215000Y-8705000D01*
X18215000Y-8775000D02*
X18245000Y-8805000D01*
X18245000Y-8775000D02*
X18215000Y-8805000D01*
X18215000Y-8875000D02*
X18245000Y-8905000D01*
X18245000Y-8875000D02*
X18215000Y-8905000D01*
X18215000Y-8975000D02*
X18245000Y-9005000D01*
X18245000Y-8975000D02*
X18215000Y-9005000D01*
X18315000Y-8575000D02*
X18345000Y-8605000D01*
X18345000Y-8575000D02*
X18315000Y-8605000D01*
X18315000Y-8675000D02*
X18345000Y-8705000D01*
X18345000Y-8675000D02*
X18315000Y-8705000D01*
X18315000Y-8775000D02*
X18345000Y-8805000D01*
X18345000Y-8775000D02*
X18315000Y-8805000D01*
X18315000Y-8875000D02*
X18345000Y-8905000D01*
X18345000Y-8875000D02*
X18315000Y-8905000D01*
X18315000Y-8975000D02*
X18345000Y-9005000D01*
X18345000Y-8975000D02*
X18315000Y-9005000D01*
X18325000Y-9345000D02*
X18355000Y-9375000D01*
X18355000Y-9345000D02*
X18325000Y-9375000D01*
X18325000Y-9455000D02*
X18355000Y-9485000D01*
X18355000Y-9455000D02*
X18325000Y-9485000D01*
X18325000Y-9565000D02*
X18355000Y-9595000D01*
X18355000Y-9565000D02*
X18325000Y-9595000D01*
X18415000Y-8575000D02*
X18445000Y-8605000D01*
X18445000Y-8575000D02*
X18415000Y-8605000D01*
X18415000Y-8675000D02*
X18445000Y-8705000D01*
X18445000Y-8675000D02*
X18415000Y-8705000D01*
X18415000Y-8775000D02*
X18445000Y-8805000D01*
X18445000Y-8775000D02*
X18415000Y-8805000D01*
X18415000Y-8875000D02*
X18445000Y-8905000D01*
X18445000Y-8875000D02*
X18415000Y-8905000D01*
X18415000Y-8975000D02*
X18445000Y-9005000D01*
X18445000Y-8975000D02*
X18415000Y-9005000D01*
X18425000Y-9345000D02*
X18455000Y-9375000D01*
X18455000Y-9345000D02*
X18425000Y-9375000D01*
X18425000Y-9455000D02*
X18455000Y-9485000D01*
X18455000Y-9455000D02*
X18425000Y-9485000D01*
X18425000Y-9565000D02*
X18455000Y-9595000D01*
X18455000Y-9565000D02*
X18425000Y-9595000D01*
X18445000Y-11975000D02*
X18475000Y-12005000D01*
X18475000Y-11975000D02*
X18445000Y-12005000D01*
X18465000Y-10515000D02*
X18495000Y-10545000D01*
X18495000Y-10515000D02*
X18465000Y-10545000D01*
X18515000Y-8575000D02*
X18545000Y-8605000D01*
X18545000Y-8575000D02*
X18515000Y-8605000D01*
X18515000Y-8675000D02*
X18545000Y-8705000D01*
X18545000Y-8675000D02*
X18515000Y-8705000D01*
X18515000Y-8775000D02*
X18545000Y-8805000D01*
X18545000Y-8775000D02*
X18515000Y-8805000D01*
X18515000Y-8875000D02*
X18545000Y-8905000D01*
X18545000Y-8875000D02*
X18515000Y-8905000D01*
X18515000Y-8975000D02*
X18545000Y-9005000D01*
X18545000Y-8975000D02*
X18515000Y-9005000D01*
X18565000Y-10515000D02*
X18595000Y-10545000D01*
X18595000Y-10515000D02*
X18565000Y-10545000D01*
X18635000Y-11915000D02*
X18665000Y-11945000D01*
X18665000Y-11915000D02*
X18635000Y-11945000D01*
X18665000Y-12875000D02*
X18695000Y-12905000D01*
X18695000Y-12875000D02*
X18665000Y-12905000D01*
X18665000Y-12965000D02*
X18695000Y-12995000D01*
X18695000Y-12965000D02*
X18665000Y-12995000D01*
X18785000Y-11015000D02*
X18815000Y-11045000D01*
X18815000Y-11015000D02*
X18785000Y-11045000D01*
X18855000Y-11315000D02*
X18885000Y-11345000D01*
X18885000Y-11315000D02*
X18855000Y-11345000D01*
X18885000Y-10115000D02*
X18915000Y-10145000D01*
X18915000Y-10115000D02*
X18885000Y-10145000D01*
X18885000Y-10245000D02*
X18915000Y-10275000D01*
X18915000Y-10245000D02*
X18885000Y-10275000D01*
X19025000Y-11965000D02*
X19055000Y-11995000D01*
X19055000Y-11965000D02*
X19025000Y-11995000D01*
X19225000Y-11545000D02*
X19255000Y-11575000D01*
X19255000Y-11545000D02*
X19225000Y-11575000D01*
X17658238Y-12550000D02*
G75*
G02*
X17578238Y-12550000I-40000J0D01*
G01*
X17578238Y-12550000D02*
G75*
G02*
X17658238Y-12550000I40000J0D01*
G01*
X17908238Y-12550000D02*
G75*
G02*
X17828238Y-12550000I-40000J0D01*
G01*
X17828238Y-12550000D02*
G75*
G02*
X17908238Y-12550000I40000J0D01*
G01*
X16300000Y-9908000D02*
X16300000Y-9998000D01*
X16255000Y-9953000D02*
X16345000Y-9953000D01*
X16300000Y-10162000D02*
X16300000Y-10252000D01*
X16255000Y-10207000D02*
X16345000Y-10207000D01*
X17705000Y-9908000D02*
X17705000Y-9998000D01*
X17660000Y-9953000D02*
X17750000Y-9953000D01*
X17705000Y-10162000D02*
X17705000Y-10252000D01*
X17660000Y-10207000D02*
X17750000Y-10207000D01*
X19110000Y-9908000D02*
X19110000Y-9998000D01*
X19065000Y-9953000D02*
X19155000Y-9953000D01*
X19110000Y-10162000D02*
X19110000Y-10252000D01*
X19065000Y-10207000D02*
X19155000Y-10207000D01*
X16351356Y-11067356D02*
X16351356Y-10996644D01*
X16280644Y-10996644D01*
X16280644Y-11067356D01*
X16351356Y-11067356D01*
X16351356Y-11321356D02*
X16351356Y-11250644D01*
X16280644Y-11250644D01*
X16280644Y-11321356D01*
X16351356Y-11321356D01*
X16351356Y-11575356D02*
X16351356Y-11504644D01*
X16280644Y-11504644D01*
X16280644Y-11575356D01*
X16351356Y-11575356D01*
X16351356Y-11829356D02*
X16351356Y-11758644D01*
X16280644Y-11758644D01*
X16280644Y-11829356D01*
X16351356Y-11829356D01*
X16351356Y-12083356D02*
X16351356Y-12012644D01*
X16280644Y-12012644D01*
X16280644Y-12083356D01*
X16351356Y-12083356D01*
X16605356Y-11067356D02*
X16605356Y-10996644D01*
X16534644Y-10996644D01*
X16534644Y-11067356D01*
X16605356Y-11067356D01*
X16605356Y-11321356D02*
X16605356Y-11250644D01*
X16534644Y-11250644D01*
X16534644Y-11321356D01*
X16605356Y-11321356D01*
X16605356Y-11575356D02*
X16605356Y-11504644D01*
X16534644Y-11504644D01*
X16534644Y-11575356D01*
X16605356Y-11575356D01*
X16605356Y-11829356D02*
X16605356Y-11758644D01*
X16534644Y-11758644D01*
X16534644Y-11829356D01*
X16605356Y-11829356D01*
X16605356Y-12083356D02*
X16605356Y-12012644D01*
X16534644Y-12012644D01*
X16534644Y-12083356D01*
X16605356Y-12083356D01*
X19085356Y-11435356D02*
X19085356Y-11364644D01*
X19014644Y-11364644D01*
X19014644Y-11435356D01*
X19085356Y-11435356D01*
X19085356Y-12195356D02*
X19085356Y-12124644D01*
X19014644Y-12124644D01*
X19014644Y-12195356D01*
X19085356Y-12195356D01*
X19355356Y-12671356D02*
X19355356Y-12600644D01*
X19284644Y-12600644D01*
X19284644Y-12671356D01*
X19355356Y-12671356D01*
X19355356Y-12925356D02*
X19355356Y-12854644D01*
X19284644Y-12854644D01*
X19284644Y-12925356D01*
X19355356Y-12925356D01*
D13*
X16030000Y-15270000D02*
X16140000Y-15160000D01*
X16030000Y-15050000D01*
X15920000Y-15160000D01*
X16030000Y-15270000D01*
X16590000Y-8790000D02*
X16700000Y-8680000D01*
X16590000Y-8570000D01*
X16480000Y-8680000D01*
X16590000Y-8790000D01*
X17700000Y-15290000D02*
X17810000Y-15180000D01*
X17700000Y-15070000D01*
X17590000Y-15180000D01*
X17700000Y-15290000D01*
X18940000Y-9520000D02*
X19050000Y-9410000D01*
X18940000Y-9300000D01*
X18830000Y-9410000D01*
X18940000Y-9520000D01*
X18950000Y-8790000D02*
X19060000Y-8680000D01*
X18950000Y-8570000D01*
X18840000Y-8680000D01*
X18950000Y-8790000D01*
X19490000Y-9540000D02*
X19600000Y-9430000D01*
X19490000Y-9320000D01*
X19380000Y-9430000D01*
X19490000Y-9540000D01*
D11*
X15808277Y-15863984D02*
X15808277Y-15663984D01*
X15808277Y-15663984D02*
X15855896Y-15663984D01*
X15855896Y-15663984D02*
X15884467Y-15673508D01*
X15884467Y-15673508D02*
X15903515Y-15692555D01*
X15903515Y-15692555D02*
X15913039Y-15711603D01*
X15913039Y-15711603D02*
X15922562Y-15749698D01*
X15922562Y-15749698D02*
X15922562Y-15778269D01*
X15922562Y-15778269D02*
X15913039Y-15816365D01*
X15913039Y-15816365D02*
X15903515Y-15835412D01*
X15903515Y-15835412D02*
X15884467Y-15854460D01*
X15884467Y-15854460D02*
X15855896Y-15863984D01*
X15855896Y-15863984D02*
X15808277Y-15863984D01*
X16008277Y-15863984D02*
X16008277Y-15730650D01*
X16008277Y-15768746D02*
X16017801Y-15749698D01*
X16017801Y-15749698D02*
X16027324Y-15740174D01*
X16027324Y-15740174D02*
X16046372Y-15730650D01*
X16046372Y-15730650D02*
X16065420Y-15730650D01*
X16132086Y-15863984D02*
X16132086Y-15730650D01*
X16132086Y-15663984D02*
X16122562Y-15673508D01*
X16122562Y-15673508D02*
X16132086Y-15683031D01*
X16132086Y-15683031D02*
X16141610Y-15673508D01*
X16141610Y-15673508D02*
X16132086Y-15663984D01*
X16132086Y-15663984D02*
X16132086Y-15683031D01*
X16255896Y-15863984D02*
X16236848Y-15854460D01*
X16236848Y-15854460D02*
X16227324Y-15835412D01*
X16227324Y-15835412D02*
X16227324Y-15663984D01*
X16360658Y-15863984D02*
X16341610Y-15854460D01*
X16341610Y-15854460D02*
X16332086Y-15835412D01*
X16332086Y-15835412D02*
X16332086Y-15663984D01*
X16589229Y-15863984D02*
X16589229Y-15663984D01*
X16589229Y-15663984D02*
X16655896Y-15806841D01*
X16655896Y-15806841D02*
X16722562Y-15663984D01*
X16722562Y-15663984D02*
X16722562Y-15863984D01*
X16903515Y-15863984D02*
X16903515Y-15759222D01*
X16903515Y-15759222D02*
X16893991Y-15740174D01*
X16893991Y-15740174D02*
X16874944Y-15730650D01*
X16874944Y-15730650D02*
X16836848Y-15730650D01*
X16836848Y-15730650D02*
X16817801Y-15740174D01*
X16903515Y-15854460D02*
X16884467Y-15863984D01*
X16884467Y-15863984D02*
X16836848Y-15863984D01*
X16836848Y-15863984D02*
X16817801Y-15854460D01*
X16817801Y-15854460D02*
X16808277Y-15835412D01*
X16808277Y-15835412D02*
X16808277Y-15816365D01*
X16808277Y-15816365D02*
X16817801Y-15797317D01*
X16817801Y-15797317D02*
X16836848Y-15787793D01*
X16836848Y-15787793D02*
X16884467Y-15787793D01*
X16884467Y-15787793D02*
X16903515Y-15778269D01*
X16998753Y-15730650D02*
X16998753Y-15930650D01*
X16998753Y-15740174D02*
X17017801Y-15730650D01*
X17017801Y-15730650D02*
X17055896Y-15730650D01*
X17055896Y-15730650D02*
X17074944Y-15740174D01*
X17074944Y-15740174D02*
X17084467Y-15749698D01*
X17084467Y-15749698D02*
X17093991Y-15768746D01*
X17093991Y-15768746D02*
X17093991Y-15825888D01*
X17093991Y-15825888D02*
X17084467Y-15844936D01*
X17084467Y-15844936D02*
X17074944Y-15854460D01*
X17074944Y-15854460D02*
X17055896Y-15863984D01*
X17055896Y-15863984D02*
X17017801Y-15863984D01*
X17017801Y-15863984D02*
X16998753Y-15854460D01*
X17179705Y-15844936D02*
X17189229Y-15854460D01*
X17189229Y-15854460D02*
X17179705Y-15863984D01*
X17179705Y-15863984D02*
X17170182Y-15854460D01*
X17170182Y-15854460D02*
X17179705Y-15844936D01*
X17179705Y-15844936D02*
X17179705Y-15863984D01*
X17179705Y-15740174D02*
X17189229Y-15749698D01*
X17189229Y-15749698D02*
X17179705Y-15759222D01*
X17179705Y-15759222D02*
X17170182Y-15749698D01*
X17170182Y-15749698D02*
X17179705Y-15740174D01*
X17179705Y-15740174D02*
X17179705Y-15759222D01*
D12*
X15517500Y-16177500D02*
X15547500Y-16207500D01*
X15547500Y-16177500D02*
X15517500Y-16207500D01*
D11*
X15846372Y-16083984D02*
X15865420Y-16083984D01*
X15865420Y-16083984D02*
X15884467Y-16093508D01*
X15884467Y-16093508D02*
X15893991Y-16103031D01*
X15893991Y-16103031D02*
X15903515Y-16122079D01*
X15903515Y-16122079D02*
X15913039Y-16160174D01*
X15913039Y-16160174D02*
X15913039Y-16207793D01*
X15913039Y-16207793D02*
X15903515Y-16245888D01*
X15903515Y-16245888D02*
X15893991Y-16264936D01*
X15893991Y-16264936D02*
X15884467Y-16274460D01*
X15884467Y-16274460D02*
X15865420Y-16283984D01*
X15865420Y-16283984D02*
X15846372Y-16283984D01*
X15846372Y-16283984D02*
X15827324Y-16274460D01*
X15827324Y-16274460D02*
X15817801Y-16264936D01*
X15817801Y-16264936D02*
X15808277Y-16245888D01*
X15808277Y-16245888D02*
X15798753Y-16207793D01*
X15798753Y-16207793D02*
X15798753Y-16160174D01*
X15798753Y-16160174D02*
X15808277Y-16122079D01*
X15808277Y-16122079D02*
X15817801Y-16103031D01*
X15817801Y-16103031D02*
X15827324Y-16093508D01*
X15827324Y-16093508D02*
X15846372Y-16083984D01*
X15998753Y-16264936D02*
X16008277Y-16274460D01*
X16008277Y-16274460D02*
X15998753Y-16283984D01*
X15998753Y-16283984D02*
X15989229Y-16274460D01*
X15989229Y-16274460D02*
X15998753Y-16264936D01*
X15998753Y-16264936D02*
X15998753Y-16283984D01*
X16074943Y-16083984D02*
X16198753Y-16083984D01*
X16198753Y-16083984D02*
X16132086Y-16160174D01*
X16132086Y-16160174D02*
X16160658Y-16160174D01*
X16160658Y-16160174D02*
X16179705Y-16169698D01*
X16179705Y-16169698D02*
X16189229Y-16179222D01*
X16189229Y-16179222D02*
X16198753Y-16198269D01*
X16198753Y-16198269D02*
X16198753Y-16245888D01*
X16198753Y-16245888D02*
X16189229Y-16264936D01*
X16189229Y-16264936D02*
X16179705Y-16274460D01*
X16179705Y-16274460D02*
X16160658Y-16283984D01*
X16160658Y-16283984D02*
X16103515Y-16283984D01*
X16103515Y-16283984D02*
X16084467Y-16274460D01*
X16084467Y-16274460D02*
X16074943Y-16264936D01*
X16322562Y-16083984D02*
X16341610Y-16083984D01*
X16341610Y-16083984D02*
X16360658Y-16093508D01*
X16360658Y-16093508D02*
X16370182Y-16103031D01*
X16370182Y-16103031D02*
X16379705Y-16122079D01*
X16379705Y-16122079D02*
X16389229Y-16160174D01*
X16389229Y-16160174D02*
X16389229Y-16207793D01*
X16389229Y-16207793D02*
X16379705Y-16245888D01*
X16379705Y-16245888D02*
X16370182Y-16264936D01*
X16370182Y-16264936D02*
X16360658Y-16274460D01*
X16360658Y-16274460D02*
X16341610Y-16283984D01*
X16341610Y-16283984D02*
X16322562Y-16283984D01*
X16322562Y-16283984D02*
X16303515Y-16274460D01*
X16303515Y-16274460D02*
X16293991Y-16264936D01*
X16293991Y-16264936D02*
X16284467Y-16245888D01*
X16284467Y-16245888D02*
X16274943Y-16207793D01*
X16274943Y-16207793D02*
X16274943Y-16160174D01*
X16274943Y-16160174D02*
X16284467Y-16122079D01*
X16284467Y-16122079D02*
X16293991Y-16103031D01*
X16293991Y-16103031D02*
X16303515Y-16093508D01*
X16303515Y-16093508D02*
X16322562Y-16083984D01*
X16513039Y-16083984D02*
X16532086Y-16083984D01*
X16532086Y-16083984D02*
X16551134Y-16093508D01*
X16551134Y-16093508D02*
X16560658Y-16103031D01*
X16560658Y-16103031D02*
X16570182Y-16122079D01*
X16570182Y-16122079D02*
X16579705Y-16160174D01*
X16579705Y-16160174D02*
X16579705Y-16207793D01*
X16579705Y-16207793D02*
X16570182Y-16245888D01*
X16570182Y-16245888D02*
X16560658Y-16264936D01*
X16560658Y-16264936D02*
X16551134Y-16274460D01*
X16551134Y-16274460D02*
X16532086Y-16283984D01*
X16532086Y-16283984D02*
X16513039Y-16283984D01*
X16513039Y-16283984D02*
X16493991Y-16274460D01*
X16493991Y-16274460D02*
X16484467Y-16264936D01*
X16484467Y-16264936D02*
X16474943Y-16245888D01*
X16474943Y-16245888D02*
X16465420Y-16207793D01*
X16465420Y-16207793D02*
X16465420Y-16160174D01*
X16465420Y-16160174D02*
X16474943Y-16122079D01*
X16474943Y-16122079D02*
X16484467Y-16103031D01*
X16484467Y-16103031D02*
X16493991Y-16093508D01*
X16493991Y-16093508D02*
X16513039Y-16083984D01*
X16665420Y-16283984D02*
X16665420Y-16150650D01*
X16665420Y-16169698D02*
X16674943Y-16160174D01*
X16674943Y-16160174D02*
X16693991Y-16150650D01*
X16693991Y-16150650D02*
X16722563Y-16150650D01*
X16722563Y-16150650D02*
X16741610Y-16160174D01*
X16741610Y-16160174D02*
X16751134Y-16179222D01*
X16751134Y-16179222D02*
X16751134Y-16283984D01*
X16751134Y-16179222D02*
X16760658Y-16160174D01*
X16760658Y-16160174D02*
X16779705Y-16150650D01*
X16779705Y-16150650D02*
X16808277Y-16150650D01*
X16808277Y-16150650D02*
X16827325Y-16160174D01*
X16827325Y-16160174D02*
X16836848Y-16179222D01*
X16836848Y-16179222D02*
X16836848Y-16283984D01*
X16932086Y-16283984D02*
X16932086Y-16150650D01*
X16932086Y-16169698D02*
X16941610Y-16160174D01*
X16941610Y-16160174D02*
X16960658Y-16150650D01*
X16960658Y-16150650D02*
X16989229Y-16150650D01*
X16989229Y-16150650D02*
X17008277Y-16160174D01*
X17008277Y-16160174D02*
X17017801Y-16179222D01*
X17017801Y-16179222D02*
X17017801Y-16283984D01*
X17017801Y-16179222D02*
X17027325Y-16160174D01*
X17027325Y-16160174D02*
X17046372Y-16150650D01*
X17046372Y-16150650D02*
X17074944Y-16150650D01*
X17074944Y-16150650D02*
X17093991Y-16160174D01*
X17093991Y-16160174D02*
X17103515Y-16179222D01*
X17103515Y-16179222D02*
X17103515Y-16283984D01*
X17493991Y-16074460D02*
X17322563Y-16331603D01*
X17751134Y-16083984D02*
X17770182Y-16083984D01*
X17770182Y-16083984D02*
X17789229Y-16093508D01*
X17789229Y-16093508D02*
X17798753Y-16103031D01*
X17798753Y-16103031D02*
X17808277Y-16122079D01*
X17808277Y-16122079D02*
X17817801Y-16160174D01*
X17817801Y-16160174D02*
X17817801Y-16207793D01*
X17817801Y-16207793D02*
X17808277Y-16245888D01*
X17808277Y-16245888D02*
X17798753Y-16264936D01*
X17798753Y-16264936D02*
X17789229Y-16274460D01*
X17789229Y-16274460D02*
X17770182Y-16283984D01*
X17770182Y-16283984D02*
X17751134Y-16283984D01*
X17751134Y-16283984D02*
X17732087Y-16274460D01*
X17732087Y-16274460D02*
X17722563Y-16264936D01*
X17722563Y-16264936D02*
X17713039Y-16245888D01*
X17713039Y-16245888D02*
X17703515Y-16207793D01*
X17703515Y-16207793D02*
X17703515Y-16160174D01*
X17703515Y-16160174D02*
X17713039Y-16122079D01*
X17713039Y-16122079D02*
X17722563Y-16103031D01*
X17722563Y-16103031D02*
X17732087Y-16093508D01*
X17732087Y-16093508D02*
X17751134Y-16083984D01*
X17903515Y-16264936D02*
X17913039Y-16274460D01*
X17913039Y-16274460D02*
X17903515Y-16283984D01*
X17903515Y-16283984D02*
X17893991Y-16274460D01*
X17893991Y-16274460D02*
X17903515Y-16264936D01*
X17903515Y-16264936D02*
X17903515Y-16283984D01*
X18036848Y-16083984D02*
X18055896Y-16083984D01*
X18055896Y-16083984D02*
X18074944Y-16093508D01*
X18074944Y-16093508D02*
X18084468Y-16103031D01*
X18084468Y-16103031D02*
X18093991Y-16122079D01*
X18093991Y-16122079D02*
X18103515Y-16160174D01*
X18103515Y-16160174D02*
X18103515Y-16207793D01*
X18103515Y-16207793D02*
X18093991Y-16245888D01*
X18093991Y-16245888D02*
X18084468Y-16264936D01*
X18084468Y-16264936D02*
X18074944Y-16274460D01*
X18074944Y-16274460D02*
X18055896Y-16283984D01*
X18055896Y-16283984D02*
X18036848Y-16283984D01*
X18036848Y-16283984D02*
X18017801Y-16274460D01*
X18017801Y-16274460D02*
X18008277Y-16264936D01*
X18008277Y-16264936D02*
X17998753Y-16245888D01*
X17998753Y-16245888D02*
X17989229Y-16207793D01*
X17989229Y-16207793D02*
X17989229Y-16160174D01*
X17989229Y-16160174D02*
X17998753Y-16122079D01*
X17998753Y-16122079D02*
X18008277Y-16103031D01*
X18008277Y-16103031D02*
X18017801Y-16093508D01*
X18017801Y-16093508D02*
X18036848Y-16083984D01*
X18293991Y-16283984D02*
X18179706Y-16283984D01*
X18236848Y-16283984D02*
X18236848Y-16083984D01*
X18236848Y-16083984D02*
X18217801Y-16112555D01*
X18217801Y-16112555D02*
X18198753Y-16131603D01*
X18198753Y-16131603D02*
X18179706Y-16141127D01*
X18484468Y-16283984D02*
X18370182Y-16283984D01*
X18427325Y-16283984D02*
X18427325Y-16083984D01*
X18427325Y-16083984D02*
X18408277Y-16112555D01*
X18408277Y-16112555D02*
X18389229Y-16131603D01*
X18389229Y-16131603D02*
X18370182Y-16141127D01*
X18598753Y-16169698D02*
X18579706Y-16160174D01*
X18579706Y-16160174D02*
X18570182Y-16150650D01*
X18570182Y-16150650D02*
X18560658Y-16131603D01*
X18560658Y-16131603D02*
X18560658Y-16122079D01*
X18560658Y-16122079D02*
X18570182Y-16103031D01*
X18570182Y-16103031D02*
X18579706Y-16093508D01*
X18579706Y-16093508D02*
X18598753Y-16083984D01*
X18598753Y-16083984D02*
X18636849Y-16083984D01*
X18636849Y-16083984D02*
X18655896Y-16093508D01*
X18655896Y-16093508D02*
X18665420Y-16103031D01*
X18665420Y-16103031D02*
X18674944Y-16122079D01*
X18674944Y-16122079D02*
X18674944Y-16131603D01*
X18674944Y-16131603D02*
X18665420Y-16150650D01*
X18665420Y-16150650D02*
X18655896Y-16160174D01*
X18655896Y-16160174D02*
X18636849Y-16169698D01*
X18636849Y-16169698D02*
X18598753Y-16169698D01*
X18598753Y-16169698D02*
X18579706Y-16179222D01*
X18579706Y-16179222D02*
X18570182Y-16188746D01*
X18570182Y-16188746D02*
X18560658Y-16207793D01*
X18560658Y-16207793D02*
X18560658Y-16245888D01*
X18560658Y-16245888D02*
X18570182Y-16264936D01*
X18570182Y-16264936D02*
X18579706Y-16274460D01*
X18579706Y-16274460D02*
X18598753Y-16283984D01*
X18598753Y-16283984D02*
X18636849Y-16283984D01*
X18636849Y-16283984D02*
X18655896Y-16274460D01*
X18655896Y-16274460D02*
X18665420Y-16264936D01*
X18665420Y-16264936D02*
X18674944Y-16245888D01*
X18674944Y-16245888D02*
X18674944Y-16207793D01*
X18674944Y-16207793D02*
X18665420Y-16188746D01*
X18665420Y-16188746D02*
X18655896Y-16179222D01*
X18655896Y-16179222D02*
X18636849Y-16169698D01*
X18751134Y-16083984D02*
X18751134Y-16122079D01*
X18827325Y-16083984D02*
X18827325Y-16122079D01*
X19122563Y-16360174D02*
X19113039Y-16350650D01*
X19113039Y-16350650D02*
X19093991Y-16322079D01*
X19093991Y-16322079D02*
X19084468Y-16303031D01*
X19084468Y-16303031D02*
X19074944Y-16274460D01*
X19074944Y-16274460D02*
X19065420Y-16226841D01*
X19065420Y-16226841D02*
X19065420Y-16188746D01*
X19065420Y-16188746D02*
X19074944Y-16141127D01*
X19074944Y-16141127D02*
X19084468Y-16112555D01*
X19084468Y-16112555D02*
X19093991Y-16093508D01*
X19093991Y-16093508D02*
X19113039Y-16064936D01*
X19113039Y-16064936D02*
X19122563Y-16055412D01*
X19303515Y-16283984D02*
X19189230Y-16283984D01*
X19246372Y-16283984D02*
X19246372Y-16083984D01*
X19246372Y-16083984D02*
X19227325Y-16112555D01*
X19227325Y-16112555D02*
X19208277Y-16131603D01*
X19208277Y-16131603D02*
X19189230Y-16141127D01*
X19370182Y-16083984D02*
X19493991Y-16083984D01*
X19493991Y-16083984D02*
X19427325Y-16160174D01*
X19427325Y-16160174D02*
X19455896Y-16160174D01*
X19455896Y-16160174D02*
X19474944Y-16169698D01*
X19474944Y-16169698D02*
X19484468Y-16179222D01*
X19484468Y-16179222D02*
X19493991Y-16198269D01*
X19493991Y-16198269D02*
X19493991Y-16245888D01*
X19493991Y-16245888D02*
X19484468Y-16264936D01*
X19484468Y-16264936D02*
X19474944Y-16274460D01*
X19474944Y-16274460D02*
X19455896Y-16283984D01*
X19455896Y-16283984D02*
X19398753Y-16283984D01*
X19398753Y-16283984D02*
X19379706Y-16274460D01*
X19379706Y-16274460D02*
X19370182Y-16264936D01*
X19560658Y-16083984D02*
X19684468Y-16083984D01*
X19684468Y-16083984D02*
X19617801Y-16160174D01*
X19617801Y-16160174D02*
X19646372Y-16160174D01*
X19646372Y-16160174D02*
X19665420Y-16169698D01*
X19665420Y-16169698D02*
X19674944Y-16179222D01*
X19674944Y-16179222D02*
X19684468Y-16198269D01*
X19684468Y-16198269D02*
X19684468Y-16245888D01*
X19684468Y-16245888D02*
X19674944Y-16264936D01*
X19674944Y-16264936D02*
X19665420Y-16274460D01*
X19665420Y-16274460D02*
X19646372Y-16283984D01*
X19646372Y-16283984D02*
X19589230Y-16283984D01*
X19589230Y-16283984D02*
X19570182Y-16274460D01*
X19570182Y-16274460D02*
X19560658Y-16264936D01*
X19922563Y-16283984D02*
X19922563Y-16083984D01*
X20008277Y-16283984D02*
X20008277Y-16179222D01*
X20008277Y-16179222D02*
X19998753Y-16160174D01*
X19998753Y-16160174D02*
X19979706Y-16150650D01*
X19979706Y-16150650D02*
X19951134Y-16150650D01*
X19951134Y-16150650D02*
X19932087Y-16160174D01*
X19932087Y-16160174D02*
X19922563Y-16169698D01*
X20132087Y-16283984D02*
X20113039Y-16274460D01*
X20113039Y-16274460D02*
X20103515Y-16264936D01*
X20103515Y-16264936D02*
X20093992Y-16245888D01*
X20093992Y-16245888D02*
X20093992Y-16188746D01*
X20093992Y-16188746D02*
X20103515Y-16169698D01*
X20103515Y-16169698D02*
X20113039Y-16160174D01*
X20113039Y-16160174D02*
X20132087Y-16150650D01*
X20132087Y-16150650D02*
X20160658Y-16150650D01*
X20160658Y-16150650D02*
X20179706Y-16160174D01*
X20179706Y-16160174D02*
X20189230Y-16169698D01*
X20189230Y-16169698D02*
X20198753Y-16188746D01*
X20198753Y-16188746D02*
X20198753Y-16245888D01*
X20198753Y-16245888D02*
X20189230Y-16264936D01*
X20189230Y-16264936D02*
X20179706Y-16274460D01*
X20179706Y-16274460D02*
X20160658Y-16283984D01*
X20160658Y-16283984D02*
X20132087Y-16283984D01*
X20313039Y-16283984D02*
X20293992Y-16274460D01*
X20293992Y-16274460D02*
X20284468Y-16255412D01*
X20284468Y-16255412D02*
X20284468Y-16083984D01*
X20465420Y-16274460D02*
X20446373Y-16283984D01*
X20446373Y-16283984D02*
X20408277Y-16283984D01*
X20408277Y-16283984D02*
X20389230Y-16274460D01*
X20389230Y-16274460D02*
X20379706Y-16255412D01*
X20379706Y-16255412D02*
X20379706Y-16179222D01*
X20379706Y-16179222D02*
X20389230Y-16160174D01*
X20389230Y-16160174D02*
X20408277Y-16150650D01*
X20408277Y-16150650D02*
X20446373Y-16150650D01*
X20446373Y-16150650D02*
X20465420Y-16160174D01*
X20465420Y-16160174D02*
X20474944Y-16179222D01*
X20474944Y-16179222D02*
X20474944Y-16198269D01*
X20474944Y-16198269D02*
X20379706Y-16217317D01*
X20551134Y-16274460D02*
X20570182Y-16283984D01*
X20570182Y-16283984D02*
X20608277Y-16283984D01*
X20608277Y-16283984D02*
X20627325Y-16274460D01*
X20627325Y-16274460D02*
X20636849Y-16255412D01*
X20636849Y-16255412D02*
X20636849Y-16245888D01*
X20636849Y-16245888D02*
X20627325Y-16226841D01*
X20627325Y-16226841D02*
X20608277Y-16217317D01*
X20608277Y-16217317D02*
X20579706Y-16217317D01*
X20579706Y-16217317D02*
X20560658Y-16207793D01*
X20560658Y-16207793D02*
X20551134Y-16188746D01*
X20551134Y-16188746D02*
X20551134Y-16179222D01*
X20551134Y-16179222D02*
X20560658Y-16160174D01*
X20560658Y-16160174D02*
X20579706Y-16150650D01*
X20579706Y-16150650D02*
X20608277Y-16150650D01*
X20608277Y-16150650D02*
X20627325Y-16160174D01*
X20703515Y-16360174D02*
X20713039Y-16350650D01*
X20713039Y-16350650D02*
X20732087Y-16322079D01*
X20732087Y-16322079D02*
X20741611Y-16303031D01*
X20741611Y-16303031D02*
X20751134Y-16274460D01*
X20751134Y-16274460D02*
X20760658Y-16226841D01*
X20760658Y-16226841D02*
X20760658Y-16188746D01*
X20760658Y-16188746D02*
X20751134Y-16141127D01*
X20751134Y-16141127D02*
X20741611Y-16112555D01*
X20741611Y-16112555D02*
X20732087Y-16093508D01*
X20732087Y-16093508D02*
X20713039Y-16064936D01*
X20713039Y-16064936D02*
X20703515Y-16055412D01*
D12*
X15547500Y-16456500D02*
G75*
G02*
X15467500Y-16456500I-40000J0D01*
G01*
X15467500Y-16456500D02*
G75*
G02*
X15547500Y-16456500I40000J0D01*
G01*
D11*
X15846372Y-16347984D02*
X15865420Y-16347984D01*
X15865420Y-16347984D02*
X15884467Y-16357508D01*
X15884467Y-16357508D02*
X15893991Y-16367031D01*
X15893991Y-16367031D02*
X15903515Y-16386079D01*
X15903515Y-16386079D02*
X15913039Y-16424174D01*
X15913039Y-16424174D02*
X15913039Y-16471793D01*
X15913039Y-16471793D02*
X15903515Y-16509888D01*
X15903515Y-16509888D02*
X15893991Y-16528936D01*
X15893991Y-16528936D02*
X15884467Y-16538460D01*
X15884467Y-16538460D02*
X15865420Y-16547984D01*
X15865420Y-16547984D02*
X15846372Y-16547984D01*
X15846372Y-16547984D02*
X15827324Y-16538460D01*
X15827324Y-16538460D02*
X15817801Y-16528936D01*
X15817801Y-16528936D02*
X15808277Y-16509888D01*
X15808277Y-16509888D02*
X15798753Y-16471793D01*
X15798753Y-16471793D02*
X15798753Y-16424174D01*
X15798753Y-16424174D02*
X15808277Y-16386079D01*
X15808277Y-16386079D02*
X15817801Y-16367031D01*
X15817801Y-16367031D02*
X15827324Y-16357508D01*
X15827324Y-16357508D02*
X15846372Y-16347984D01*
X15998753Y-16528936D02*
X16008277Y-16538460D01*
X16008277Y-16538460D02*
X15998753Y-16547984D01*
X15998753Y-16547984D02*
X15989229Y-16538460D01*
X15989229Y-16538460D02*
X15998753Y-16528936D01*
X15998753Y-16528936D02*
X15998753Y-16547984D01*
X16122562Y-16433698D02*
X16103515Y-16424174D01*
X16103515Y-16424174D02*
X16093991Y-16414650D01*
X16093991Y-16414650D02*
X16084467Y-16395603D01*
X16084467Y-16395603D02*
X16084467Y-16386079D01*
X16084467Y-16386079D02*
X16093991Y-16367031D01*
X16093991Y-16367031D02*
X16103515Y-16357508D01*
X16103515Y-16357508D02*
X16122562Y-16347984D01*
X16122562Y-16347984D02*
X16160658Y-16347984D01*
X16160658Y-16347984D02*
X16179705Y-16357508D01*
X16179705Y-16357508D02*
X16189229Y-16367031D01*
X16189229Y-16367031D02*
X16198753Y-16386079D01*
X16198753Y-16386079D02*
X16198753Y-16395603D01*
X16198753Y-16395603D02*
X16189229Y-16414650D01*
X16189229Y-16414650D02*
X16179705Y-16424174D01*
X16179705Y-16424174D02*
X16160658Y-16433698D01*
X16160658Y-16433698D02*
X16122562Y-16433698D01*
X16122562Y-16433698D02*
X16103515Y-16443222D01*
X16103515Y-16443222D02*
X16093991Y-16452746D01*
X16093991Y-16452746D02*
X16084467Y-16471793D01*
X16084467Y-16471793D02*
X16084467Y-16509888D01*
X16084467Y-16509888D02*
X16093991Y-16528936D01*
X16093991Y-16528936D02*
X16103515Y-16538460D01*
X16103515Y-16538460D02*
X16122562Y-16547984D01*
X16122562Y-16547984D02*
X16160658Y-16547984D01*
X16160658Y-16547984D02*
X16179705Y-16538460D01*
X16179705Y-16538460D02*
X16189229Y-16528936D01*
X16189229Y-16528936D02*
X16198753Y-16509888D01*
X16198753Y-16509888D02*
X16198753Y-16471793D01*
X16198753Y-16471793D02*
X16189229Y-16452746D01*
X16189229Y-16452746D02*
X16179705Y-16443222D01*
X16179705Y-16443222D02*
X16160658Y-16433698D01*
X16322562Y-16347984D02*
X16341610Y-16347984D01*
X16341610Y-16347984D02*
X16360658Y-16357508D01*
X16360658Y-16357508D02*
X16370182Y-16367031D01*
X16370182Y-16367031D02*
X16379705Y-16386079D01*
X16379705Y-16386079D02*
X16389229Y-16424174D01*
X16389229Y-16424174D02*
X16389229Y-16471793D01*
X16389229Y-16471793D02*
X16379705Y-16509888D01*
X16379705Y-16509888D02*
X16370182Y-16528936D01*
X16370182Y-16528936D02*
X16360658Y-16538460D01*
X16360658Y-16538460D02*
X16341610Y-16547984D01*
X16341610Y-16547984D02*
X16322562Y-16547984D01*
X16322562Y-16547984D02*
X16303515Y-16538460D01*
X16303515Y-16538460D02*
X16293991Y-16528936D01*
X16293991Y-16528936D02*
X16284467Y-16509888D01*
X16284467Y-16509888D02*
X16274943Y-16471793D01*
X16274943Y-16471793D02*
X16274943Y-16424174D01*
X16274943Y-16424174D02*
X16284467Y-16386079D01*
X16284467Y-16386079D02*
X16293991Y-16367031D01*
X16293991Y-16367031D02*
X16303515Y-16357508D01*
X16303515Y-16357508D02*
X16322562Y-16347984D01*
X16513039Y-16347984D02*
X16532086Y-16347984D01*
X16532086Y-16347984D02*
X16551134Y-16357508D01*
X16551134Y-16357508D02*
X16560658Y-16367031D01*
X16560658Y-16367031D02*
X16570182Y-16386079D01*
X16570182Y-16386079D02*
X16579705Y-16424174D01*
X16579705Y-16424174D02*
X16579705Y-16471793D01*
X16579705Y-16471793D02*
X16570182Y-16509888D01*
X16570182Y-16509888D02*
X16560658Y-16528936D01*
X16560658Y-16528936D02*
X16551134Y-16538460D01*
X16551134Y-16538460D02*
X16532086Y-16547984D01*
X16532086Y-16547984D02*
X16513039Y-16547984D01*
X16513039Y-16547984D02*
X16493991Y-16538460D01*
X16493991Y-16538460D02*
X16484467Y-16528936D01*
X16484467Y-16528936D02*
X16474943Y-16509888D01*
X16474943Y-16509888D02*
X16465420Y-16471793D01*
X16465420Y-16471793D02*
X16465420Y-16424174D01*
X16465420Y-16424174D02*
X16474943Y-16386079D01*
X16474943Y-16386079D02*
X16484467Y-16367031D01*
X16484467Y-16367031D02*
X16493991Y-16357508D01*
X16493991Y-16357508D02*
X16513039Y-16347984D01*
X16665420Y-16547984D02*
X16665420Y-16414650D01*
X16665420Y-16433698D02*
X16674943Y-16424174D01*
X16674943Y-16424174D02*
X16693991Y-16414650D01*
X16693991Y-16414650D02*
X16722563Y-16414650D01*
X16722563Y-16414650D02*
X16741610Y-16424174D01*
X16741610Y-16424174D02*
X16751134Y-16443222D01*
X16751134Y-16443222D02*
X16751134Y-16547984D01*
X16751134Y-16443222D02*
X16760658Y-16424174D01*
X16760658Y-16424174D02*
X16779705Y-16414650D01*
X16779705Y-16414650D02*
X16808277Y-16414650D01*
X16808277Y-16414650D02*
X16827325Y-16424174D01*
X16827325Y-16424174D02*
X16836848Y-16443222D01*
X16836848Y-16443222D02*
X16836848Y-16547984D01*
X16932086Y-16547984D02*
X16932086Y-16414650D01*
X16932086Y-16433698D02*
X16941610Y-16424174D01*
X16941610Y-16424174D02*
X16960658Y-16414650D01*
X16960658Y-16414650D02*
X16989229Y-16414650D01*
X16989229Y-16414650D02*
X17008277Y-16424174D01*
X17008277Y-16424174D02*
X17017801Y-16443222D01*
X17017801Y-16443222D02*
X17017801Y-16547984D01*
X17017801Y-16443222D02*
X17027325Y-16424174D01*
X17027325Y-16424174D02*
X17046372Y-16414650D01*
X17046372Y-16414650D02*
X17074944Y-16414650D01*
X17074944Y-16414650D02*
X17093991Y-16424174D01*
X17093991Y-16424174D02*
X17103515Y-16443222D01*
X17103515Y-16443222D02*
X17103515Y-16547984D01*
X17493991Y-16338460D02*
X17322563Y-16595603D01*
X17751134Y-16347984D02*
X17770182Y-16347984D01*
X17770182Y-16347984D02*
X17789229Y-16357508D01*
X17789229Y-16357508D02*
X17798753Y-16367031D01*
X17798753Y-16367031D02*
X17808277Y-16386079D01*
X17808277Y-16386079D02*
X17817801Y-16424174D01*
X17817801Y-16424174D02*
X17817801Y-16471793D01*
X17817801Y-16471793D02*
X17808277Y-16509888D01*
X17808277Y-16509888D02*
X17798753Y-16528936D01*
X17798753Y-16528936D02*
X17789229Y-16538460D01*
X17789229Y-16538460D02*
X17770182Y-16547984D01*
X17770182Y-16547984D02*
X17751134Y-16547984D01*
X17751134Y-16547984D02*
X17732087Y-16538460D01*
X17732087Y-16538460D02*
X17722563Y-16528936D01*
X17722563Y-16528936D02*
X17713039Y-16509888D01*
X17713039Y-16509888D02*
X17703515Y-16471793D01*
X17703515Y-16471793D02*
X17703515Y-16424174D01*
X17703515Y-16424174D02*
X17713039Y-16386079D01*
X17713039Y-16386079D02*
X17722563Y-16367031D01*
X17722563Y-16367031D02*
X17732087Y-16357508D01*
X17732087Y-16357508D02*
X17751134Y-16347984D01*
X17903515Y-16528936D02*
X17913039Y-16538460D01*
X17913039Y-16538460D02*
X17903515Y-16547984D01*
X17903515Y-16547984D02*
X17893991Y-16538460D01*
X17893991Y-16538460D02*
X17903515Y-16528936D01*
X17903515Y-16528936D02*
X17903515Y-16547984D01*
X18036848Y-16347984D02*
X18055896Y-16347984D01*
X18055896Y-16347984D02*
X18074944Y-16357508D01*
X18074944Y-16357508D02*
X18084468Y-16367031D01*
X18084468Y-16367031D02*
X18093991Y-16386079D01*
X18093991Y-16386079D02*
X18103515Y-16424174D01*
X18103515Y-16424174D02*
X18103515Y-16471793D01*
X18103515Y-16471793D02*
X18093991Y-16509888D01*
X18093991Y-16509888D02*
X18084468Y-16528936D01*
X18084468Y-16528936D02*
X18074944Y-16538460D01*
X18074944Y-16538460D02*
X18055896Y-16547984D01*
X18055896Y-16547984D02*
X18036848Y-16547984D01*
X18036848Y-16547984D02*
X18017801Y-16538460D01*
X18017801Y-16538460D02*
X18008277Y-16528936D01*
X18008277Y-16528936D02*
X17998753Y-16509888D01*
X17998753Y-16509888D02*
X17989229Y-16471793D01*
X17989229Y-16471793D02*
X17989229Y-16424174D01*
X17989229Y-16424174D02*
X17998753Y-16386079D01*
X17998753Y-16386079D02*
X18008277Y-16367031D01*
X18008277Y-16367031D02*
X18017801Y-16357508D01*
X18017801Y-16357508D02*
X18036848Y-16347984D01*
X18170182Y-16347984D02*
X18293991Y-16347984D01*
X18293991Y-16347984D02*
X18227325Y-16424174D01*
X18227325Y-16424174D02*
X18255896Y-16424174D01*
X18255896Y-16424174D02*
X18274944Y-16433698D01*
X18274944Y-16433698D02*
X18284468Y-16443222D01*
X18284468Y-16443222D02*
X18293991Y-16462269D01*
X18293991Y-16462269D02*
X18293991Y-16509888D01*
X18293991Y-16509888D02*
X18284468Y-16528936D01*
X18284468Y-16528936D02*
X18274944Y-16538460D01*
X18274944Y-16538460D02*
X18255896Y-16547984D01*
X18255896Y-16547984D02*
X18198753Y-16547984D01*
X18198753Y-16547984D02*
X18179706Y-16538460D01*
X18179706Y-16538460D02*
X18170182Y-16528936D01*
X18484468Y-16547984D02*
X18370182Y-16547984D01*
X18427325Y-16547984D02*
X18427325Y-16347984D01*
X18427325Y-16347984D02*
X18408277Y-16376555D01*
X18408277Y-16376555D02*
X18389229Y-16395603D01*
X18389229Y-16395603D02*
X18370182Y-16405127D01*
X18665420Y-16347984D02*
X18570182Y-16347984D01*
X18570182Y-16347984D02*
X18560658Y-16443222D01*
X18560658Y-16443222D02*
X18570182Y-16433698D01*
X18570182Y-16433698D02*
X18589229Y-16424174D01*
X18589229Y-16424174D02*
X18636849Y-16424174D01*
X18636849Y-16424174D02*
X18655896Y-16433698D01*
X18655896Y-16433698D02*
X18665420Y-16443222D01*
X18665420Y-16443222D02*
X18674944Y-16462269D01*
X18674944Y-16462269D02*
X18674944Y-16509888D01*
X18674944Y-16509888D02*
X18665420Y-16528936D01*
X18665420Y-16528936D02*
X18655896Y-16538460D01*
X18655896Y-16538460D02*
X18636849Y-16547984D01*
X18636849Y-16547984D02*
X18589229Y-16547984D01*
X18589229Y-16547984D02*
X18570182Y-16538460D01*
X18570182Y-16538460D02*
X18560658Y-16528936D01*
X18751134Y-16347984D02*
X18751134Y-16386079D01*
X18827325Y-16347984D02*
X18827325Y-16386079D01*
X19122563Y-16624174D02*
X19113039Y-16614650D01*
X19113039Y-16614650D02*
X19093991Y-16586079D01*
X19093991Y-16586079D02*
X19084468Y-16567031D01*
X19084468Y-16567031D02*
X19074944Y-16538460D01*
X19074944Y-16538460D02*
X19065420Y-16490841D01*
X19065420Y-16490841D02*
X19065420Y-16452746D01*
X19065420Y-16452746D02*
X19074944Y-16405127D01*
X19074944Y-16405127D02*
X19084468Y-16376555D01*
X19084468Y-16376555D02*
X19093991Y-16357508D01*
X19093991Y-16357508D02*
X19113039Y-16328936D01*
X19113039Y-16328936D02*
X19122563Y-16319412D01*
X19189230Y-16367031D02*
X19198753Y-16357508D01*
X19198753Y-16357508D02*
X19217801Y-16347984D01*
X19217801Y-16347984D02*
X19265420Y-16347984D01*
X19265420Y-16347984D02*
X19284468Y-16357508D01*
X19284468Y-16357508D02*
X19293991Y-16367031D01*
X19293991Y-16367031D02*
X19303515Y-16386079D01*
X19303515Y-16386079D02*
X19303515Y-16405127D01*
X19303515Y-16405127D02*
X19293991Y-16433698D01*
X19293991Y-16433698D02*
X19179706Y-16547984D01*
X19179706Y-16547984D02*
X19303515Y-16547984D01*
X19541611Y-16547984D02*
X19541611Y-16347984D01*
X19627325Y-16547984D02*
X19627325Y-16443222D01*
X19627325Y-16443222D02*
X19617801Y-16424174D01*
X19617801Y-16424174D02*
X19598753Y-16414650D01*
X19598753Y-16414650D02*
X19570182Y-16414650D01*
X19570182Y-16414650D02*
X19551134Y-16424174D01*
X19551134Y-16424174D02*
X19541611Y-16433698D01*
X19751134Y-16547984D02*
X19732087Y-16538460D01*
X19732087Y-16538460D02*
X19722563Y-16528936D01*
X19722563Y-16528936D02*
X19713039Y-16509888D01*
X19713039Y-16509888D02*
X19713039Y-16452746D01*
X19713039Y-16452746D02*
X19722563Y-16433698D01*
X19722563Y-16433698D02*
X19732087Y-16424174D01*
X19732087Y-16424174D02*
X19751134Y-16414650D01*
X19751134Y-16414650D02*
X19779706Y-16414650D01*
X19779706Y-16414650D02*
X19798753Y-16424174D01*
X19798753Y-16424174D02*
X19808277Y-16433698D01*
X19808277Y-16433698D02*
X19817801Y-16452746D01*
X19817801Y-16452746D02*
X19817801Y-16509888D01*
X19817801Y-16509888D02*
X19808277Y-16528936D01*
X19808277Y-16528936D02*
X19798753Y-16538460D01*
X19798753Y-16538460D02*
X19779706Y-16547984D01*
X19779706Y-16547984D02*
X19751134Y-16547984D01*
X19932087Y-16547984D02*
X19913039Y-16538460D01*
X19913039Y-16538460D02*
X19903515Y-16519412D01*
X19903515Y-16519412D02*
X19903515Y-16347984D01*
X20084468Y-16538460D02*
X20065420Y-16547984D01*
X20065420Y-16547984D02*
X20027325Y-16547984D01*
X20027325Y-16547984D02*
X20008277Y-16538460D01*
X20008277Y-16538460D02*
X19998753Y-16519412D01*
X19998753Y-16519412D02*
X19998753Y-16443222D01*
X19998753Y-16443222D02*
X20008277Y-16424174D01*
X20008277Y-16424174D02*
X20027325Y-16414650D01*
X20027325Y-16414650D02*
X20065420Y-16414650D01*
X20065420Y-16414650D02*
X20084468Y-16424174D01*
X20084468Y-16424174D02*
X20093992Y-16443222D01*
X20093992Y-16443222D02*
X20093992Y-16462269D01*
X20093992Y-16462269D02*
X19998753Y-16481317D01*
X20170182Y-16538460D02*
X20189230Y-16547984D01*
X20189230Y-16547984D02*
X20227325Y-16547984D01*
X20227325Y-16547984D02*
X20246373Y-16538460D01*
X20246373Y-16538460D02*
X20255896Y-16519412D01*
X20255896Y-16519412D02*
X20255896Y-16509888D01*
X20255896Y-16509888D02*
X20246373Y-16490841D01*
X20246373Y-16490841D02*
X20227325Y-16481317D01*
X20227325Y-16481317D02*
X20198753Y-16481317D01*
X20198753Y-16481317D02*
X20179706Y-16471793D01*
X20179706Y-16471793D02*
X20170182Y-16452746D01*
X20170182Y-16452746D02*
X20170182Y-16443222D01*
X20170182Y-16443222D02*
X20179706Y-16424174D01*
X20179706Y-16424174D02*
X20198753Y-16414650D01*
X20198753Y-16414650D02*
X20227325Y-16414650D01*
X20227325Y-16414650D02*
X20246373Y-16424174D01*
X20322563Y-16624174D02*
X20332087Y-16614650D01*
X20332087Y-16614650D02*
X20351134Y-16586079D01*
X20351134Y-16586079D02*
X20360658Y-16567031D01*
X20360658Y-16567031D02*
X20370182Y-16538460D01*
X20370182Y-16538460D02*
X20379706Y-16490841D01*
X20379706Y-16490841D02*
X20379706Y-16452746D01*
X20379706Y-16452746D02*
X20370182Y-16405127D01*
X20370182Y-16405127D02*
X20360658Y-16376555D01*
X20360658Y-16376555D02*
X20351134Y-16357508D01*
X20351134Y-16357508D02*
X20332087Y-16328936D01*
X20332087Y-16328936D02*
X20322563Y-16319412D01*
D12*
X15502500Y-16675500D02*
X15502500Y-16765500D01*
X15457500Y-16720500D02*
X15547500Y-16720500D01*
D11*
X15846372Y-16611984D02*
X15865420Y-16611984D01*
X15865420Y-16611984D02*
X15884467Y-16621508D01*
X15884467Y-16621508D02*
X15893991Y-16631031D01*
X15893991Y-16631031D02*
X15903515Y-16650079D01*
X15903515Y-16650079D02*
X15913039Y-16688174D01*
X15913039Y-16688174D02*
X15913039Y-16735793D01*
X15913039Y-16735793D02*
X15903515Y-16773888D01*
X15903515Y-16773888D02*
X15893991Y-16792936D01*
X15893991Y-16792936D02*
X15884467Y-16802460D01*
X15884467Y-16802460D02*
X15865420Y-16811984D01*
X15865420Y-16811984D02*
X15846372Y-16811984D01*
X15846372Y-16811984D02*
X15827324Y-16802460D01*
X15827324Y-16802460D02*
X15817801Y-16792936D01*
X15817801Y-16792936D02*
X15808277Y-16773888D01*
X15808277Y-16773888D02*
X15798753Y-16735793D01*
X15798753Y-16735793D02*
X15798753Y-16688174D01*
X15798753Y-16688174D02*
X15808277Y-16650079D01*
X15808277Y-16650079D02*
X15817801Y-16631031D01*
X15817801Y-16631031D02*
X15827324Y-16621508D01*
X15827324Y-16621508D02*
X15846372Y-16611984D01*
X15998753Y-16792936D02*
X16008277Y-16802460D01*
X16008277Y-16802460D02*
X15998753Y-16811984D01*
X15998753Y-16811984D02*
X15989229Y-16802460D01*
X15989229Y-16802460D02*
X15998753Y-16792936D01*
X15998753Y-16792936D02*
X15998753Y-16811984D01*
X16103515Y-16811984D02*
X16141610Y-16811984D01*
X16141610Y-16811984D02*
X16160658Y-16802460D01*
X16160658Y-16802460D02*
X16170182Y-16792936D01*
X16170182Y-16792936D02*
X16189229Y-16764365D01*
X16189229Y-16764365D02*
X16198753Y-16726269D01*
X16198753Y-16726269D02*
X16198753Y-16650079D01*
X16198753Y-16650079D02*
X16189229Y-16631031D01*
X16189229Y-16631031D02*
X16179705Y-16621508D01*
X16179705Y-16621508D02*
X16160658Y-16611984D01*
X16160658Y-16611984D02*
X16122562Y-16611984D01*
X16122562Y-16611984D02*
X16103515Y-16621508D01*
X16103515Y-16621508D02*
X16093991Y-16631031D01*
X16093991Y-16631031D02*
X16084467Y-16650079D01*
X16084467Y-16650079D02*
X16084467Y-16697698D01*
X16084467Y-16697698D02*
X16093991Y-16716746D01*
X16093991Y-16716746D02*
X16103515Y-16726269D01*
X16103515Y-16726269D02*
X16122562Y-16735793D01*
X16122562Y-16735793D02*
X16160658Y-16735793D01*
X16160658Y-16735793D02*
X16179705Y-16726269D01*
X16179705Y-16726269D02*
X16189229Y-16716746D01*
X16189229Y-16716746D02*
X16198753Y-16697698D01*
X16322562Y-16611984D02*
X16341610Y-16611984D01*
X16341610Y-16611984D02*
X16360658Y-16621508D01*
X16360658Y-16621508D02*
X16370182Y-16631031D01*
X16370182Y-16631031D02*
X16379705Y-16650079D01*
X16379705Y-16650079D02*
X16389229Y-16688174D01*
X16389229Y-16688174D02*
X16389229Y-16735793D01*
X16389229Y-16735793D02*
X16379705Y-16773888D01*
X16379705Y-16773888D02*
X16370182Y-16792936D01*
X16370182Y-16792936D02*
X16360658Y-16802460D01*
X16360658Y-16802460D02*
X16341610Y-16811984D01*
X16341610Y-16811984D02*
X16322562Y-16811984D01*
X16322562Y-16811984D02*
X16303515Y-16802460D01*
X16303515Y-16802460D02*
X16293991Y-16792936D01*
X16293991Y-16792936D02*
X16284467Y-16773888D01*
X16284467Y-16773888D02*
X16274943Y-16735793D01*
X16274943Y-16735793D02*
X16274943Y-16688174D01*
X16274943Y-16688174D02*
X16284467Y-16650079D01*
X16284467Y-16650079D02*
X16293991Y-16631031D01*
X16293991Y-16631031D02*
X16303515Y-16621508D01*
X16303515Y-16621508D02*
X16322562Y-16611984D01*
X16513039Y-16611984D02*
X16532086Y-16611984D01*
X16532086Y-16611984D02*
X16551134Y-16621508D01*
X16551134Y-16621508D02*
X16560658Y-16631031D01*
X16560658Y-16631031D02*
X16570182Y-16650079D01*
X16570182Y-16650079D02*
X16579705Y-16688174D01*
X16579705Y-16688174D02*
X16579705Y-16735793D01*
X16579705Y-16735793D02*
X16570182Y-16773888D01*
X16570182Y-16773888D02*
X16560658Y-16792936D01*
X16560658Y-16792936D02*
X16551134Y-16802460D01*
X16551134Y-16802460D02*
X16532086Y-16811984D01*
X16532086Y-16811984D02*
X16513039Y-16811984D01*
X16513039Y-16811984D02*
X16493991Y-16802460D01*
X16493991Y-16802460D02*
X16484467Y-16792936D01*
X16484467Y-16792936D02*
X16474943Y-16773888D01*
X16474943Y-16773888D02*
X16465420Y-16735793D01*
X16465420Y-16735793D02*
X16465420Y-16688174D01*
X16465420Y-16688174D02*
X16474943Y-16650079D01*
X16474943Y-16650079D02*
X16484467Y-16631031D01*
X16484467Y-16631031D02*
X16493991Y-16621508D01*
X16493991Y-16621508D02*
X16513039Y-16611984D01*
X16665420Y-16811984D02*
X16665420Y-16678650D01*
X16665420Y-16697698D02*
X16674943Y-16688174D01*
X16674943Y-16688174D02*
X16693991Y-16678650D01*
X16693991Y-16678650D02*
X16722563Y-16678650D01*
X16722563Y-16678650D02*
X16741610Y-16688174D01*
X16741610Y-16688174D02*
X16751134Y-16707222D01*
X16751134Y-16707222D02*
X16751134Y-16811984D01*
X16751134Y-16707222D02*
X16760658Y-16688174D01*
X16760658Y-16688174D02*
X16779705Y-16678650D01*
X16779705Y-16678650D02*
X16808277Y-16678650D01*
X16808277Y-16678650D02*
X16827325Y-16688174D01*
X16827325Y-16688174D02*
X16836848Y-16707222D01*
X16836848Y-16707222D02*
X16836848Y-16811984D01*
X16932086Y-16811984D02*
X16932086Y-16678650D01*
X16932086Y-16697698D02*
X16941610Y-16688174D01*
X16941610Y-16688174D02*
X16960658Y-16678650D01*
X16960658Y-16678650D02*
X16989229Y-16678650D01*
X16989229Y-16678650D02*
X17008277Y-16688174D01*
X17008277Y-16688174D02*
X17017801Y-16707222D01*
X17017801Y-16707222D02*
X17017801Y-16811984D01*
X17017801Y-16707222D02*
X17027325Y-16688174D01*
X17027325Y-16688174D02*
X17046372Y-16678650D01*
X17046372Y-16678650D02*
X17074944Y-16678650D01*
X17074944Y-16678650D02*
X17093991Y-16688174D01*
X17093991Y-16688174D02*
X17103515Y-16707222D01*
X17103515Y-16707222D02*
X17103515Y-16811984D01*
X17493991Y-16602460D02*
X17322563Y-16859603D01*
X17751134Y-16611984D02*
X17770182Y-16611984D01*
X17770182Y-16611984D02*
X17789229Y-16621508D01*
X17789229Y-16621508D02*
X17798753Y-16631031D01*
X17798753Y-16631031D02*
X17808277Y-16650079D01*
X17808277Y-16650079D02*
X17817801Y-16688174D01*
X17817801Y-16688174D02*
X17817801Y-16735793D01*
X17817801Y-16735793D02*
X17808277Y-16773888D01*
X17808277Y-16773888D02*
X17798753Y-16792936D01*
X17798753Y-16792936D02*
X17789229Y-16802460D01*
X17789229Y-16802460D02*
X17770182Y-16811984D01*
X17770182Y-16811984D02*
X17751134Y-16811984D01*
X17751134Y-16811984D02*
X17732087Y-16802460D01*
X17732087Y-16802460D02*
X17722563Y-16792936D01*
X17722563Y-16792936D02*
X17713039Y-16773888D01*
X17713039Y-16773888D02*
X17703515Y-16735793D01*
X17703515Y-16735793D02*
X17703515Y-16688174D01*
X17703515Y-16688174D02*
X17713039Y-16650079D01*
X17713039Y-16650079D02*
X17722563Y-16631031D01*
X17722563Y-16631031D02*
X17732087Y-16621508D01*
X17732087Y-16621508D02*
X17751134Y-16611984D01*
X17903515Y-16792936D02*
X17913039Y-16802460D01*
X17913039Y-16802460D02*
X17903515Y-16811984D01*
X17903515Y-16811984D02*
X17893991Y-16802460D01*
X17893991Y-16802460D02*
X17903515Y-16792936D01*
X17903515Y-16792936D02*
X17903515Y-16811984D01*
X18036848Y-16611984D02*
X18055896Y-16611984D01*
X18055896Y-16611984D02*
X18074944Y-16621508D01*
X18074944Y-16621508D02*
X18084468Y-16631031D01*
X18084468Y-16631031D02*
X18093991Y-16650079D01*
X18093991Y-16650079D02*
X18103515Y-16688174D01*
X18103515Y-16688174D02*
X18103515Y-16735793D01*
X18103515Y-16735793D02*
X18093991Y-16773888D01*
X18093991Y-16773888D02*
X18084468Y-16792936D01*
X18084468Y-16792936D02*
X18074944Y-16802460D01*
X18074944Y-16802460D02*
X18055896Y-16811984D01*
X18055896Y-16811984D02*
X18036848Y-16811984D01*
X18036848Y-16811984D02*
X18017801Y-16802460D01*
X18017801Y-16802460D02*
X18008277Y-16792936D01*
X18008277Y-16792936D02*
X17998753Y-16773888D01*
X17998753Y-16773888D02*
X17989229Y-16735793D01*
X17989229Y-16735793D02*
X17989229Y-16688174D01*
X17989229Y-16688174D02*
X17998753Y-16650079D01*
X17998753Y-16650079D02*
X18008277Y-16631031D01*
X18008277Y-16631031D02*
X18017801Y-16621508D01*
X18017801Y-16621508D02*
X18036848Y-16611984D01*
X18170182Y-16611984D02*
X18293991Y-16611984D01*
X18293991Y-16611984D02*
X18227325Y-16688174D01*
X18227325Y-16688174D02*
X18255896Y-16688174D01*
X18255896Y-16688174D02*
X18274944Y-16697698D01*
X18274944Y-16697698D02*
X18284468Y-16707222D01*
X18284468Y-16707222D02*
X18293991Y-16726269D01*
X18293991Y-16726269D02*
X18293991Y-16773888D01*
X18293991Y-16773888D02*
X18284468Y-16792936D01*
X18284468Y-16792936D02*
X18274944Y-16802460D01*
X18274944Y-16802460D02*
X18255896Y-16811984D01*
X18255896Y-16811984D02*
X18198753Y-16811984D01*
X18198753Y-16811984D02*
X18179706Y-16802460D01*
X18179706Y-16802460D02*
X18170182Y-16792936D01*
X18474944Y-16611984D02*
X18379706Y-16611984D01*
X18379706Y-16611984D02*
X18370182Y-16707222D01*
X18370182Y-16707222D02*
X18379706Y-16697698D01*
X18379706Y-16697698D02*
X18398753Y-16688174D01*
X18398753Y-16688174D02*
X18446372Y-16688174D01*
X18446372Y-16688174D02*
X18465420Y-16697698D01*
X18465420Y-16697698D02*
X18474944Y-16707222D01*
X18474944Y-16707222D02*
X18484468Y-16726269D01*
X18484468Y-16726269D02*
X18484468Y-16773888D01*
X18484468Y-16773888D02*
X18474944Y-16792936D01*
X18474944Y-16792936D02*
X18465420Y-16802460D01*
X18465420Y-16802460D02*
X18446372Y-16811984D01*
X18446372Y-16811984D02*
X18398753Y-16811984D01*
X18398753Y-16811984D02*
X18379706Y-16802460D01*
X18379706Y-16802460D02*
X18370182Y-16792936D01*
X18655896Y-16678650D02*
X18655896Y-16811984D01*
X18608277Y-16602460D02*
X18560658Y-16745317D01*
X18560658Y-16745317D02*
X18684468Y-16745317D01*
X18751134Y-16611984D02*
X18751134Y-16650079D01*
X18827325Y-16611984D02*
X18827325Y-16650079D01*
X19122563Y-16888174D02*
X19113039Y-16878650D01*
X19113039Y-16878650D02*
X19093991Y-16850079D01*
X19093991Y-16850079D02*
X19084468Y-16831031D01*
X19084468Y-16831031D02*
X19074944Y-16802460D01*
X19074944Y-16802460D02*
X19065420Y-16754841D01*
X19065420Y-16754841D02*
X19065420Y-16716746D01*
X19065420Y-16716746D02*
X19074944Y-16669127D01*
X19074944Y-16669127D02*
X19084468Y-16640555D01*
X19084468Y-16640555D02*
X19093991Y-16621508D01*
X19093991Y-16621508D02*
X19113039Y-16592936D01*
X19113039Y-16592936D02*
X19122563Y-16583412D01*
X19284468Y-16611984D02*
X19246372Y-16611984D01*
X19246372Y-16611984D02*
X19227325Y-16621508D01*
X19227325Y-16621508D02*
X19217801Y-16631031D01*
X19217801Y-16631031D02*
X19198753Y-16659603D01*
X19198753Y-16659603D02*
X19189230Y-16697698D01*
X19189230Y-16697698D02*
X19189230Y-16773888D01*
X19189230Y-16773888D02*
X19198753Y-16792936D01*
X19198753Y-16792936D02*
X19208277Y-16802460D01*
X19208277Y-16802460D02*
X19227325Y-16811984D01*
X19227325Y-16811984D02*
X19265420Y-16811984D01*
X19265420Y-16811984D02*
X19284468Y-16802460D01*
X19284468Y-16802460D02*
X19293991Y-16792936D01*
X19293991Y-16792936D02*
X19303515Y-16773888D01*
X19303515Y-16773888D02*
X19303515Y-16726269D01*
X19303515Y-16726269D02*
X19293991Y-16707222D01*
X19293991Y-16707222D02*
X19284468Y-16697698D01*
X19284468Y-16697698D02*
X19265420Y-16688174D01*
X19265420Y-16688174D02*
X19227325Y-16688174D01*
X19227325Y-16688174D02*
X19208277Y-16697698D01*
X19208277Y-16697698D02*
X19198753Y-16707222D01*
X19198753Y-16707222D02*
X19189230Y-16726269D01*
X19541611Y-16811984D02*
X19541611Y-16611984D01*
X19627325Y-16811984D02*
X19627325Y-16707222D01*
X19627325Y-16707222D02*
X19617801Y-16688174D01*
X19617801Y-16688174D02*
X19598753Y-16678650D01*
X19598753Y-16678650D02*
X19570182Y-16678650D01*
X19570182Y-16678650D02*
X19551134Y-16688174D01*
X19551134Y-16688174D02*
X19541611Y-16697698D01*
X19751134Y-16811984D02*
X19732087Y-16802460D01*
X19732087Y-16802460D02*
X19722563Y-16792936D01*
X19722563Y-16792936D02*
X19713039Y-16773888D01*
X19713039Y-16773888D02*
X19713039Y-16716746D01*
X19713039Y-16716746D02*
X19722563Y-16697698D01*
X19722563Y-16697698D02*
X19732087Y-16688174D01*
X19732087Y-16688174D02*
X19751134Y-16678650D01*
X19751134Y-16678650D02*
X19779706Y-16678650D01*
X19779706Y-16678650D02*
X19798753Y-16688174D01*
X19798753Y-16688174D02*
X19808277Y-16697698D01*
X19808277Y-16697698D02*
X19817801Y-16716746D01*
X19817801Y-16716746D02*
X19817801Y-16773888D01*
X19817801Y-16773888D02*
X19808277Y-16792936D01*
X19808277Y-16792936D02*
X19798753Y-16802460D01*
X19798753Y-16802460D02*
X19779706Y-16811984D01*
X19779706Y-16811984D02*
X19751134Y-16811984D01*
X19932087Y-16811984D02*
X19913039Y-16802460D01*
X19913039Y-16802460D02*
X19903515Y-16783412D01*
X19903515Y-16783412D02*
X19903515Y-16611984D01*
X20084468Y-16802460D02*
X20065420Y-16811984D01*
X20065420Y-16811984D02*
X20027325Y-16811984D01*
X20027325Y-16811984D02*
X20008277Y-16802460D01*
X20008277Y-16802460D02*
X19998753Y-16783412D01*
X19998753Y-16783412D02*
X19998753Y-16707222D01*
X19998753Y-16707222D02*
X20008277Y-16688174D01*
X20008277Y-16688174D02*
X20027325Y-16678650D01*
X20027325Y-16678650D02*
X20065420Y-16678650D01*
X20065420Y-16678650D02*
X20084468Y-16688174D01*
X20084468Y-16688174D02*
X20093992Y-16707222D01*
X20093992Y-16707222D02*
X20093992Y-16726269D01*
X20093992Y-16726269D02*
X19998753Y-16745317D01*
X20170182Y-16802460D02*
X20189230Y-16811984D01*
X20189230Y-16811984D02*
X20227325Y-16811984D01*
X20227325Y-16811984D02*
X20246373Y-16802460D01*
X20246373Y-16802460D02*
X20255896Y-16783412D01*
X20255896Y-16783412D02*
X20255896Y-16773888D01*
X20255896Y-16773888D02*
X20246373Y-16754841D01*
X20246373Y-16754841D02*
X20227325Y-16745317D01*
X20227325Y-16745317D02*
X20198753Y-16745317D01*
X20198753Y-16745317D02*
X20179706Y-16735793D01*
X20179706Y-16735793D02*
X20170182Y-16716746D01*
X20170182Y-16716746D02*
X20170182Y-16707222D01*
X20170182Y-16707222D02*
X20179706Y-16688174D01*
X20179706Y-16688174D02*
X20198753Y-16678650D01*
X20198753Y-16678650D02*
X20227325Y-16678650D01*
X20227325Y-16678650D02*
X20246373Y-16688174D01*
X20322563Y-16888174D02*
X20332087Y-16878650D01*
X20332087Y-16878650D02*
X20351134Y-16850079D01*
X20351134Y-16850079D02*
X20360658Y-16831031D01*
X20360658Y-16831031D02*
X20370182Y-16802460D01*
X20370182Y-16802460D02*
X20379706Y-16754841D01*
X20379706Y-16754841D02*
X20379706Y-16716746D01*
X20379706Y-16716746D02*
X20370182Y-16669127D01*
X20370182Y-16669127D02*
X20360658Y-16640555D01*
X20360658Y-16640555D02*
X20351134Y-16621508D01*
X20351134Y-16621508D02*
X20332087Y-16592936D01*
X20332087Y-16592936D02*
X20322563Y-16583412D01*
D12*
X15532856Y-17019856D02*
X15532856Y-16949144D01*
X15462144Y-16949144D01*
X15462144Y-17019856D01*
X15532856Y-17019856D01*
D11*
X15913039Y-17075984D02*
X15798753Y-17075984D01*
X15855896Y-17075984D02*
X15855896Y-16875984D01*
X15855896Y-16875984D02*
X15836848Y-16904555D01*
X15836848Y-16904555D02*
X15817801Y-16923603D01*
X15817801Y-16923603D02*
X15798753Y-16933127D01*
X15998753Y-17056936D02*
X16008277Y-17066460D01*
X16008277Y-17066460D02*
X15998753Y-17075984D01*
X15998753Y-17075984D02*
X15989229Y-17066460D01*
X15989229Y-17066460D02*
X15998753Y-17056936D01*
X15998753Y-17056936D02*
X15998753Y-17075984D01*
X16132086Y-16875984D02*
X16151134Y-16875984D01*
X16151134Y-16875984D02*
X16170182Y-16885508D01*
X16170182Y-16885508D02*
X16179705Y-16895031D01*
X16179705Y-16895031D02*
X16189229Y-16914079D01*
X16189229Y-16914079D02*
X16198753Y-16952174D01*
X16198753Y-16952174D02*
X16198753Y-16999793D01*
X16198753Y-16999793D02*
X16189229Y-17037889D01*
X16189229Y-17037889D02*
X16179705Y-17056936D01*
X16179705Y-17056936D02*
X16170182Y-17066460D01*
X16170182Y-17066460D02*
X16151134Y-17075984D01*
X16151134Y-17075984D02*
X16132086Y-17075984D01*
X16132086Y-17075984D02*
X16113039Y-17066460D01*
X16113039Y-17066460D02*
X16103515Y-17056936D01*
X16103515Y-17056936D02*
X16093991Y-17037889D01*
X16093991Y-17037889D02*
X16084467Y-16999793D01*
X16084467Y-16999793D02*
X16084467Y-16952174D01*
X16084467Y-16952174D02*
X16093991Y-16914079D01*
X16093991Y-16914079D02*
X16103515Y-16895031D01*
X16103515Y-16895031D02*
X16113039Y-16885508D01*
X16113039Y-16885508D02*
X16132086Y-16875984D01*
X16322562Y-16875984D02*
X16341610Y-16875984D01*
X16341610Y-16875984D02*
X16360658Y-16885508D01*
X16360658Y-16885508D02*
X16370182Y-16895031D01*
X16370182Y-16895031D02*
X16379705Y-16914079D01*
X16379705Y-16914079D02*
X16389229Y-16952174D01*
X16389229Y-16952174D02*
X16389229Y-16999793D01*
X16389229Y-16999793D02*
X16379705Y-17037889D01*
X16379705Y-17037889D02*
X16370182Y-17056936D01*
X16370182Y-17056936D02*
X16360658Y-17066460D01*
X16360658Y-17066460D02*
X16341610Y-17075984D01*
X16341610Y-17075984D02*
X16322562Y-17075984D01*
X16322562Y-17075984D02*
X16303515Y-17066460D01*
X16303515Y-17066460D02*
X16293991Y-17056936D01*
X16293991Y-17056936D02*
X16284467Y-17037889D01*
X16284467Y-17037889D02*
X16274943Y-16999793D01*
X16274943Y-16999793D02*
X16274943Y-16952174D01*
X16274943Y-16952174D02*
X16284467Y-16914079D01*
X16284467Y-16914079D02*
X16293991Y-16895031D01*
X16293991Y-16895031D02*
X16303515Y-16885508D01*
X16303515Y-16885508D02*
X16322562Y-16875984D01*
X16513039Y-16875984D02*
X16532086Y-16875984D01*
X16532086Y-16875984D02*
X16551134Y-16885508D01*
X16551134Y-16885508D02*
X16560658Y-16895031D01*
X16560658Y-16895031D02*
X16570182Y-16914079D01*
X16570182Y-16914079D02*
X16579705Y-16952174D01*
X16579705Y-16952174D02*
X16579705Y-16999793D01*
X16579705Y-16999793D02*
X16570182Y-17037889D01*
X16570182Y-17037889D02*
X16560658Y-17056936D01*
X16560658Y-17056936D02*
X16551134Y-17066460D01*
X16551134Y-17066460D02*
X16532086Y-17075984D01*
X16532086Y-17075984D02*
X16513039Y-17075984D01*
X16513039Y-17075984D02*
X16493991Y-17066460D01*
X16493991Y-17066460D02*
X16484467Y-17056936D01*
X16484467Y-17056936D02*
X16474943Y-17037889D01*
X16474943Y-17037889D02*
X16465420Y-16999793D01*
X16465420Y-16999793D02*
X16465420Y-16952174D01*
X16465420Y-16952174D02*
X16474943Y-16914079D01*
X16474943Y-16914079D02*
X16484467Y-16895031D01*
X16484467Y-16895031D02*
X16493991Y-16885508D01*
X16493991Y-16885508D02*
X16513039Y-16875984D01*
X16665420Y-17075984D02*
X16665420Y-16942650D01*
X16665420Y-16961698D02*
X16674943Y-16952174D01*
X16674943Y-16952174D02*
X16693991Y-16942650D01*
X16693991Y-16942650D02*
X16722563Y-16942650D01*
X16722563Y-16942650D02*
X16741610Y-16952174D01*
X16741610Y-16952174D02*
X16751134Y-16971222D01*
X16751134Y-16971222D02*
X16751134Y-17075984D01*
X16751134Y-16971222D02*
X16760658Y-16952174D01*
X16760658Y-16952174D02*
X16779705Y-16942650D01*
X16779705Y-16942650D02*
X16808277Y-16942650D01*
X16808277Y-16942650D02*
X16827325Y-16952174D01*
X16827325Y-16952174D02*
X16836848Y-16971222D01*
X16836848Y-16971222D02*
X16836848Y-17075984D01*
X16932086Y-17075984D02*
X16932086Y-16942650D01*
X16932086Y-16961698D02*
X16941610Y-16952174D01*
X16941610Y-16952174D02*
X16960658Y-16942650D01*
X16960658Y-16942650D02*
X16989229Y-16942650D01*
X16989229Y-16942650D02*
X17008277Y-16952174D01*
X17008277Y-16952174D02*
X17017801Y-16971222D01*
X17017801Y-16971222D02*
X17017801Y-17075984D01*
X17017801Y-16971222D02*
X17027325Y-16952174D01*
X17027325Y-16952174D02*
X17046372Y-16942650D01*
X17046372Y-16942650D02*
X17074944Y-16942650D01*
X17074944Y-16942650D02*
X17093991Y-16952174D01*
X17093991Y-16952174D02*
X17103515Y-16971222D01*
X17103515Y-16971222D02*
X17103515Y-17075984D01*
X17493991Y-16866460D02*
X17322563Y-17123603D01*
X17751134Y-16875984D02*
X17770182Y-16875984D01*
X17770182Y-16875984D02*
X17789229Y-16885508D01*
X17789229Y-16885508D02*
X17798753Y-16895031D01*
X17798753Y-16895031D02*
X17808277Y-16914079D01*
X17808277Y-16914079D02*
X17817801Y-16952174D01*
X17817801Y-16952174D02*
X17817801Y-16999793D01*
X17817801Y-16999793D02*
X17808277Y-17037889D01*
X17808277Y-17037889D02*
X17798753Y-17056936D01*
X17798753Y-17056936D02*
X17789229Y-17066460D01*
X17789229Y-17066460D02*
X17770182Y-17075984D01*
X17770182Y-17075984D02*
X17751134Y-17075984D01*
X17751134Y-17075984D02*
X17732087Y-17066460D01*
X17732087Y-17066460D02*
X17722563Y-17056936D01*
X17722563Y-17056936D02*
X17713039Y-17037889D01*
X17713039Y-17037889D02*
X17703515Y-16999793D01*
X17703515Y-16999793D02*
X17703515Y-16952174D01*
X17703515Y-16952174D02*
X17713039Y-16914079D01*
X17713039Y-16914079D02*
X17722563Y-16895031D01*
X17722563Y-16895031D02*
X17732087Y-16885508D01*
X17732087Y-16885508D02*
X17751134Y-16875984D01*
X17903515Y-17056936D02*
X17913039Y-17066460D01*
X17913039Y-17066460D02*
X17903515Y-17075984D01*
X17903515Y-17075984D02*
X17893991Y-17066460D01*
X17893991Y-17066460D02*
X17903515Y-17056936D01*
X17903515Y-17056936D02*
X17903515Y-17075984D01*
X18036848Y-16875984D02*
X18055896Y-16875984D01*
X18055896Y-16875984D02*
X18074944Y-16885508D01*
X18074944Y-16885508D02*
X18084468Y-16895031D01*
X18084468Y-16895031D02*
X18093991Y-16914079D01*
X18093991Y-16914079D02*
X18103515Y-16952174D01*
X18103515Y-16952174D02*
X18103515Y-16999793D01*
X18103515Y-16999793D02*
X18093991Y-17037889D01*
X18093991Y-17037889D02*
X18084468Y-17056936D01*
X18084468Y-17056936D02*
X18074944Y-17066460D01*
X18074944Y-17066460D02*
X18055896Y-17075984D01*
X18055896Y-17075984D02*
X18036848Y-17075984D01*
X18036848Y-17075984D02*
X18017801Y-17066460D01*
X18017801Y-17066460D02*
X18008277Y-17056936D01*
X18008277Y-17056936D02*
X17998753Y-17037889D01*
X17998753Y-17037889D02*
X17989229Y-16999793D01*
X17989229Y-16999793D02*
X17989229Y-16952174D01*
X17989229Y-16952174D02*
X17998753Y-16914079D01*
X17998753Y-16914079D02*
X18008277Y-16895031D01*
X18008277Y-16895031D02*
X18017801Y-16885508D01*
X18017801Y-16885508D02*
X18036848Y-16875984D01*
X18170182Y-16875984D02*
X18293991Y-16875984D01*
X18293991Y-16875984D02*
X18227325Y-16952174D01*
X18227325Y-16952174D02*
X18255896Y-16952174D01*
X18255896Y-16952174D02*
X18274944Y-16961698D01*
X18274944Y-16961698D02*
X18284468Y-16971222D01*
X18284468Y-16971222D02*
X18293991Y-16990270D01*
X18293991Y-16990270D02*
X18293991Y-17037889D01*
X18293991Y-17037889D02*
X18284468Y-17056936D01*
X18284468Y-17056936D02*
X18274944Y-17066460D01*
X18274944Y-17066460D02*
X18255896Y-17075984D01*
X18255896Y-17075984D02*
X18198753Y-17075984D01*
X18198753Y-17075984D02*
X18179706Y-17066460D01*
X18179706Y-17066460D02*
X18170182Y-17056936D01*
X18389229Y-17075984D02*
X18427325Y-17075984D01*
X18427325Y-17075984D02*
X18446372Y-17066460D01*
X18446372Y-17066460D02*
X18455896Y-17056936D01*
X18455896Y-17056936D02*
X18474944Y-17028365D01*
X18474944Y-17028365D02*
X18484468Y-16990270D01*
X18484468Y-16990270D02*
X18484468Y-16914079D01*
X18484468Y-16914079D02*
X18474944Y-16895031D01*
X18474944Y-16895031D02*
X18465420Y-16885508D01*
X18465420Y-16885508D02*
X18446372Y-16875984D01*
X18446372Y-16875984D02*
X18408277Y-16875984D01*
X18408277Y-16875984D02*
X18389229Y-16885508D01*
X18389229Y-16885508D02*
X18379706Y-16895031D01*
X18379706Y-16895031D02*
X18370182Y-16914079D01*
X18370182Y-16914079D02*
X18370182Y-16961698D01*
X18370182Y-16961698D02*
X18379706Y-16980746D01*
X18379706Y-16980746D02*
X18389229Y-16990270D01*
X18389229Y-16990270D02*
X18408277Y-16999793D01*
X18408277Y-16999793D02*
X18446372Y-16999793D01*
X18446372Y-16999793D02*
X18465420Y-16990270D01*
X18465420Y-16990270D02*
X18474944Y-16980746D01*
X18474944Y-16980746D02*
X18484468Y-16961698D01*
X18655896Y-16942650D02*
X18655896Y-17075984D01*
X18608277Y-16866460D02*
X18560658Y-17009317D01*
X18560658Y-17009317D02*
X18684468Y-17009317D01*
X18751134Y-16875984D02*
X18751134Y-16914079D01*
X18827325Y-16875984D02*
X18827325Y-16914079D01*
X19122563Y-17152174D02*
X19113039Y-17142650D01*
X19113039Y-17142650D02*
X19093991Y-17114079D01*
X19093991Y-17114079D02*
X19084468Y-17095031D01*
X19084468Y-17095031D02*
X19074944Y-17066460D01*
X19074944Y-17066460D02*
X19065420Y-17018841D01*
X19065420Y-17018841D02*
X19065420Y-16980746D01*
X19065420Y-16980746D02*
X19074944Y-16933127D01*
X19074944Y-16933127D02*
X19084468Y-16904555D01*
X19084468Y-16904555D02*
X19093991Y-16885508D01*
X19093991Y-16885508D02*
X19113039Y-16856936D01*
X19113039Y-16856936D02*
X19122563Y-16847412D01*
X19303515Y-17075984D02*
X19189230Y-17075984D01*
X19246372Y-17075984D02*
X19246372Y-16875984D01*
X19246372Y-16875984D02*
X19227325Y-16904555D01*
X19227325Y-16904555D02*
X19208277Y-16923603D01*
X19208277Y-16923603D02*
X19189230Y-16933127D01*
X19474944Y-16942650D02*
X19474944Y-17075984D01*
X19427325Y-16866460D02*
X19379706Y-17009317D01*
X19379706Y-17009317D02*
X19503515Y-17009317D01*
X19732087Y-17075984D02*
X19732087Y-16875984D01*
X19817801Y-17075984D02*
X19817801Y-16971222D01*
X19817801Y-16971222D02*
X19808277Y-16952174D01*
X19808277Y-16952174D02*
X19789230Y-16942650D01*
X19789230Y-16942650D02*
X19760658Y-16942650D01*
X19760658Y-16942650D02*
X19741611Y-16952174D01*
X19741611Y-16952174D02*
X19732087Y-16961698D01*
X19941611Y-17075984D02*
X19922563Y-17066460D01*
X19922563Y-17066460D02*
X19913039Y-17056936D01*
X19913039Y-17056936D02*
X19903515Y-17037889D01*
X19903515Y-17037889D02*
X19903515Y-16980746D01*
X19903515Y-16980746D02*
X19913039Y-16961698D01*
X19913039Y-16961698D02*
X19922563Y-16952174D01*
X19922563Y-16952174D02*
X19941611Y-16942650D01*
X19941611Y-16942650D02*
X19970182Y-16942650D01*
X19970182Y-16942650D02*
X19989230Y-16952174D01*
X19989230Y-16952174D02*
X19998753Y-16961698D01*
X19998753Y-16961698D02*
X20008277Y-16980746D01*
X20008277Y-16980746D02*
X20008277Y-17037889D01*
X20008277Y-17037889D02*
X19998753Y-17056936D01*
X19998753Y-17056936D02*
X19989230Y-17066460D01*
X19989230Y-17066460D02*
X19970182Y-17075984D01*
X19970182Y-17075984D02*
X19941611Y-17075984D01*
X20122563Y-17075984D02*
X20103515Y-17066460D01*
X20103515Y-17066460D02*
X20093992Y-17047412D01*
X20093992Y-17047412D02*
X20093992Y-16875984D01*
X20274944Y-17066460D02*
X20255896Y-17075984D01*
X20255896Y-17075984D02*
X20217801Y-17075984D01*
X20217801Y-17075984D02*
X20198753Y-17066460D01*
X20198753Y-17066460D02*
X20189230Y-17047412D01*
X20189230Y-17047412D02*
X20189230Y-16971222D01*
X20189230Y-16971222D02*
X20198753Y-16952174D01*
X20198753Y-16952174D02*
X20217801Y-16942650D01*
X20217801Y-16942650D02*
X20255896Y-16942650D01*
X20255896Y-16942650D02*
X20274944Y-16952174D01*
X20274944Y-16952174D02*
X20284468Y-16971222D01*
X20284468Y-16971222D02*
X20284468Y-16990270D01*
X20284468Y-16990270D02*
X20189230Y-17009317D01*
X20360658Y-17066460D02*
X20379706Y-17075984D01*
X20379706Y-17075984D02*
X20417801Y-17075984D01*
X20417801Y-17075984D02*
X20436849Y-17066460D01*
X20436849Y-17066460D02*
X20446373Y-17047412D01*
X20446373Y-17047412D02*
X20446373Y-17037889D01*
X20446373Y-17037889D02*
X20436849Y-17018841D01*
X20436849Y-17018841D02*
X20417801Y-17009317D01*
X20417801Y-17009317D02*
X20389230Y-17009317D01*
X20389230Y-17009317D02*
X20370182Y-16999793D01*
X20370182Y-16999793D02*
X20360658Y-16980746D01*
X20360658Y-16980746D02*
X20360658Y-16971222D01*
X20360658Y-16971222D02*
X20370182Y-16952174D01*
X20370182Y-16952174D02*
X20389230Y-16942650D01*
X20389230Y-16942650D02*
X20417801Y-16942650D01*
X20417801Y-16942650D02*
X20436849Y-16952174D01*
X20513039Y-17152174D02*
X20522563Y-17142650D01*
X20522563Y-17142650D02*
X20541611Y-17114079D01*
X20541611Y-17114079D02*
X20551134Y-17095031D01*
X20551134Y-17095031D02*
X20560658Y-17066460D01*
X20560658Y-17066460D02*
X20570182Y-17018841D01*
X20570182Y-17018841D02*
X20570182Y-16980746D01*
X20570182Y-16980746D02*
X20560658Y-16933127D01*
X20560658Y-16933127D02*
X20551134Y-16904555D01*
X20551134Y-16904555D02*
X20541611Y-16885508D01*
X20541611Y-16885508D02*
X20522563Y-16856936D01*
X20522563Y-16856936D02*
X20513039Y-16847412D01*
X15447500Y-17348500D02*
X15547500Y-17248500D01*
X15447500Y-17148500D01*
X15347500Y-17248500D01*
X15447500Y-17348500D01*
X15798753Y-17159031D02*
X15808277Y-17149508D01*
X15808277Y-17149508D02*
X15827324Y-17139984D01*
X15827324Y-17139984D02*
X15874943Y-17139984D01*
X15874943Y-17139984D02*
X15893991Y-17149508D01*
X15893991Y-17149508D02*
X15903515Y-17159031D01*
X15903515Y-17159031D02*
X15913039Y-17178079D01*
X15913039Y-17178079D02*
X15913039Y-17197127D01*
X15913039Y-17197127D02*
X15903515Y-17225698D01*
X15903515Y-17225698D02*
X15789229Y-17339984D01*
X15789229Y-17339984D02*
X15913039Y-17339984D01*
X15998753Y-17320936D02*
X16008277Y-17330460D01*
X16008277Y-17330460D02*
X15998753Y-17339984D01*
X15998753Y-17339984D02*
X15989229Y-17330460D01*
X15989229Y-17330460D02*
X15998753Y-17320936D01*
X15998753Y-17320936D02*
X15998753Y-17339984D01*
X16084467Y-17159031D02*
X16093991Y-17149508D01*
X16093991Y-17149508D02*
X16113039Y-17139984D01*
X16113039Y-17139984D02*
X16160658Y-17139984D01*
X16160658Y-17139984D02*
X16179705Y-17149508D01*
X16179705Y-17149508D02*
X16189229Y-17159031D01*
X16189229Y-17159031D02*
X16198753Y-17178079D01*
X16198753Y-17178079D02*
X16198753Y-17197127D01*
X16198753Y-17197127D02*
X16189229Y-17225698D01*
X16189229Y-17225698D02*
X16074943Y-17339984D01*
X16074943Y-17339984D02*
X16198753Y-17339984D01*
X16322562Y-17139984D02*
X16341610Y-17139984D01*
X16341610Y-17139984D02*
X16360658Y-17149508D01*
X16360658Y-17149508D02*
X16370182Y-17159031D01*
X16370182Y-17159031D02*
X16379705Y-17178079D01*
X16379705Y-17178079D02*
X16389229Y-17216174D01*
X16389229Y-17216174D02*
X16389229Y-17263793D01*
X16389229Y-17263793D02*
X16379705Y-17301889D01*
X16379705Y-17301889D02*
X16370182Y-17320936D01*
X16370182Y-17320936D02*
X16360658Y-17330460D01*
X16360658Y-17330460D02*
X16341610Y-17339984D01*
X16341610Y-17339984D02*
X16322562Y-17339984D01*
X16322562Y-17339984D02*
X16303515Y-17330460D01*
X16303515Y-17330460D02*
X16293991Y-17320936D01*
X16293991Y-17320936D02*
X16284467Y-17301889D01*
X16284467Y-17301889D02*
X16274943Y-17263793D01*
X16274943Y-17263793D02*
X16274943Y-17216174D01*
X16274943Y-17216174D02*
X16284467Y-17178079D01*
X16284467Y-17178079D02*
X16293991Y-17159031D01*
X16293991Y-17159031D02*
X16303515Y-17149508D01*
X16303515Y-17149508D02*
X16322562Y-17139984D01*
X16513039Y-17139984D02*
X16532086Y-17139984D01*
X16532086Y-17139984D02*
X16551134Y-17149508D01*
X16551134Y-17149508D02*
X16560658Y-17159031D01*
X16560658Y-17159031D02*
X16570182Y-17178079D01*
X16570182Y-17178079D02*
X16579705Y-17216174D01*
X16579705Y-17216174D02*
X16579705Y-17263793D01*
X16579705Y-17263793D02*
X16570182Y-17301889D01*
X16570182Y-17301889D02*
X16560658Y-17320936D01*
X16560658Y-17320936D02*
X16551134Y-17330460D01*
X16551134Y-17330460D02*
X16532086Y-17339984D01*
X16532086Y-17339984D02*
X16513039Y-17339984D01*
X16513039Y-17339984D02*
X16493991Y-17330460D01*
X16493991Y-17330460D02*
X16484467Y-17320936D01*
X16484467Y-17320936D02*
X16474943Y-17301889D01*
X16474943Y-17301889D02*
X16465420Y-17263793D01*
X16465420Y-17263793D02*
X16465420Y-17216174D01*
X16465420Y-17216174D02*
X16474943Y-17178079D01*
X16474943Y-17178079D02*
X16484467Y-17159031D01*
X16484467Y-17159031D02*
X16493991Y-17149508D01*
X16493991Y-17149508D02*
X16513039Y-17139984D01*
X16665420Y-17339984D02*
X16665420Y-17206650D01*
X16665420Y-17225698D02*
X16674943Y-17216174D01*
X16674943Y-17216174D02*
X16693991Y-17206650D01*
X16693991Y-17206650D02*
X16722563Y-17206650D01*
X16722563Y-17206650D02*
X16741610Y-17216174D01*
X16741610Y-17216174D02*
X16751134Y-17235222D01*
X16751134Y-17235222D02*
X16751134Y-17339984D01*
X16751134Y-17235222D02*
X16760658Y-17216174D01*
X16760658Y-17216174D02*
X16779705Y-17206650D01*
X16779705Y-17206650D02*
X16808277Y-17206650D01*
X16808277Y-17206650D02*
X16827325Y-17216174D01*
X16827325Y-17216174D02*
X16836848Y-17235222D01*
X16836848Y-17235222D02*
X16836848Y-17339984D01*
X16932086Y-17339984D02*
X16932086Y-17206650D01*
X16932086Y-17225698D02*
X16941610Y-17216174D01*
X16941610Y-17216174D02*
X16960658Y-17206650D01*
X16960658Y-17206650D02*
X16989229Y-17206650D01*
X16989229Y-17206650D02*
X17008277Y-17216174D01*
X17008277Y-17216174D02*
X17017801Y-17235222D01*
X17017801Y-17235222D02*
X17017801Y-17339984D01*
X17017801Y-17235222D02*
X17027325Y-17216174D01*
X17027325Y-17216174D02*
X17046372Y-17206650D01*
X17046372Y-17206650D02*
X17074944Y-17206650D01*
X17074944Y-17206650D02*
X17093991Y-17216174D01*
X17093991Y-17216174D02*
X17103515Y-17235222D01*
X17103515Y-17235222D02*
X17103515Y-17339984D01*
X17493991Y-17130460D02*
X17322563Y-17387603D01*
X17751134Y-17139984D02*
X17770182Y-17139984D01*
X17770182Y-17139984D02*
X17789229Y-17149508D01*
X17789229Y-17149508D02*
X17798753Y-17159031D01*
X17798753Y-17159031D02*
X17808277Y-17178079D01*
X17808277Y-17178079D02*
X17817801Y-17216174D01*
X17817801Y-17216174D02*
X17817801Y-17263793D01*
X17817801Y-17263793D02*
X17808277Y-17301889D01*
X17808277Y-17301889D02*
X17798753Y-17320936D01*
X17798753Y-17320936D02*
X17789229Y-17330460D01*
X17789229Y-17330460D02*
X17770182Y-17339984D01*
X17770182Y-17339984D02*
X17751134Y-17339984D01*
X17751134Y-17339984D02*
X17732087Y-17330460D01*
X17732087Y-17330460D02*
X17722563Y-17320936D01*
X17722563Y-17320936D02*
X17713039Y-17301889D01*
X17713039Y-17301889D02*
X17703515Y-17263793D01*
X17703515Y-17263793D02*
X17703515Y-17216174D01*
X17703515Y-17216174D02*
X17713039Y-17178079D01*
X17713039Y-17178079D02*
X17722563Y-17159031D01*
X17722563Y-17159031D02*
X17732087Y-17149508D01*
X17732087Y-17149508D02*
X17751134Y-17139984D01*
X17903515Y-17320936D02*
X17913039Y-17330460D01*
X17913039Y-17330460D02*
X17903515Y-17339984D01*
X17903515Y-17339984D02*
X17893991Y-17330460D01*
X17893991Y-17330460D02*
X17903515Y-17320936D01*
X17903515Y-17320936D02*
X17903515Y-17339984D01*
X18036848Y-17139984D02*
X18055896Y-17139984D01*
X18055896Y-17139984D02*
X18074944Y-17149508D01*
X18074944Y-17149508D02*
X18084468Y-17159031D01*
X18084468Y-17159031D02*
X18093991Y-17178079D01*
X18093991Y-17178079D02*
X18103515Y-17216174D01*
X18103515Y-17216174D02*
X18103515Y-17263793D01*
X18103515Y-17263793D02*
X18093991Y-17301889D01*
X18093991Y-17301889D02*
X18084468Y-17320936D01*
X18084468Y-17320936D02*
X18074944Y-17330460D01*
X18074944Y-17330460D02*
X18055896Y-17339984D01*
X18055896Y-17339984D02*
X18036848Y-17339984D01*
X18036848Y-17339984D02*
X18017801Y-17330460D01*
X18017801Y-17330460D02*
X18008277Y-17320936D01*
X18008277Y-17320936D02*
X17998753Y-17301889D01*
X17998753Y-17301889D02*
X17989229Y-17263793D01*
X17989229Y-17263793D02*
X17989229Y-17216174D01*
X17989229Y-17216174D02*
X17998753Y-17178079D01*
X17998753Y-17178079D02*
X18008277Y-17159031D01*
X18008277Y-17159031D02*
X18017801Y-17149508D01*
X18017801Y-17149508D02*
X18036848Y-17139984D01*
X18217801Y-17225698D02*
X18198753Y-17216174D01*
X18198753Y-17216174D02*
X18189229Y-17206650D01*
X18189229Y-17206650D02*
X18179706Y-17187603D01*
X18179706Y-17187603D02*
X18179706Y-17178079D01*
X18179706Y-17178079D02*
X18189229Y-17159031D01*
X18189229Y-17159031D02*
X18198753Y-17149508D01*
X18198753Y-17149508D02*
X18217801Y-17139984D01*
X18217801Y-17139984D02*
X18255896Y-17139984D01*
X18255896Y-17139984D02*
X18274944Y-17149508D01*
X18274944Y-17149508D02*
X18284468Y-17159031D01*
X18284468Y-17159031D02*
X18293991Y-17178079D01*
X18293991Y-17178079D02*
X18293991Y-17187603D01*
X18293991Y-17187603D02*
X18284468Y-17206650D01*
X18284468Y-17206650D02*
X18274944Y-17216174D01*
X18274944Y-17216174D02*
X18255896Y-17225698D01*
X18255896Y-17225698D02*
X18217801Y-17225698D01*
X18217801Y-17225698D02*
X18198753Y-17235222D01*
X18198753Y-17235222D02*
X18189229Y-17244746D01*
X18189229Y-17244746D02*
X18179706Y-17263793D01*
X18179706Y-17263793D02*
X18179706Y-17301889D01*
X18179706Y-17301889D02*
X18189229Y-17320936D01*
X18189229Y-17320936D02*
X18198753Y-17330460D01*
X18198753Y-17330460D02*
X18217801Y-17339984D01*
X18217801Y-17339984D02*
X18255896Y-17339984D01*
X18255896Y-17339984D02*
X18274944Y-17330460D01*
X18274944Y-17330460D02*
X18284468Y-17320936D01*
X18284468Y-17320936D02*
X18293991Y-17301889D01*
X18293991Y-17301889D02*
X18293991Y-17263793D01*
X18293991Y-17263793D02*
X18284468Y-17244746D01*
X18284468Y-17244746D02*
X18274944Y-17235222D01*
X18274944Y-17235222D02*
X18255896Y-17225698D01*
X18465420Y-17139984D02*
X18427325Y-17139984D01*
X18427325Y-17139984D02*
X18408277Y-17149508D01*
X18408277Y-17149508D02*
X18398753Y-17159031D01*
X18398753Y-17159031D02*
X18379706Y-17187603D01*
X18379706Y-17187603D02*
X18370182Y-17225698D01*
X18370182Y-17225698D02*
X18370182Y-17301889D01*
X18370182Y-17301889D02*
X18379706Y-17320936D01*
X18379706Y-17320936D02*
X18389229Y-17330460D01*
X18389229Y-17330460D02*
X18408277Y-17339984D01*
X18408277Y-17339984D02*
X18446372Y-17339984D01*
X18446372Y-17339984D02*
X18465420Y-17330460D01*
X18465420Y-17330460D02*
X18474944Y-17320936D01*
X18474944Y-17320936D02*
X18484468Y-17301889D01*
X18484468Y-17301889D02*
X18484468Y-17254270D01*
X18484468Y-17254270D02*
X18474944Y-17235222D01*
X18474944Y-17235222D02*
X18465420Y-17225698D01*
X18465420Y-17225698D02*
X18446372Y-17216174D01*
X18446372Y-17216174D02*
X18408277Y-17216174D01*
X18408277Y-17216174D02*
X18389229Y-17225698D01*
X18389229Y-17225698D02*
X18379706Y-17235222D01*
X18379706Y-17235222D02*
X18370182Y-17254270D01*
X18655896Y-17139984D02*
X18617801Y-17139984D01*
X18617801Y-17139984D02*
X18598753Y-17149508D01*
X18598753Y-17149508D02*
X18589229Y-17159031D01*
X18589229Y-17159031D02*
X18570182Y-17187603D01*
X18570182Y-17187603D02*
X18560658Y-17225698D01*
X18560658Y-17225698D02*
X18560658Y-17301889D01*
X18560658Y-17301889D02*
X18570182Y-17320936D01*
X18570182Y-17320936D02*
X18579706Y-17330460D01*
X18579706Y-17330460D02*
X18598753Y-17339984D01*
X18598753Y-17339984D02*
X18636849Y-17339984D01*
X18636849Y-17339984D02*
X18655896Y-17330460D01*
X18655896Y-17330460D02*
X18665420Y-17320936D01*
X18665420Y-17320936D02*
X18674944Y-17301889D01*
X18674944Y-17301889D02*
X18674944Y-17254270D01*
X18674944Y-17254270D02*
X18665420Y-17235222D01*
X18665420Y-17235222D02*
X18655896Y-17225698D01*
X18655896Y-17225698D02*
X18636849Y-17216174D01*
X18636849Y-17216174D02*
X18598753Y-17216174D01*
X18598753Y-17216174D02*
X18579706Y-17225698D01*
X18579706Y-17225698D02*
X18570182Y-17235222D01*
X18570182Y-17235222D02*
X18560658Y-17254270D01*
X18751134Y-17139984D02*
X18751134Y-17178079D01*
X18827325Y-17139984D02*
X18827325Y-17178079D01*
X19122563Y-17416174D02*
X19113039Y-17406650D01*
X19113039Y-17406650D02*
X19093991Y-17378079D01*
X19093991Y-17378079D02*
X19084468Y-17359031D01*
X19084468Y-17359031D02*
X19074944Y-17330460D01*
X19074944Y-17330460D02*
X19065420Y-17282841D01*
X19065420Y-17282841D02*
X19065420Y-17244746D01*
X19065420Y-17244746D02*
X19074944Y-17197127D01*
X19074944Y-17197127D02*
X19084468Y-17168555D01*
X19084468Y-17168555D02*
X19093991Y-17149508D01*
X19093991Y-17149508D02*
X19113039Y-17120936D01*
X19113039Y-17120936D02*
X19122563Y-17111412D01*
X19284468Y-17139984D02*
X19246372Y-17139984D01*
X19246372Y-17139984D02*
X19227325Y-17149508D01*
X19227325Y-17149508D02*
X19217801Y-17159031D01*
X19217801Y-17159031D02*
X19198753Y-17187603D01*
X19198753Y-17187603D02*
X19189230Y-17225698D01*
X19189230Y-17225698D02*
X19189230Y-17301889D01*
X19189230Y-17301889D02*
X19198753Y-17320936D01*
X19198753Y-17320936D02*
X19208277Y-17330460D01*
X19208277Y-17330460D02*
X19227325Y-17339984D01*
X19227325Y-17339984D02*
X19265420Y-17339984D01*
X19265420Y-17339984D02*
X19284468Y-17330460D01*
X19284468Y-17330460D02*
X19293991Y-17320936D01*
X19293991Y-17320936D02*
X19303515Y-17301889D01*
X19303515Y-17301889D02*
X19303515Y-17254270D01*
X19303515Y-17254270D02*
X19293991Y-17235222D01*
X19293991Y-17235222D02*
X19284468Y-17225698D01*
X19284468Y-17225698D02*
X19265420Y-17216174D01*
X19265420Y-17216174D02*
X19227325Y-17216174D01*
X19227325Y-17216174D02*
X19208277Y-17225698D01*
X19208277Y-17225698D02*
X19198753Y-17235222D01*
X19198753Y-17235222D02*
X19189230Y-17254270D01*
X19541611Y-17339984D02*
X19541611Y-17139984D01*
X19627325Y-17339984D02*
X19627325Y-17235222D01*
X19627325Y-17235222D02*
X19617801Y-17216174D01*
X19617801Y-17216174D02*
X19598753Y-17206650D01*
X19598753Y-17206650D02*
X19570182Y-17206650D01*
X19570182Y-17206650D02*
X19551134Y-17216174D01*
X19551134Y-17216174D02*
X19541611Y-17225698D01*
X19751134Y-17339984D02*
X19732087Y-17330460D01*
X19732087Y-17330460D02*
X19722563Y-17320936D01*
X19722563Y-17320936D02*
X19713039Y-17301889D01*
X19713039Y-17301889D02*
X19713039Y-17244746D01*
X19713039Y-17244746D02*
X19722563Y-17225698D01*
X19722563Y-17225698D02*
X19732087Y-17216174D01*
X19732087Y-17216174D02*
X19751134Y-17206650D01*
X19751134Y-17206650D02*
X19779706Y-17206650D01*
X19779706Y-17206650D02*
X19798753Y-17216174D01*
X19798753Y-17216174D02*
X19808277Y-17225698D01*
X19808277Y-17225698D02*
X19817801Y-17244746D01*
X19817801Y-17244746D02*
X19817801Y-17301889D01*
X19817801Y-17301889D02*
X19808277Y-17320936D01*
X19808277Y-17320936D02*
X19798753Y-17330460D01*
X19798753Y-17330460D02*
X19779706Y-17339984D01*
X19779706Y-17339984D02*
X19751134Y-17339984D01*
X19932087Y-17339984D02*
X19913039Y-17330460D01*
X19913039Y-17330460D02*
X19903515Y-17311412D01*
X19903515Y-17311412D02*
X19903515Y-17139984D01*
X20084468Y-17330460D02*
X20065420Y-17339984D01*
X20065420Y-17339984D02*
X20027325Y-17339984D01*
X20027325Y-17339984D02*
X20008277Y-17330460D01*
X20008277Y-17330460D02*
X19998753Y-17311412D01*
X19998753Y-17311412D02*
X19998753Y-17235222D01*
X19998753Y-17235222D02*
X20008277Y-17216174D01*
X20008277Y-17216174D02*
X20027325Y-17206650D01*
X20027325Y-17206650D02*
X20065420Y-17206650D01*
X20065420Y-17206650D02*
X20084468Y-17216174D01*
X20084468Y-17216174D02*
X20093992Y-17235222D01*
X20093992Y-17235222D02*
X20093992Y-17254270D01*
X20093992Y-17254270D02*
X19998753Y-17273317D01*
X20170182Y-17330460D02*
X20189230Y-17339984D01*
X20189230Y-17339984D02*
X20227325Y-17339984D01*
X20227325Y-17339984D02*
X20246373Y-17330460D01*
X20246373Y-17330460D02*
X20255896Y-17311412D01*
X20255896Y-17311412D02*
X20255896Y-17301889D01*
X20255896Y-17301889D02*
X20246373Y-17282841D01*
X20246373Y-17282841D02*
X20227325Y-17273317D01*
X20227325Y-17273317D02*
X20198753Y-17273317D01*
X20198753Y-17273317D02*
X20179706Y-17263793D01*
X20179706Y-17263793D02*
X20170182Y-17244746D01*
X20170182Y-17244746D02*
X20170182Y-17235222D01*
X20170182Y-17235222D02*
X20179706Y-17216174D01*
X20179706Y-17216174D02*
X20198753Y-17206650D01*
X20198753Y-17206650D02*
X20227325Y-17206650D01*
X20227325Y-17206650D02*
X20246373Y-17216174D01*
X20322563Y-17416174D02*
X20332087Y-17406650D01*
X20332087Y-17406650D02*
X20351134Y-17378079D01*
X20351134Y-17378079D02*
X20360658Y-17359031D01*
X20360658Y-17359031D02*
X20370182Y-17330460D01*
X20370182Y-17330460D02*
X20379706Y-17282841D01*
X20379706Y-17282841D02*
X20379706Y-17244746D01*
X20379706Y-17244746D02*
X20370182Y-17197127D01*
X20370182Y-17197127D02*
X20360658Y-17168555D01*
X20360658Y-17168555D02*
X20351134Y-17149508D01*
X20351134Y-17149508D02*
X20332087Y-17120936D01*
X20332087Y-17120936D02*
X20322563Y-17111412D01*
M02*
