G04 #@! TF.GenerationSoftware,KiCad,Pcbnew,9.0.7*
G04 #@! TF.CreationDate,2026-03-11T14:12:07+02:00*
G04 #@! TF.ProjectId,FlairControlCircuit,466c6169-7243-46f6-9e74-726f6c436972,rev?*
G04 #@! TF.SameCoordinates,Original*
G04 #@! TF.FileFunction,Legend,Bot*
G04 #@! TF.FilePolarity,Positive*
%FSLAX46Y46*%
G04 Gerber Fmt 4.6, Leading zero omitted, Abs format (unit mm)*
G04 Created by KiCad (PCBNEW 9.0.7) date 2026-03-11 14:12:07*
%MOMM*%
%LPD*%
G01*
G04 APERTURE LIST*
G04 Aperture macros list*
%AMRoundRect*
0 Rectangle with rounded corners*
0 $1 Rounding radius*
0 $2 $3 $4 $5 $6 $7 $8 $9 X,Y pos of 4 corners*
0 Add a 4 corners polygon primitive as box body*
4,1,4,$2,$3,$4,$5,$6,$7,$8,$9,$2,$3,0*
0 Add four circle primitives for the rounded corners*
1,1,$1+$1,$2,$3*
1,1,$1+$1,$4,$5*
1,1,$1+$1,$6,$7*
1,1,$1+$1,$8,$9*
0 Add four rect primitives between the rounded corners*
20,1,$1+$1,$2,$3,$4,$5,0*
20,1,$1+$1,$4,$5,$6,$7,0*
20,1,$1+$1,$6,$7,$8,$9,0*
20,1,$1+$1,$8,$9,$2,$3,0*%
G04 Aperture macros list end*
%ADD10C,0.250000*%
%ADD11C,0.150000*%
%ADD12C,0.120000*%
%ADD13C,1.700000*%
%ADD14RoundRect,0.250000X0.600000X0.600000X-0.600000X0.600000X-0.600000X-0.600000X0.600000X-0.600000X0*%
%ADD15C,2.600000*%
%ADD16C,3.800000*%
%ADD17C,3.200000*%
%ADD18RoundRect,0.250000X0.550000X0.550000X-0.550000X0.550000X-0.550000X-0.550000X0.550000X-0.550000X0*%
%ADD19C,1.600000*%
%ADD20R,1.700000X1.700000*%
%ADD21R,1.800000X1.800000*%
%ADD22C,1.800000*%
%ADD23RoundRect,0.237500X0.237500X-0.250000X0.237500X0.250000X-0.237500X0.250000X-0.237500X-0.250000X0*%
%ADD24RoundRect,0.250000X1.150000X0.250000X-1.150000X0.250000X-1.150000X-0.250000X1.150000X-0.250000X0*%
%ADD25R,2.000000X2.000000*%
%ADD26C,2.000000*%
G04 APERTURE END LIST*
D10*
X179835526Y-108954675D02*
X179627192Y-109954675D01*
X179627192Y-109954675D02*
X179168859Y-108954675D01*
X178573621Y-109907056D02*
X178674811Y-109954675D01*
X178674811Y-109954675D02*
X178865288Y-109954675D01*
X178865288Y-109954675D02*
X178954573Y-109907056D01*
X178954573Y-109907056D02*
X178990288Y-109811817D01*
X178990288Y-109811817D02*
X178942669Y-109430865D01*
X178942669Y-109430865D02*
X178883145Y-109335627D01*
X178883145Y-109335627D02*
X178781954Y-109288008D01*
X178781954Y-109288008D02*
X178591478Y-109288008D01*
X178591478Y-109288008D02*
X178502192Y-109335627D01*
X178502192Y-109335627D02*
X178466478Y-109430865D01*
X178466478Y-109430865D02*
X178478383Y-109526103D01*
X178478383Y-109526103D02*
X178966478Y-109621341D01*
X178103383Y-109954675D02*
X178020049Y-109288008D01*
X178043859Y-109478484D02*
X177984335Y-109383246D01*
X177984335Y-109383246D02*
X177930764Y-109335627D01*
X177930764Y-109335627D02*
X177829573Y-109288008D01*
X177829573Y-109288008D02*
X177734335Y-109288008D01*
X176198620Y-109954675D02*
X176770049Y-109954675D01*
X176484334Y-109954675D02*
X176359334Y-108954675D01*
X176359334Y-108954675D02*
X176472430Y-109097532D01*
X176472430Y-109097532D02*
X176579573Y-109192770D01*
X176579573Y-109192770D02*
X176680763Y-109240389D01*
X175758144Y-109859436D02*
X175716477Y-109907056D01*
X175716477Y-109907056D02*
X175770049Y-109954675D01*
X175770049Y-109954675D02*
X175811715Y-109907056D01*
X175811715Y-109907056D02*
X175758144Y-109859436D01*
X175758144Y-109859436D02*
X175770049Y-109954675D01*
X174978382Y-108954675D02*
X174883144Y-108954675D01*
X174883144Y-108954675D02*
X174793859Y-109002294D01*
X174793859Y-109002294D02*
X174752192Y-109049913D01*
X174752192Y-109049913D02*
X174716478Y-109145151D01*
X174716478Y-109145151D02*
X174692668Y-109335627D01*
X174692668Y-109335627D02*
X174722430Y-109573722D01*
X174722430Y-109573722D02*
X174793859Y-109764198D01*
X174793859Y-109764198D02*
X174853382Y-109859436D01*
X174853382Y-109859436D02*
X174906954Y-109907056D01*
X174906954Y-109907056D02*
X175008144Y-109954675D01*
X175008144Y-109954675D02*
X175103382Y-109954675D01*
X175103382Y-109954675D02*
X175192668Y-109907056D01*
X175192668Y-109907056D02*
X175234335Y-109859436D01*
X175234335Y-109859436D02*
X175270049Y-109764198D01*
X175270049Y-109764198D02*
X175293859Y-109573722D01*
X175293859Y-109573722D02*
X175264097Y-109335627D01*
X175264097Y-109335627D02*
X175192668Y-109145151D01*
X175192668Y-109145151D02*
X175133144Y-109049913D01*
X175133144Y-109049913D02*
X175079573Y-109002294D01*
X175079573Y-109002294D02*
X174978382Y-108954675D01*
X181579574Y-111564619D02*
X182151003Y-111564619D01*
X181865288Y-111564619D02*
X181740288Y-110564619D01*
X181740288Y-110564619D02*
X181853384Y-110707476D01*
X181853384Y-110707476D02*
X181960527Y-110802714D01*
X181960527Y-110802714D02*
X182061717Y-110850333D01*
X180627193Y-111564619D02*
X181198622Y-111564619D01*
X180912907Y-111564619D02*
X180787907Y-110564619D01*
X180787907Y-110564619D02*
X180901003Y-110707476D01*
X180901003Y-110707476D02*
X181008146Y-110802714D01*
X181008146Y-110802714D02*
X181109336Y-110850333D01*
X180151003Y-111183666D02*
X179389098Y-111183666D01*
X178930765Y-110564619D02*
X178311717Y-110564619D01*
X178311717Y-110564619D02*
X178692670Y-110945571D01*
X178692670Y-110945571D02*
X178549812Y-110945571D01*
X178549812Y-110945571D02*
X178460527Y-110993190D01*
X178460527Y-110993190D02*
X178418860Y-111040809D01*
X178418860Y-111040809D02*
X178383146Y-111136047D01*
X178383146Y-111136047D02*
X178412908Y-111374142D01*
X178412908Y-111374142D02*
X178472431Y-111469380D01*
X178472431Y-111469380D02*
X178526003Y-111517000D01*
X178526003Y-111517000D02*
X178627193Y-111564619D01*
X178627193Y-111564619D02*
X178912908Y-111564619D01*
X178912908Y-111564619D02*
X179002193Y-111517000D01*
X179002193Y-111517000D02*
X179043860Y-111469380D01*
X177960527Y-111183666D02*
X177198622Y-111183666D01*
X176704574Y-110659857D02*
X176651003Y-110612238D01*
X176651003Y-110612238D02*
X176549813Y-110564619D01*
X176549813Y-110564619D02*
X176311717Y-110564619D01*
X176311717Y-110564619D02*
X176222432Y-110612238D01*
X176222432Y-110612238D02*
X176180765Y-110659857D01*
X176180765Y-110659857D02*
X176145051Y-110755095D01*
X176145051Y-110755095D02*
X176156955Y-110850333D01*
X176156955Y-110850333D02*
X176222432Y-110993190D01*
X176222432Y-110993190D02*
X176865289Y-111564619D01*
X176865289Y-111564619D02*
X176246241Y-111564619D01*
X175264098Y-110564619D02*
X175454574Y-110564619D01*
X175454574Y-110564619D02*
X175555765Y-110612238D01*
X175555765Y-110612238D02*
X175609336Y-110659857D01*
X175609336Y-110659857D02*
X175722432Y-110802714D01*
X175722432Y-110802714D02*
X175793860Y-110993190D01*
X175793860Y-110993190D02*
X175841479Y-111374142D01*
X175841479Y-111374142D02*
X175805765Y-111469380D01*
X175805765Y-111469380D02*
X175764098Y-111517000D01*
X175764098Y-111517000D02*
X175674813Y-111564619D01*
X175674813Y-111564619D02*
X175484336Y-111564619D01*
X175484336Y-111564619D02*
X175383146Y-111517000D01*
X175383146Y-111517000D02*
X175329574Y-111469380D01*
X175329574Y-111469380D02*
X175270051Y-111374142D01*
X175270051Y-111374142D02*
X175240289Y-111136047D01*
X175240289Y-111136047D02*
X175276003Y-111040809D01*
X175276003Y-111040809D02*
X175317670Y-110993190D01*
X175317670Y-110993190D02*
X175406955Y-110945571D01*
X175406955Y-110945571D02*
X175597432Y-110945571D01*
X175597432Y-110945571D02*
X175698622Y-110993190D01*
X175698622Y-110993190D02*
X175752193Y-111040809D01*
X175752193Y-111040809D02*
X175811717Y-111136047D01*
X173258146Y-110517000D02*
X174276003Y-111802714D01*
X173055765Y-111564619D02*
X172930765Y-110564619D01*
X172930765Y-110564619D02*
X172686717Y-111278904D01*
X172686717Y-111278904D02*
X172264098Y-110564619D01*
X172264098Y-110564619D02*
X172389098Y-111564619D01*
X171901003Y-111469380D02*
X171859336Y-111517000D01*
X171859336Y-111517000D02*
X171912908Y-111564619D01*
X171912908Y-111564619D02*
X171954574Y-111517000D01*
X171954574Y-111517000D02*
X171901003Y-111469380D01*
X171901003Y-111469380D02*
X171912908Y-111564619D01*
X171371241Y-111040809D02*
X171037908Y-111040809D01*
X170960527Y-111564619D02*
X171436718Y-111564619D01*
X171436718Y-111564619D02*
X171311718Y-110564619D01*
X171311718Y-110564619D02*
X170835527Y-110564619D01*
D11*
X177788094Y-106854819D02*
X177788094Y-105854819D01*
X177788094Y-105854819D02*
X177549999Y-105854819D01*
X177549999Y-105854819D02*
X177407142Y-105902438D01*
X177407142Y-105902438D02*
X177311904Y-105997676D01*
X177311904Y-105997676D02*
X177264285Y-106092914D01*
X177264285Y-106092914D02*
X177216666Y-106283390D01*
X177216666Y-106283390D02*
X177216666Y-106426247D01*
X177216666Y-106426247D02*
X177264285Y-106616723D01*
X177264285Y-106616723D02*
X177311904Y-106711961D01*
X177311904Y-106711961D02*
X177407142Y-106807200D01*
X177407142Y-106807200D02*
X177549999Y-106854819D01*
X177549999Y-106854819D02*
X177788094Y-106854819D01*
X176359523Y-105854819D02*
X176549999Y-105854819D01*
X176549999Y-105854819D02*
X176645237Y-105902438D01*
X176645237Y-105902438D02*
X176692856Y-105950057D01*
X176692856Y-105950057D02*
X176788094Y-106092914D01*
X176788094Y-106092914D02*
X176835713Y-106283390D01*
X176835713Y-106283390D02*
X176835713Y-106664342D01*
X176835713Y-106664342D02*
X176788094Y-106759580D01*
X176788094Y-106759580D02*
X176740475Y-106807200D01*
X176740475Y-106807200D02*
X176645237Y-106854819D01*
X176645237Y-106854819D02*
X176454761Y-106854819D01*
X176454761Y-106854819D02*
X176359523Y-106807200D01*
X176359523Y-106807200D02*
X176311904Y-106759580D01*
X176311904Y-106759580D02*
X176264285Y-106664342D01*
X176264285Y-106664342D02*
X176264285Y-106426247D01*
X176264285Y-106426247D02*
X176311904Y-106331009D01*
X176311904Y-106331009D02*
X176359523Y-106283390D01*
X176359523Y-106283390D02*
X176454761Y-106235771D01*
X176454761Y-106235771D02*
X176645237Y-106235771D01*
X176645237Y-106235771D02*
X176740475Y-106283390D01*
X176740475Y-106283390D02*
X176788094Y-106331009D01*
X176788094Y-106331009D02*
X176835713Y-106426247D01*
X191438094Y-106454819D02*
X191438094Y-105454819D01*
X191438094Y-105454819D02*
X191199999Y-105454819D01*
X191199999Y-105454819D02*
X191057142Y-105502438D01*
X191057142Y-105502438D02*
X190961904Y-105597676D01*
X190961904Y-105597676D02*
X190914285Y-105692914D01*
X190914285Y-105692914D02*
X190866666Y-105883390D01*
X190866666Y-105883390D02*
X190866666Y-106026247D01*
X190866666Y-106026247D02*
X190914285Y-106216723D01*
X190914285Y-106216723D02*
X190961904Y-106311961D01*
X190961904Y-106311961D02*
X191057142Y-106407200D01*
X191057142Y-106407200D02*
X191199999Y-106454819D01*
X191199999Y-106454819D02*
X191438094Y-106454819D01*
X189961904Y-105454819D02*
X190438094Y-105454819D01*
X190438094Y-105454819D02*
X190485713Y-105931009D01*
X190485713Y-105931009D02*
X190438094Y-105883390D01*
X190438094Y-105883390D02*
X190342856Y-105835771D01*
X190342856Y-105835771D02*
X190104761Y-105835771D01*
X190104761Y-105835771D02*
X190009523Y-105883390D01*
X190009523Y-105883390D02*
X189961904Y-105931009D01*
X189961904Y-105931009D02*
X189914285Y-106026247D01*
X189914285Y-106026247D02*
X189914285Y-106264342D01*
X189914285Y-106264342D02*
X189961904Y-106359580D01*
X189961904Y-106359580D02*
X190009523Y-106407200D01*
X190009523Y-106407200D02*
X190104761Y-106454819D01*
X190104761Y-106454819D02*
X190342856Y-106454819D01*
X190342856Y-106454819D02*
X190438094Y-106407200D01*
X190438094Y-106407200D02*
X190485713Y-106359580D01*
X171142857Y-118054819D02*
X171476190Y-117578628D01*
X171714285Y-118054819D02*
X171714285Y-117054819D01*
X171714285Y-117054819D02*
X171333333Y-117054819D01*
X171333333Y-117054819D02*
X171238095Y-117102438D01*
X171238095Y-117102438D02*
X171190476Y-117150057D01*
X171190476Y-117150057D02*
X171142857Y-117245295D01*
X171142857Y-117245295D02*
X171142857Y-117388152D01*
X171142857Y-117388152D02*
X171190476Y-117483390D01*
X171190476Y-117483390D02*
X171238095Y-117531009D01*
X171238095Y-117531009D02*
X171333333Y-117578628D01*
X171333333Y-117578628D02*
X171714285Y-117578628D01*
X170190476Y-118054819D02*
X170761904Y-118054819D01*
X170476190Y-118054819D02*
X170476190Y-117054819D01*
X170476190Y-117054819D02*
X170571428Y-117197676D01*
X170571428Y-117197676D02*
X170666666Y-117292914D01*
X170666666Y-117292914D02*
X170761904Y-117340533D01*
X169809523Y-117150057D02*
X169761904Y-117102438D01*
X169761904Y-117102438D02*
X169666666Y-117054819D01*
X169666666Y-117054819D02*
X169428571Y-117054819D01*
X169428571Y-117054819D02*
X169333333Y-117102438D01*
X169333333Y-117102438D02*
X169285714Y-117150057D01*
X169285714Y-117150057D02*
X169238095Y-117245295D01*
X169238095Y-117245295D02*
X169238095Y-117340533D01*
X169238095Y-117340533D02*
X169285714Y-117483390D01*
X169285714Y-117483390D02*
X169857142Y-118054819D01*
X169857142Y-118054819D02*
X169238095Y-118054819D01*
X178383332Y-117407200D02*
X178240475Y-117454819D01*
X178240475Y-117454819D02*
X178002380Y-117454819D01*
X178002380Y-117454819D02*
X177907142Y-117407200D01*
X177907142Y-117407200D02*
X177859523Y-117359580D01*
X177859523Y-117359580D02*
X177811904Y-117264342D01*
X177811904Y-117264342D02*
X177811904Y-117169104D01*
X177811904Y-117169104D02*
X177859523Y-117073866D01*
X177859523Y-117073866D02*
X177907142Y-117026247D01*
X177907142Y-117026247D02*
X178002380Y-116978628D01*
X178002380Y-116978628D02*
X178192856Y-116931009D01*
X178192856Y-116931009D02*
X178288094Y-116883390D01*
X178288094Y-116883390D02*
X178335713Y-116835771D01*
X178335713Y-116835771D02*
X178383332Y-116740533D01*
X178383332Y-116740533D02*
X178383332Y-116645295D01*
X178383332Y-116645295D02*
X178335713Y-116550057D01*
X178335713Y-116550057D02*
X178288094Y-116502438D01*
X178288094Y-116502438D02*
X178192856Y-116454819D01*
X178192856Y-116454819D02*
X177954761Y-116454819D01*
X177954761Y-116454819D02*
X177811904Y-116502438D01*
X177478570Y-116454819D02*
X177240475Y-117454819D01*
X177240475Y-117454819D02*
X177049999Y-116740533D01*
X177049999Y-116740533D02*
X176859523Y-117454819D01*
X176859523Y-117454819D02*
X176621428Y-116454819D01*
X176288094Y-116550057D02*
X176240475Y-116502438D01*
X176240475Y-116502438D02*
X176145237Y-116454819D01*
X176145237Y-116454819D02*
X175907142Y-116454819D01*
X175907142Y-116454819D02*
X175811904Y-116502438D01*
X175811904Y-116502438D02*
X175764285Y-116550057D01*
X175764285Y-116550057D02*
X175716666Y-116645295D01*
X175716666Y-116645295D02*
X175716666Y-116740533D01*
X175716666Y-116740533D02*
X175764285Y-116883390D01*
X175764285Y-116883390D02*
X176335713Y-117454819D01*
X176335713Y-117454819D02*
X175716666Y-117454819D01*
X163738094Y-106854819D02*
X163738094Y-105854819D01*
X163738094Y-105854819D02*
X163499999Y-105854819D01*
X163499999Y-105854819D02*
X163357142Y-105902438D01*
X163357142Y-105902438D02*
X163261904Y-105997676D01*
X163261904Y-105997676D02*
X163214285Y-106092914D01*
X163214285Y-106092914D02*
X163166666Y-106283390D01*
X163166666Y-106283390D02*
X163166666Y-106426247D01*
X163166666Y-106426247D02*
X163214285Y-106616723D01*
X163214285Y-106616723D02*
X163261904Y-106711961D01*
X163261904Y-106711961D02*
X163357142Y-106807200D01*
X163357142Y-106807200D02*
X163499999Y-106854819D01*
X163499999Y-106854819D02*
X163738094Y-106854819D01*
X162833332Y-105854819D02*
X162166666Y-105854819D01*
X162166666Y-105854819D02*
X162595237Y-106854819D01*
X191180952Y-110331009D02*
X191038095Y-110378628D01*
X191038095Y-110378628D02*
X190990476Y-110426247D01*
X190990476Y-110426247D02*
X190942857Y-110521485D01*
X190942857Y-110521485D02*
X190942857Y-110664342D01*
X190942857Y-110664342D02*
X190990476Y-110759580D01*
X190990476Y-110759580D02*
X191038095Y-110807200D01*
X191038095Y-110807200D02*
X191133333Y-110854819D01*
X191133333Y-110854819D02*
X191514285Y-110854819D01*
X191514285Y-110854819D02*
X191514285Y-109854819D01*
X191514285Y-109854819D02*
X191180952Y-109854819D01*
X191180952Y-109854819D02*
X191085714Y-109902438D01*
X191085714Y-109902438D02*
X191038095Y-109950057D01*
X191038095Y-109950057D02*
X190990476Y-110045295D01*
X190990476Y-110045295D02*
X190990476Y-110140533D01*
X190990476Y-110140533D02*
X191038095Y-110235771D01*
X191038095Y-110235771D02*
X191085714Y-110283390D01*
X191085714Y-110283390D02*
X191180952Y-110331009D01*
X191180952Y-110331009D02*
X191514285Y-110331009D01*
X190609523Y-109854819D02*
X189942857Y-109854819D01*
X189942857Y-109854819D02*
X190609523Y-110854819D01*
X190609523Y-110854819D02*
X189942857Y-110854819D01*
X189038095Y-110854819D02*
X189609523Y-110854819D01*
X189323809Y-110854819D02*
X189323809Y-109854819D01*
X189323809Y-109854819D02*
X189419047Y-109997676D01*
X189419047Y-109997676D02*
X189514285Y-110092914D01*
X189514285Y-110092914D02*
X189609523Y-110140533D01*
X188033866Y-113609048D02*
X188033866Y-114370953D01*
X188414819Y-113990000D02*
X187652914Y-113990000D01*
D12*
G04 #@! TO.C,D6*
X179191000Y-104860000D02*
X174909000Y-104860000D01*
X174908855Y-104860000D02*
G75*
G02*
X177050000Y-96210000I2141145J4060000D01*
G01*
X177050000Y-96210000D02*
G75*
G02*
X179191145Y-104860000I0J-4590000D01*
G01*
X181050000Y-100800000D02*
G75*
G02*
X173050000Y-100800000I-4000000J0D01*
G01*
X173050000Y-100800000D02*
G75*
G02*
X181050000Y-100800000I4000000J0D01*
G01*
G04 #@! TO.C,D5*
X193241000Y-104860000D02*
X188959000Y-104860000D01*
X188958855Y-104860000D02*
G75*
G02*
X191100000Y-96210000I2141145J4060000D01*
G01*
X191100000Y-96210000D02*
G75*
G02*
X193241145Y-104860000I0J-4590000D01*
G01*
X195100000Y-100800000D02*
G75*
G02*
X187100000Y-100800000I-4000000J0D01*
G01*
X187100000Y-100800000D02*
G75*
G02*
X195100000Y-100800000I4000000J0D01*
G01*
G04 #@! TO.C,R12*
X169777500Y-120354724D02*
X169777500Y-119845276D01*
X170822500Y-120354724D02*
X170822500Y-119845276D01*
G04 #@! TO.C,SW2*
X173840000Y-117890000D02*
X180260000Y-117890000D01*
X173840000Y-118300000D02*
X173840000Y-117890000D01*
X173840000Y-122300000D02*
X173840000Y-119900000D01*
X173840000Y-124310000D02*
X173840000Y-124030000D01*
X180260000Y-117890000D02*
X180260000Y-118300000D01*
X180260000Y-119900000D02*
X180260000Y-122300000D01*
X180260000Y-123900000D02*
X180260000Y-124310000D01*
X180260000Y-124310000D02*
X173840000Y-124310000D01*
G04 #@! TO.C,D7*
X165141000Y-104860000D02*
X160859000Y-104860000D01*
X160858855Y-104860000D02*
G75*
G02*
X163000000Y-96210000I2141145J4060000D01*
G01*
X163000000Y-96210000D02*
G75*
G02*
X165141145Y-104860000I0J-4590000D01*
G01*
X167000000Y-100800000D02*
G75*
G02*
X159000000Y-100800000I-4000000J0D01*
G01*
X159000000Y-100800000D02*
G75*
G02*
X167000000Y-100800000I4000000J0D01*
G01*
G04 #@! TO.C,BZ1*
X196600000Y-117800000D02*
G75*
G02*
X184400000Y-117800000I-6100000J0D01*
G01*
X184400000Y-117800000D02*
G75*
G02*
X196600000Y-117800000I6100000J0D01*
G01*
G04 #@! TD*
%LPC*%
D13*
G04 #@! TO.C,J1*
X163160000Y-110320000D03*
X165700000Y-110320000D03*
X163160000Y-112860000D03*
X165700000Y-112860000D03*
X163160000Y-115400000D03*
X165700000Y-115400000D03*
X163160000Y-117940000D03*
X165700000Y-117940000D03*
X163160000Y-120480000D03*
D14*
X165700000Y-120480000D03*
G04 #@! TD*
D15*
G04 #@! TO.C,H8*
X177000000Y-151800000D03*
D16*
X177000000Y-151800000D03*
G04 #@! TD*
D15*
G04 #@! TO.C,H5*
X160300000Y-151600000D03*
D16*
X160300000Y-151600000D03*
G04 #@! TD*
D15*
G04 #@! TO.C,H3*
X165900000Y-86800000D03*
D16*
X165900000Y-86800000D03*
G04 #@! TD*
D15*
G04 #@! TO.C,H4*
X189500000Y-86800000D03*
D16*
X189500000Y-86800000D03*
G04 #@! TD*
D15*
G04 #@! TO.C,H6*
X194900000Y-94300000D03*
D16*
X194900000Y-94300000D03*
G04 #@! TD*
D15*
G04 #@! TO.C,H7*
X189400000Y-94100000D03*
D16*
X189400000Y-94100000D03*
G04 #@! TD*
D17*
G04 #@! TO.C,H2*
X159400000Y-87400000D03*
G04 #@! TD*
D18*
G04 #@! TO.C,C12*
X178682380Y-125500000D03*
D19*
X176182380Y-125500000D03*
G04 #@! TD*
D17*
G04 #@! TO.C,H1*
X194000000Y-152000000D03*
G04 #@! TD*
D20*
G04 #@! TO.C,J2*
X193200000Y-128900000D03*
D13*
X193200000Y-126360000D03*
G04 #@! TD*
D21*
G04 #@! TO.C,D6*
X177050000Y-102070000D03*
D22*
X177050000Y-99530000D03*
G04 #@! TD*
D21*
G04 #@! TO.C,D5*
X191100000Y-102070000D03*
D22*
X191100000Y-99530000D03*
G04 #@! TD*
D23*
G04 #@! TO.C,R12*
X170300000Y-121012500D03*
X170300000Y-119187500D03*
G04 #@! TD*
D24*
G04 #@! TO.C,SW2*
X179950000Y-119100000D03*
X174150000Y-119100000D03*
X179950000Y-123100000D03*
X174150000Y-123100000D03*
G04 #@! TD*
D21*
G04 #@! TO.C,D7*
X163000000Y-102070000D03*
D22*
X163000000Y-99530000D03*
G04 #@! TD*
D25*
G04 #@! TO.C,BZ1*
X190500000Y-114000000D03*
D26*
X190500000Y-121600000D03*
G04 #@! TD*
%LPD*%
M02*
