M48
; DRILL file {KiCad 9.0.7} date 2026-03-11T14:12:07+0200
; FORMAT={-:-/ absolute / metric / decimal}
; #@! TF.CreationDate,2026-03-11T14:12:07+02:00
; #@! TF.GenerationSoftware,Kicad,Pcbnew,9.0.7
; #@! TF.FileFunction,Plated,1,2,PTH
FMAT,2
METRIC
; #@! TA.AperFunction,Plated,PTH,ViaDrill
T1C0.300
; #@! TA.AperFunction,Plated,PTH,ComponentDrill
T2C0.800
; #@! TA.AperFunction,Plated,PTH,ComponentDrill
T3C0.900
; #@! TA.AperFunction,Plated,PTH,ComponentDrill
T4C1.000
; #@! TA.AperFunction,Plated,PTH,ComponentDrill
T5C2.200
%
G90
G05
T1
X161.5Y-111.6
X161.5Y-116.7
X161.5Y-134.45
X161.5Y-136.45
X161.5Y-138.45
X161.5Y-140.45
X161.5Y-142.45
X161.9Y-122.8
X162.5Y-103.9
X163.2Y-123.9
X163.5Y-134.45
X163.5Y-136.45
X163.5Y-138.45
X163.5Y-140.45
X163.5Y-142.45
X163.6Y-103.9
X165.3Y-124.3
X165.5Y-134.45
X165.5Y-136.45
X165.5Y-138.45
X165.5Y-140.45
X165.5Y-142.45
X166.3Y-93.8
X167.5Y-134.45
X167.5Y-136.45
X167.5Y-138.45
X167.5Y-140.45
X167.5Y-142.45
X168.9Y-129.8
X168.9Y-130.7
X169.5Y-134.45
X169.5Y-136.45
X169.5Y-138.45
X169.5Y-140.45
X169.5Y-142.45
X171.8Y-117.8
X171.8Y-120.2
X172.2Y-131.4
X172.6Y-115.1
X172.9Y-98.5
X173.0Y-86.0
X173.0Y-87.0
X173.0Y-88.0
X173.0Y-89.0
X173.0Y-90.0
X173.5Y-130.0
X174.0Y-86.0
X174.0Y-87.0
X174.0Y-88.0
X174.0Y-89.0
X174.0Y-90.0
X174.4Y-125.4
X174.4Y-126.4
X174.8Y-93.7
X174.8Y-94.7
X174.8Y-95.7
X174.8Y-148.7
X174.8Y-149.5
X175.0Y-86.0
X175.0Y-87.0
X175.0Y-88.0
X175.0Y-89.0
X175.0Y-90.0
X175.3Y-100.8
X175.7Y-148.7
X175.7Y-149.5
X175.8Y-93.7
X175.8Y-94.7
X175.8Y-95.7
X175.9Y-127.7
X176.0Y-86.0
X176.0Y-87.0
X176.0Y-88.0
X176.0Y-89.0
X176.0Y-90.0
X177.0Y-86.0
X177.0Y-87.0
X177.0Y-88.0
X177.0Y-89.0
X177.0Y-90.0
X177.1Y-110.8
X178.2Y-148.6
X178.2Y-149.4
X178.4Y-112.0
X178.4Y-114.6
X179.2Y-148.6
X179.2Y-149.4
X180.2Y-144.2
X180.2Y-145.5
X180.4Y-115.5
X181.3Y-85.9
X181.3Y-86.9
X181.3Y-87.9
X181.3Y-88.9
X181.3Y-89.9
X182.3Y-85.9
X182.3Y-86.9
X182.3Y-87.9
X182.3Y-88.9
X182.3Y-89.9
X183.3Y-85.9
X183.3Y-86.9
X183.3Y-87.9
X183.3Y-88.9
X183.3Y-89.9
X183.4Y-93.6
X183.4Y-94.7
X183.4Y-95.8
X184.3Y-85.9
X184.3Y-86.9
X184.3Y-87.9
X184.3Y-88.9
X184.3Y-89.9
X184.4Y-93.6
X184.4Y-94.7
X184.4Y-95.8
X184.6Y-119.9
X184.8Y-105.3
X185.3Y-85.9
X185.3Y-86.9
X185.3Y-87.9
X185.3Y-88.9
X185.3Y-89.9
X185.8Y-105.3
X186.5Y-119.3
X186.8Y-128.9
X186.8Y-129.8
X188.0Y-110.3
X188.7Y-113.3
X189.0Y-101.3
X189.0Y-102.6
X190.4Y-119.8
X192.4Y-115.6
T2
X176.182Y-125.5
X178.682Y-125.5
T3
X163.0Y-99.53
X163.0Y-102.07
X177.05Y-99.53
X177.05Y-102.07
X191.1Y-99.53
X191.1Y-102.07
T4
X163.16Y-110.32
X163.16Y-112.86
X163.16Y-115.4
X163.16Y-117.94
X163.16Y-120.48
X165.7Y-110.32
X165.7Y-112.86
X165.7Y-115.4
X165.7Y-117.94
X165.7Y-120.48
X190.5Y-114.0
X190.5Y-121.6
X193.2Y-126.36
X193.2Y-128.9
T5
X160.3Y-151.6
X165.9Y-86.8
X177.0Y-151.8
X189.4Y-94.1
X189.5Y-86.8
X194.9Y-94.3
M30
