%TF.GenerationSoftware,KiCad,Pcbnew,9.0.7*%
%TF.CreationDate,2026-03-11T14:12:07+02:00*%
%TF.ProjectId,FlairControlCircuit,466c6169-7243-46f6-9e74-726f6c436972,rev?*%
%TF.SameCoordinates,Original*%
%TF.FileFunction,Drillmap*%
%TF.FilePolarity,Positive*%
%FSLAX45Y45*%
G04 Gerber Fmt 4.5, Leading zero omitted, Abs format (unit mm)*
G04 Created by KiCad (PCBNEW 9.0.7) date 2026-03-11 14:12:07*
%MOMM*%
%LPD*%
G01*
G04 APERTURE LIST*
%ADD10C,0.050000*%
%ADD11C,0.200000*%
%ADD12C,0.320000*%
G04 APERTURE END LIST*
D10*
X19400000Y-15550000D02*
X15900000Y-15550000D01*
X19350000Y-8350000D02*
G75*
G02*
X19750000Y-8750000I0J-400000D01*
G01*
X19750000Y-15200000D02*
G75*
G02*
X19400000Y-15550000I-350000J0D01*
G01*
X19750000Y-8750000D02*
X19750000Y-15200000D01*
X15550000Y-8750000D02*
G75*
G02*
X15950000Y-8350000I400000J0D01*
G01*
X15950000Y-8350000D02*
X19350000Y-8350000D01*
X15550000Y-15200000D02*
X15550000Y-8750000D01*
X15900000Y-15550000D02*
G75*
G02*
X15550000Y-15200000I0J350000D01*
G01*
D11*
D12*
X15780000Y-8580000D02*
X16100000Y-8900000D01*
X16100000Y-8580000D02*
X15780000Y-8900000D01*
X19240000Y-15040000D02*
X19560000Y-15360000D01*
X19560000Y-15040000D02*
X19240000Y-15360000D01*
D11*
X15808277Y-15863984D02*
X15808277Y-15663984D01*
X15808277Y-15663984D02*
X15855896Y-15663984D01*
X15855896Y-15663984D02*
X15884467Y-15673508D01*
X15884467Y-15673508D02*
X15903515Y-15692555D01*
X15903515Y-15692555D02*
X15913039Y-15711603D01*
X15913039Y-15711603D02*
X15922562Y-15749698D01*
X15922562Y-15749698D02*
X15922562Y-15778269D01*
X15922562Y-15778269D02*
X15913039Y-15816365D01*
X15913039Y-15816365D02*
X15903515Y-15835412D01*
X15903515Y-15835412D02*
X15884467Y-15854460D01*
X15884467Y-15854460D02*
X15855896Y-15863984D01*
X15855896Y-15863984D02*
X15808277Y-15863984D01*
X16008277Y-15863984D02*
X16008277Y-15730650D01*
X16008277Y-15768746D02*
X16017801Y-15749698D01*
X16017801Y-15749698D02*
X16027324Y-15740174D01*
X16027324Y-15740174D02*
X16046372Y-15730650D01*
X16046372Y-15730650D02*
X16065420Y-15730650D01*
X16132086Y-15863984D02*
X16132086Y-15730650D01*
X16132086Y-15663984D02*
X16122562Y-15673508D01*
X16122562Y-15673508D02*
X16132086Y-15683031D01*
X16132086Y-15683031D02*
X16141610Y-15673508D01*
X16141610Y-15673508D02*
X16132086Y-15663984D01*
X16132086Y-15663984D02*
X16132086Y-15683031D01*
X16255896Y-15863984D02*
X16236848Y-15854460D01*
X16236848Y-15854460D02*
X16227324Y-15835412D01*
X16227324Y-15835412D02*
X16227324Y-15663984D01*
X16360658Y-15863984D02*
X16341610Y-15854460D01*
X16341610Y-15854460D02*
X16332086Y-15835412D01*
X16332086Y-15835412D02*
X16332086Y-15663984D01*
X16589229Y-15863984D02*
X16589229Y-15663984D01*
X16589229Y-15663984D02*
X16655896Y-15806841D01*
X16655896Y-15806841D02*
X16722562Y-15663984D01*
X16722562Y-15663984D02*
X16722562Y-15863984D01*
X16903515Y-15863984D02*
X16903515Y-15759222D01*
X16903515Y-15759222D02*
X16893991Y-15740174D01*
X16893991Y-15740174D02*
X16874944Y-15730650D01*
X16874944Y-15730650D02*
X16836848Y-15730650D01*
X16836848Y-15730650D02*
X16817801Y-15740174D01*
X16903515Y-15854460D02*
X16884467Y-15863984D01*
X16884467Y-15863984D02*
X16836848Y-15863984D01*
X16836848Y-15863984D02*
X16817801Y-15854460D01*
X16817801Y-15854460D02*
X16808277Y-15835412D01*
X16808277Y-15835412D02*
X16808277Y-15816365D01*
X16808277Y-15816365D02*
X16817801Y-15797317D01*
X16817801Y-15797317D02*
X16836848Y-15787793D01*
X16836848Y-15787793D02*
X16884467Y-15787793D01*
X16884467Y-15787793D02*
X16903515Y-15778269D01*
X16998753Y-15730650D02*
X16998753Y-15930650D01*
X16998753Y-15740174D02*
X17017801Y-15730650D01*
X17017801Y-15730650D02*
X17055896Y-15730650D01*
X17055896Y-15730650D02*
X17074944Y-15740174D01*
X17074944Y-15740174D02*
X17084467Y-15749698D01*
X17084467Y-15749698D02*
X17093991Y-15768746D01*
X17093991Y-15768746D02*
X17093991Y-15825888D01*
X17093991Y-15825888D02*
X17084467Y-15844936D01*
X17084467Y-15844936D02*
X17074944Y-15854460D01*
X17074944Y-15854460D02*
X17055896Y-15863984D01*
X17055896Y-15863984D02*
X17017801Y-15863984D01*
X17017801Y-15863984D02*
X16998753Y-15854460D01*
X17179705Y-15844936D02*
X17189229Y-15854460D01*
X17189229Y-15854460D02*
X17179705Y-15863984D01*
X17179705Y-15863984D02*
X17170182Y-15854460D01*
X17170182Y-15854460D02*
X17179705Y-15844936D01*
X17179705Y-15844936D02*
X17179705Y-15863984D01*
X17179705Y-15740174D02*
X17189229Y-15749698D01*
X17189229Y-15749698D02*
X17179705Y-15759222D01*
X17179705Y-15759222D02*
X17170182Y-15749698D01*
X17170182Y-15749698D02*
X17179705Y-15740174D01*
X17179705Y-15740174D02*
X17179705Y-15759222D01*
X15347500Y-16092500D02*
X15547500Y-16292500D01*
X15547500Y-16092500D02*
X15347500Y-16292500D01*
X15789229Y-16083984D02*
X15913039Y-16083984D01*
X15913039Y-16083984D02*
X15846372Y-16160174D01*
X15846372Y-16160174D02*
X15874943Y-16160174D01*
X15874943Y-16160174D02*
X15893991Y-16169698D01*
X15893991Y-16169698D02*
X15903515Y-16179222D01*
X15903515Y-16179222D02*
X15913039Y-16198269D01*
X15913039Y-16198269D02*
X15913039Y-16245888D01*
X15913039Y-16245888D02*
X15903515Y-16264936D01*
X15903515Y-16264936D02*
X15893991Y-16274460D01*
X15893991Y-16274460D02*
X15874943Y-16283984D01*
X15874943Y-16283984D02*
X15817801Y-16283984D01*
X15817801Y-16283984D02*
X15798753Y-16274460D01*
X15798753Y-16274460D02*
X15789229Y-16264936D01*
X15998753Y-16264936D02*
X16008277Y-16274460D01*
X16008277Y-16274460D02*
X15998753Y-16283984D01*
X15998753Y-16283984D02*
X15989229Y-16274460D01*
X15989229Y-16274460D02*
X15998753Y-16264936D01*
X15998753Y-16264936D02*
X15998753Y-16283984D01*
X16084467Y-16103031D02*
X16093991Y-16093508D01*
X16093991Y-16093508D02*
X16113039Y-16083984D01*
X16113039Y-16083984D02*
X16160658Y-16083984D01*
X16160658Y-16083984D02*
X16179705Y-16093508D01*
X16179705Y-16093508D02*
X16189229Y-16103031D01*
X16189229Y-16103031D02*
X16198753Y-16122079D01*
X16198753Y-16122079D02*
X16198753Y-16141127D01*
X16198753Y-16141127D02*
X16189229Y-16169698D01*
X16189229Y-16169698D02*
X16074943Y-16283984D01*
X16074943Y-16283984D02*
X16198753Y-16283984D01*
X16322562Y-16083984D02*
X16341610Y-16083984D01*
X16341610Y-16083984D02*
X16360658Y-16093508D01*
X16360658Y-16093508D02*
X16370182Y-16103031D01*
X16370182Y-16103031D02*
X16379705Y-16122079D01*
X16379705Y-16122079D02*
X16389229Y-16160174D01*
X16389229Y-16160174D02*
X16389229Y-16207793D01*
X16389229Y-16207793D02*
X16379705Y-16245888D01*
X16379705Y-16245888D02*
X16370182Y-16264936D01*
X16370182Y-16264936D02*
X16360658Y-16274460D01*
X16360658Y-16274460D02*
X16341610Y-16283984D01*
X16341610Y-16283984D02*
X16322562Y-16283984D01*
X16322562Y-16283984D02*
X16303515Y-16274460D01*
X16303515Y-16274460D02*
X16293991Y-16264936D01*
X16293991Y-16264936D02*
X16284467Y-16245888D01*
X16284467Y-16245888D02*
X16274943Y-16207793D01*
X16274943Y-16207793D02*
X16274943Y-16160174D01*
X16274943Y-16160174D02*
X16284467Y-16122079D01*
X16284467Y-16122079D02*
X16293991Y-16103031D01*
X16293991Y-16103031D02*
X16303515Y-16093508D01*
X16303515Y-16093508D02*
X16322562Y-16083984D01*
X16513039Y-16083984D02*
X16532086Y-16083984D01*
X16532086Y-16083984D02*
X16551134Y-16093508D01*
X16551134Y-16093508D02*
X16560658Y-16103031D01*
X16560658Y-16103031D02*
X16570182Y-16122079D01*
X16570182Y-16122079D02*
X16579705Y-16160174D01*
X16579705Y-16160174D02*
X16579705Y-16207793D01*
X16579705Y-16207793D02*
X16570182Y-16245888D01*
X16570182Y-16245888D02*
X16560658Y-16264936D01*
X16560658Y-16264936D02*
X16551134Y-16274460D01*
X16551134Y-16274460D02*
X16532086Y-16283984D01*
X16532086Y-16283984D02*
X16513039Y-16283984D01*
X16513039Y-16283984D02*
X16493991Y-16274460D01*
X16493991Y-16274460D02*
X16484467Y-16264936D01*
X16484467Y-16264936D02*
X16474943Y-16245888D01*
X16474943Y-16245888D02*
X16465420Y-16207793D01*
X16465420Y-16207793D02*
X16465420Y-16160174D01*
X16465420Y-16160174D02*
X16474943Y-16122079D01*
X16474943Y-16122079D02*
X16484467Y-16103031D01*
X16484467Y-16103031D02*
X16493991Y-16093508D01*
X16493991Y-16093508D02*
X16513039Y-16083984D01*
X16665420Y-16283984D02*
X16665420Y-16150650D01*
X16665420Y-16169698D02*
X16674943Y-16160174D01*
X16674943Y-16160174D02*
X16693991Y-16150650D01*
X16693991Y-16150650D02*
X16722563Y-16150650D01*
X16722563Y-16150650D02*
X16741610Y-16160174D01*
X16741610Y-16160174D02*
X16751134Y-16179222D01*
X16751134Y-16179222D02*
X16751134Y-16283984D01*
X16751134Y-16179222D02*
X16760658Y-16160174D01*
X16760658Y-16160174D02*
X16779705Y-16150650D01*
X16779705Y-16150650D02*
X16808277Y-16150650D01*
X16808277Y-16150650D02*
X16827325Y-16160174D01*
X16827325Y-16160174D02*
X16836848Y-16179222D01*
X16836848Y-16179222D02*
X16836848Y-16283984D01*
X16932086Y-16283984D02*
X16932086Y-16150650D01*
X16932086Y-16169698D02*
X16941610Y-16160174D01*
X16941610Y-16160174D02*
X16960658Y-16150650D01*
X16960658Y-16150650D02*
X16989229Y-16150650D01*
X16989229Y-16150650D02*
X17008277Y-16160174D01*
X17008277Y-16160174D02*
X17017801Y-16179222D01*
X17017801Y-16179222D02*
X17017801Y-16283984D01*
X17017801Y-16179222D02*
X17027325Y-16160174D01*
X17027325Y-16160174D02*
X17046372Y-16150650D01*
X17046372Y-16150650D02*
X17074944Y-16150650D01*
X17074944Y-16150650D02*
X17093991Y-16160174D01*
X17093991Y-16160174D02*
X17103515Y-16179222D01*
X17103515Y-16179222D02*
X17103515Y-16283984D01*
X17493991Y-16074460D02*
X17322563Y-16331603D01*
X17751134Y-16083984D02*
X17770182Y-16083984D01*
X17770182Y-16083984D02*
X17789229Y-16093508D01*
X17789229Y-16093508D02*
X17798753Y-16103031D01*
X17798753Y-16103031D02*
X17808277Y-16122079D01*
X17808277Y-16122079D02*
X17817801Y-16160174D01*
X17817801Y-16160174D02*
X17817801Y-16207793D01*
X17817801Y-16207793D02*
X17808277Y-16245888D01*
X17808277Y-16245888D02*
X17798753Y-16264936D01*
X17798753Y-16264936D02*
X17789229Y-16274460D01*
X17789229Y-16274460D02*
X17770182Y-16283984D01*
X17770182Y-16283984D02*
X17751134Y-16283984D01*
X17751134Y-16283984D02*
X17732087Y-16274460D01*
X17732087Y-16274460D02*
X17722563Y-16264936D01*
X17722563Y-16264936D02*
X17713039Y-16245888D01*
X17713039Y-16245888D02*
X17703515Y-16207793D01*
X17703515Y-16207793D02*
X17703515Y-16160174D01*
X17703515Y-16160174D02*
X17713039Y-16122079D01*
X17713039Y-16122079D02*
X17722563Y-16103031D01*
X17722563Y-16103031D02*
X17732087Y-16093508D01*
X17732087Y-16093508D02*
X17751134Y-16083984D01*
X17903515Y-16264936D02*
X17913039Y-16274460D01*
X17913039Y-16274460D02*
X17903515Y-16283984D01*
X17903515Y-16283984D02*
X17893991Y-16274460D01*
X17893991Y-16274460D02*
X17903515Y-16264936D01*
X17903515Y-16264936D02*
X17903515Y-16283984D01*
X18103515Y-16283984D02*
X17989229Y-16283984D01*
X18046372Y-16283984D02*
X18046372Y-16083984D01*
X18046372Y-16083984D02*
X18027325Y-16112555D01*
X18027325Y-16112555D02*
X18008277Y-16131603D01*
X18008277Y-16131603D02*
X17989229Y-16141127D01*
X18179706Y-16103031D02*
X18189229Y-16093508D01*
X18189229Y-16093508D02*
X18208277Y-16083984D01*
X18208277Y-16083984D02*
X18255896Y-16083984D01*
X18255896Y-16083984D02*
X18274944Y-16093508D01*
X18274944Y-16093508D02*
X18284468Y-16103031D01*
X18284468Y-16103031D02*
X18293991Y-16122079D01*
X18293991Y-16122079D02*
X18293991Y-16141127D01*
X18293991Y-16141127D02*
X18284468Y-16169698D01*
X18284468Y-16169698D02*
X18170182Y-16283984D01*
X18170182Y-16283984D02*
X18293991Y-16283984D01*
X18465420Y-16083984D02*
X18427325Y-16083984D01*
X18427325Y-16083984D02*
X18408277Y-16093508D01*
X18408277Y-16093508D02*
X18398753Y-16103031D01*
X18398753Y-16103031D02*
X18379706Y-16131603D01*
X18379706Y-16131603D02*
X18370182Y-16169698D01*
X18370182Y-16169698D02*
X18370182Y-16245888D01*
X18370182Y-16245888D02*
X18379706Y-16264936D01*
X18379706Y-16264936D02*
X18389229Y-16274460D01*
X18389229Y-16274460D02*
X18408277Y-16283984D01*
X18408277Y-16283984D02*
X18446372Y-16283984D01*
X18446372Y-16283984D02*
X18465420Y-16274460D01*
X18465420Y-16274460D02*
X18474944Y-16264936D01*
X18474944Y-16264936D02*
X18484468Y-16245888D01*
X18484468Y-16245888D02*
X18484468Y-16198269D01*
X18484468Y-16198269D02*
X18474944Y-16179222D01*
X18474944Y-16179222D02*
X18465420Y-16169698D01*
X18465420Y-16169698D02*
X18446372Y-16160174D01*
X18446372Y-16160174D02*
X18408277Y-16160174D01*
X18408277Y-16160174D02*
X18389229Y-16169698D01*
X18389229Y-16169698D02*
X18379706Y-16179222D01*
X18379706Y-16179222D02*
X18370182Y-16198269D01*
X18608277Y-16083984D02*
X18627325Y-16083984D01*
X18627325Y-16083984D02*
X18646372Y-16093508D01*
X18646372Y-16093508D02*
X18655896Y-16103031D01*
X18655896Y-16103031D02*
X18665420Y-16122079D01*
X18665420Y-16122079D02*
X18674944Y-16160174D01*
X18674944Y-16160174D02*
X18674944Y-16207793D01*
X18674944Y-16207793D02*
X18665420Y-16245888D01*
X18665420Y-16245888D02*
X18655896Y-16264936D01*
X18655896Y-16264936D02*
X18646372Y-16274460D01*
X18646372Y-16274460D02*
X18627325Y-16283984D01*
X18627325Y-16283984D02*
X18608277Y-16283984D01*
X18608277Y-16283984D02*
X18589229Y-16274460D01*
X18589229Y-16274460D02*
X18579706Y-16264936D01*
X18579706Y-16264936D02*
X18570182Y-16245888D01*
X18570182Y-16245888D02*
X18560658Y-16207793D01*
X18560658Y-16207793D02*
X18560658Y-16160174D01*
X18560658Y-16160174D02*
X18570182Y-16122079D01*
X18570182Y-16122079D02*
X18579706Y-16103031D01*
X18579706Y-16103031D02*
X18589229Y-16093508D01*
X18589229Y-16093508D02*
X18608277Y-16083984D01*
X18751134Y-16083984D02*
X18751134Y-16122079D01*
X18827325Y-16083984D02*
X18827325Y-16122079D01*
X19122563Y-16360174D02*
X19113039Y-16350650D01*
X19113039Y-16350650D02*
X19093991Y-16322079D01*
X19093991Y-16322079D02*
X19084468Y-16303031D01*
X19084468Y-16303031D02*
X19074944Y-16274460D01*
X19074944Y-16274460D02*
X19065420Y-16226841D01*
X19065420Y-16226841D02*
X19065420Y-16188746D01*
X19065420Y-16188746D02*
X19074944Y-16141127D01*
X19074944Y-16141127D02*
X19084468Y-16112555D01*
X19084468Y-16112555D02*
X19093991Y-16093508D01*
X19093991Y-16093508D02*
X19113039Y-16064936D01*
X19113039Y-16064936D02*
X19122563Y-16055412D01*
X19189230Y-16103031D02*
X19198753Y-16093508D01*
X19198753Y-16093508D02*
X19217801Y-16083984D01*
X19217801Y-16083984D02*
X19265420Y-16083984D01*
X19265420Y-16083984D02*
X19284468Y-16093508D01*
X19284468Y-16093508D02*
X19293991Y-16103031D01*
X19293991Y-16103031D02*
X19303515Y-16122079D01*
X19303515Y-16122079D02*
X19303515Y-16141127D01*
X19303515Y-16141127D02*
X19293991Y-16169698D01*
X19293991Y-16169698D02*
X19179706Y-16283984D01*
X19179706Y-16283984D02*
X19303515Y-16283984D01*
X19541611Y-16283984D02*
X19541611Y-16083984D01*
X19627325Y-16283984D02*
X19627325Y-16179222D01*
X19627325Y-16179222D02*
X19617801Y-16160174D01*
X19617801Y-16160174D02*
X19598753Y-16150650D01*
X19598753Y-16150650D02*
X19570182Y-16150650D01*
X19570182Y-16150650D02*
X19551134Y-16160174D01*
X19551134Y-16160174D02*
X19541611Y-16169698D01*
X19751134Y-16283984D02*
X19732087Y-16274460D01*
X19732087Y-16274460D02*
X19722563Y-16264936D01*
X19722563Y-16264936D02*
X19713039Y-16245888D01*
X19713039Y-16245888D02*
X19713039Y-16188746D01*
X19713039Y-16188746D02*
X19722563Y-16169698D01*
X19722563Y-16169698D02*
X19732087Y-16160174D01*
X19732087Y-16160174D02*
X19751134Y-16150650D01*
X19751134Y-16150650D02*
X19779706Y-16150650D01*
X19779706Y-16150650D02*
X19798753Y-16160174D01*
X19798753Y-16160174D02*
X19808277Y-16169698D01*
X19808277Y-16169698D02*
X19817801Y-16188746D01*
X19817801Y-16188746D02*
X19817801Y-16245888D01*
X19817801Y-16245888D02*
X19808277Y-16264936D01*
X19808277Y-16264936D02*
X19798753Y-16274460D01*
X19798753Y-16274460D02*
X19779706Y-16283984D01*
X19779706Y-16283984D02*
X19751134Y-16283984D01*
X19932087Y-16283984D02*
X19913039Y-16274460D01*
X19913039Y-16274460D02*
X19903515Y-16255412D01*
X19903515Y-16255412D02*
X19903515Y-16083984D01*
X20084468Y-16274460D02*
X20065420Y-16283984D01*
X20065420Y-16283984D02*
X20027325Y-16283984D01*
X20027325Y-16283984D02*
X20008277Y-16274460D01*
X20008277Y-16274460D02*
X19998753Y-16255412D01*
X19998753Y-16255412D02*
X19998753Y-16179222D01*
X19998753Y-16179222D02*
X20008277Y-16160174D01*
X20008277Y-16160174D02*
X20027325Y-16150650D01*
X20027325Y-16150650D02*
X20065420Y-16150650D01*
X20065420Y-16150650D02*
X20084468Y-16160174D01*
X20084468Y-16160174D02*
X20093992Y-16179222D01*
X20093992Y-16179222D02*
X20093992Y-16198269D01*
X20093992Y-16198269D02*
X19998753Y-16217317D01*
X20170182Y-16274460D02*
X20189230Y-16283984D01*
X20189230Y-16283984D02*
X20227325Y-16283984D01*
X20227325Y-16283984D02*
X20246373Y-16274460D01*
X20246373Y-16274460D02*
X20255896Y-16255412D01*
X20255896Y-16255412D02*
X20255896Y-16245888D01*
X20255896Y-16245888D02*
X20246373Y-16226841D01*
X20246373Y-16226841D02*
X20227325Y-16217317D01*
X20227325Y-16217317D02*
X20198753Y-16217317D01*
X20198753Y-16217317D02*
X20179706Y-16207793D01*
X20179706Y-16207793D02*
X20170182Y-16188746D01*
X20170182Y-16188746D02*
X20170182Y-16179222D01*
X20170182Y-16179222D02*
X20179706Y-16160174D01*
X20179706Y-16160174D02*
X20198753Y-16150650D01*
X20198753Y-16150650D02*
X20227325Y-16150650D01*
X20227325Y-16150650D02*
X20246373Y-16160174D01*
X20322563Y-16360174D02*
X20332087Y-16350650D01*
X20332087Y-16350650D02*
X20351134Y-16322079D01*
X20351134Y-16322079D02*
X20360658Y-16303031D01*
X20360658Y-16303031D02*
X20370182Y-16274460D01*
X20370182Y-16274460D02*
X20379706Y-16226841D01*
X20379706Y-16226841D02*
X20379706Y-16188746D01*
X20379706Y-16188746D02*
X20370182Y-16141127D01*
X20370182Y-16141127D02*
X20360658Y-16112555D01*
X20360658Y-16112555D02*
X20351134Y-16093508D01*
X20351134Y-16093508D02*
X20332087Y-16064936D01*
X20332087Y-16064936D02*
X20322563Y-16055412D01*
X20684468Y-16360174D02*
X20674944Y-16350650D01*
X20674944Y-16350650D02*
X20655896Y-16322079D01*
X20655896Y-16322079D02*
X20646373Y-16303031D01*
X20646373Y-16303031D02*
X20636849Y-16274460D01*
X20636849Y-16274460D02*
X20627325Y-16226841D01*
X20627325Y-16226841D02*
X20627325Y-16188746D01*
X20627325Y-16188746D02*
X20636849Y-16141127D01*
X20636849Y-16141127D02*
X20646373Y-16112555D01*
X20646373Y-16112555D02*
X20655896Y-16093508D01*
X20655896Y-16093508D02*
X20674944Y-16064936D01*
X20674944Y-16064936D02*
X20684468Y-16055412D01*
X20760658Y-16150650D02*
X20760658Y-16283984D01*
X20760658Y-16169698D02*
X20770182Y-16160174D01*
X20770182Y-16160174D02*
X20789230Y-16150650D01*
X20789230Y-16150650D02*
X20817801Y-16150650D01*
X20817801Y-16150650D02*
X20836849Y-16160174D01*
X20836849Y-16160174D02*
X20846373Y-16179222D01*
X20846373Y-16179222D02*
X20846373Y-16283984D01*
X20970182Y-16283984D02*
X20951134Y-16274460D01*
X20951134Y-16274460D02*
X20941611Y-16264936D01*
X20941611Y-16264936D02*
X20932087Y-16245888D01*
X20932087Y-16245888D02*
X20932087Y-16188746D01*
X20932087Y-16188746D02*
X20941611Y-16169698D01*
X20941611Y-16169698D02*
X20951134Y-16160174D01*
X20951134Y-16160174D02*
X20970182Y-16150650D01*
X20970182Y-16150650D02*
X20998754Y-16150650D01*
X20998754Y-16150650D02*
X21017801Y-16160174D01*
X21017801Y-16160174D02*
X21027325Y-16169698D01*
X21027325Y-16169698D02*
X21036849Y-16188746D01*
X21036849Y-16188746D02*
X21036849Y-16245888D01*
X21036849Y-16245888D02*
X21027325Y-16264936D01*
X21027325Y-16264936D02*
X21017801Y-16274460D01*
X21017801Y-16274460D02*
X20998754Y-16283984D01*
X20998754Y-16283984D02*
X20970182Y-16283984D01*
X21093992Y-16150650D02*
X21170182Y-16150650D01*
X21122563Y-16083984D02*
X21122563Y-16255412D01*
X21122563Y-16255412D02*
X21132087Y-16274460D01*
X21132087Y-16274460D02*
X21151134Y-16283984D01*
X21151134Y-16283984D02*
X21170182Y-16283984D01*
X21389230Y-16150650D02*
X21389230Y-16350650D01*
X21389230Y-16160174D02*
X21408277Y-16150650D01*
X21408277Y-16150650D02*
X21446373Y-16150650D01*
X21446373Y-16150650D02*
X21465420Y-16160174D01*
X21465420Y-16160174D02*
X21474944Y-16169698D01*
X21474944Y-16169698D02*
X21484468Y-16188746D01*
X21484468Y-16188746D02*
X21484468Y-16245888D01*
X21484468Y-16245888D02*
X21474944Y-16264936D01*
X21474944Y-16264936D02*
X21465420Y-16274460D01*
X21465420Y-16274460D02*
X21446373Y-16283984D01*
X21446373Y-16283984D02*
X21408277Y-16283984D01*
X21408277Y-16283984D02*
X21389230Y-16274460D01*
X21598754Y-16283984D02*
X21579706Y-16274460D01*
X21579706Y-16274460D02*
X21570182Y-16255412D01*
X21570182Y-16255412D02*
X21570182Y-16083984D01*
X21760658Y-16283984D02*
X21760658Y-16179222D01*
X21760658Y-16179222D02*
X21751135Y-16160174D01*
X21751135Y-16160174D02*
X21732087Y-16150650D01*
X21732087Y-16150650D02*
X21693992Y-16150650D01*
X21693992Y-16150650D02*
X21674944Y-16160174D01*
X21760658Y-16274460D02*
X21741611Y-16283984D01*
X21741611Y-16283984D02*
X21693992Y-16283984D01*
X21693992Y-16283984D02*
X21674944Y-16274460D01*
X21674944Y-16274460D02*
X21665420Y-16255412D01*
X21665420Y-16255412D02*
X21665420Y-16236365D01*
X21665420Y-16236365D02*
X21674944Y-16217317D01*
X21674944Y-16217317D02*
X21693992Y-16207793D01*
X21693992Y-16207793D02*
X21741611Y-16207793D01*
X21741611Y-16207793D02*
X21760658Y-16198269D01*
X21827325Y-16150650D02*
X21903515Y-16150650D01*
X21855896Y-16083984D02*
X21855896Y-16255412D01*
X21855896Y-16255412D02*
X21865420Y-16274460D01*
X21865420Y-16274460D02*
X21884468Y-16283984D01*
X21884468Y-16283984D02*
X21903515Y-16283984D01*
X22046373Y-16274460D02*
X22027325Y-16283984D01*
X22027325Y-16283984D02*
X21989230Y-16283984D01*
X21989230Y-16283984D02*
X21970182Y-16274460D01*
X21970182Y-16274460D02*
X21960658Y-16255412D01*
X21960658Y-16255412D02*
X21960658Y-16179222D01*
X21960658Y-16179222D02*
X21970182Y-16160174D01*
X21970182Y-16160174D02*
X21989230Y-16150650D01*
X21989230Y-16150650D02*
X22027325Y-16150650D01*
X22027325Y-16150650D02*
X22046373Y-16160174D01*
X22046373Y-16160174D02*
X22055896Y-16179222D01*
X22055896Y-16179222D02*
X22055896Y-16198269D01*
X22055896Y-16198269D02*
X21960658Y-16217317D01*
X22227325Y-16283984D02*
X22227325Y-16083984D01*
X22227325Y-16274460D02*
X22208277Y-16283984D01*
X22208277Y-16283984D02*
X22170182Y-16283984D01*
X22170182Y-16283984D02*
X22151135Y-16274460D01*
X22151135Y-16274460D02*
X22141611Y-16264936D01*
X22141611Y-16264936D02*
X22132087Y-16245888D01*
X22132087Y-16245888D02*
X22132087Y-16188746D01*
X22132087Y-16188746D02*
X22141611Y-16169698D01*
X22141611Y-16169698D02*
X22151135Y-16160174D01*
X22151135Y-16160174D02*
X22170182Y-16150650D01*
X22170182Y-16150650D02*
X22208277Y-16150650D01*
X22208277Y-16150650D02*
X22227325Y-16160174D01*
X22303516Y-16360174D02*
X22313039Y-16350650D01*
X22313039Y-16350650D02*
X22332087Y-16322079D01*
X22332087Y-16322079D02*
X22341611Y-16303031D01*
X22341611Y-16303031D02*
X22351135Y-16274460D01*
X22351135Y-16274460D02*
X22360658Y-16226841D01*
X22360658Y-16226841D02*
X22360658Y-16188746D01*
X22360658Y-16188746D02*
X22351135Y-16141127D01*
X22351135Y-16141127D02*
X22341611Y-16112555D01*
X22341611Y-16112555D02*
X22332087Y-16093508D01*
X22332087Y-16093508D02*
X22313039Y-16064936D01*
X22313039Y-16064936D02*
X22303516Y-16055412D01*
M02*
