G04 #@! TF.GenerationSoftware,KiCad,Pcbnew,9.0.7*
G04 #@! TF.CreationDate,2026-03-11T14:12:07+02:00*
G04 #@! TF.ProjectId,FlairControlCircuit,466c6169-7243-46f6-9e74-726f6c436972,rev?*
G04 #@! TF.SameCoordinates,Original*
G04 #@! TF.FileFunction,Soldermask,Bot*
G04 #@! TF.FilePolarity,Negative*
%FSLAX46Y46*%
G04 Gerber Fmt 4.6, Leading zero omitted, Abs format (unit mm)*
G04 Created by KiCad (PCBNEW 9.0.7) date 2026-03-11 14:12:07*
%MOMM*%
%LPD*%
G01*
G04 APERTURE LIST*
G04 Aperture macros list*
%AMRoundRect*
0 Rectangle with rounded corners*
0 $1 Rounding radius*
0 $2 $3 $4 $5 $6 $7 $8 $9 X,Y pos of 4 corners*
0 Add a 4 corners polygon primitive as box body*
4,1,4,$2,$3,$4,$5,$6,$7,$8,$9,$2,$3,0*
0 Add four circle primitives for the rounded corners*
1,1,$1+$1,$2,$3*
1,1,$1+$1,$4,$5*
1,1,$1+$1,$6,$7*
1,1,$1+$1,$8,$9*
0 Add four rect primitives between the rounded corners*
20,1,$1+$1,$2,$3,$4,$5,0*
20,1,$1+$1,$4,$5,$6,$7,0*
20,1,$1+$1,$6,$7,$8,$9,0*
20,1,$1+$1,$8,$9,$2,$3,0*%
G04 Aperture macros list end*
%ADD10C,1.700000*%
%ADD11RoundRect,0.250000X0.600000X0.600000X-0.600000X0.600000X-0.600000X-0.600000X0.600000X-0.600000X0*%
%ADD12C,2.600000*%
%ADD13C,3.800000*%
%ADD14C,3.200000*%
%ADD15RoundRect,0.250000X0.550000X0.550000X-0.550000X0.550000X-0.550000X-0.550000X0.550000X-0.550000X0*%
%ADD16C,1.600000*%
%ADD17R,1.700000X1.700000*%
%ADD18R,1.800000X1.800000*%
%ADD19C,1.800000*%
%ADD20RoundRect,0.237500X0.237500X-0.250000X0.237500X0.250000X-0.237500X0.250000X-0.237500X-0.250000X0*%
%ADD21RoundRect,0.250000X1.150000X0.250000X-1.150000X0.250000X-1.150000X-0.250000X1.150000X-0.250000X0*%
%ADD22R,2.000000X2.000000*%
%ADD23C,2.000000*%
G04 APERTURE END LIST*
D10*
G04 #@! TO.C,J1*
X163160000Y-110320000D03*
X165700000Y-110320000D03*
X163160000Y-112860000D03*
X165700000Y-112860000D03*
X163160000Y-115400000D03*
X165700000Y-115400000D03*
X163160000Y-117940000D03*
X165700000Y-117940000D03*
X163160000Y-120480000D03*
D11*
X165700000Y-120480000D03*
G04 #@! TD*
D12*
G04 #@! TO.C,H8*
X177000000Y-151800000D03*
D13*
X177000000Y-151800000D03*
G04 #@! TD*
D12*
G04 #@! TO.C,H5*
X160300000Y-151600000D03*
D13*
X160300000Y-151600000D03*
G04 #@! TD*
D12*
G04 #@! TO.C,H3*
X165900000Y-86800000D03*
D13*
X165900000Y-86800000D03*
G04 #@! TD*
D12*
G04 #@! TO.C,H4*
X189500000Y-86800000D03*
D13*
X189500000Y-86800000D03*
G04 #@! TD*
D12*
G04 #@! TO.C,H6*
X194900000Y-94300000D03*
D13*
X194900000Y-94300000D03*
G04 #@! TD*
D12*
G04 #@! TO.C,H7*
X189400000Y-94100000D03*
D13*
X189400000Y-94100000D03*
G04 #@! TD*
D14*
G04 #@! TO.C,H2*
X159400000Y-87400000D03*
G04 #@! TD*
D15*
G04 #@! TO.C,C12*
X178682380Y-125500000D03*
D16*
X176182380Y-125500000D03*
G04 #@! TD*
D14*
G04 #@! TO.C,H1*
X194000000Y-152000000D03*
G04 #@! TD*
D17*
G04 #@! TO.C,J2*
X193200000Y-128900000D03*
D10*
X193200000Y-126360000D03*
G04 #@! TD*
D18*
G04 #@! TO.C,D6*
X177050000Y-102070000D03*
D19*
X177050000Y-99530000D03*
G04 #@! TD*
D18*
G04 #@! TO.C,D5*
X191100000Y-102070000D03*
D19*
X191100000Y-99530000D03*
G04 #@! TD*
D20*
G04 #@! TO.C,R12*
X170300000Y-121012500D03*
X170300000Y-119187500D03*
G04 #@! TD*
D21*
G04 #@! TO.C,SW2*
X179950000Y-119100000D03*
X174150000Y-119100000D03*
X179950000Y-123100000D03*
X174150000Y-123100000D03*
G04 #@! TD*
D18*
G04 #@! TO.C,D7*
X163000000Y-102070000D03*
D19*
X163000000Y-99530000D03*
G04 #@! TD*
D22*
G04 #@! TO.C,BZ1*
X190500000Y-114000000D03*
D23*
X190500000Y-121600000D03*
G04 #@! TD*
M02*
